<?xml version="1.0" encoding="UTF-8" standalone="no"?>
<svg
   xmlns:dc="http://purl.org/dc/elements/1.1/"
   xmlns:cc="http://creativecommons.org/ns#"
   xmlns:rdf="http://www.w3.org/1999/02/22-rdf-syntax-ns#"
   xmlns:svg="http://www.w3.org/2000/svg"
   xmlns="http://www.w3.org/2000/svg"
   xmlns:sodipodi="http://sodipodi.sourceforge.net/DTD/sodipodi-0.dtd"
   xmlns:inkscape="http://www.inkscape.org/namespaces/inkscape"
   viewBox="0 0 348.60001 90.599998"
   height="90.599998"
   width="348.60001"
   version="1.1"
   id="svg2"
   inkscape:version="0.91 r13725"
   sodipodi:docname="blåtåget-large-vit.svg"
   inkscape:export-filename="/Users/thuma/repos/trainhack/dist/media/brands/blåtåget-large-vit.png"
   inkscape:export-xdpi="528"
   inkscape:export-ydpi="528">
  <sodipodi:namedview
     pagecolor="#0000ff"
     bordercolor="#666666"
     borderopacity="1"
     objecttolerance="10"
     gridtolerance="10"
     guidetolerance="10"
     inkscape:pageopacity="0"
     inkscape:pageshadow="2"
     inkscape:window-width="1290"
     inkscape:window-height="774"
     id="namedview27"
     showgrid="false"
     inkscape:zoom="1"
     inkscape:cx="195.37071"
     inkscape:cy="-72.22275"
     inkscape:window-x="56"
     inkscape:window-y="70"
     inkscape:window-maximized="0"
     inkscape:current-layer="svg2" />
  <metadata
     id="metadata8">
    <rdf:RDF>
      <cc:Work
         rdf:about="">
        <dc:format>image/svg+xml</dc:format>
        <dc:type
           rdf:resource="http://purl.org/dc/dcmitype/StillImage" />
        <dc:title></dc:title>
      </cc:Work>
    </rdf:RDF>
  </metadata>
  <defs
     id="defs6" />
  <g
     id="g4181"
     style="fill:#ffffff;fill-opacity:1">
    <g
       id="g4220"
       style="fill:#ffffff;fill-opacity:1">
      <path
         style="fill:#ffffff;fill-opacity:1;fill-rule:nonzero;stroke:none;stroke-opacity:1"
         d="m 7.4503193,59.689342 330.0000007,0 0,1.426657 -330.0000007,0 z"
         id="rect4138" />
      <path
         style="opacity:1;fill:#ffffff;fill-opacity:1;fill-rule:nonzero;stroke:none;stroke-opacity:1"
         d="m 7.4499998,56.572998 330.0000002,0 0,1.427 -330.0000002,0 z"
         id="rect4218" />
    </g>
    <path
       style="fill:#ffffff;fill-rule:evenodd;stroke:none;stroke-width:1px;stroke-linecap:butt;stroke-linejoin:miter;stroke-opacity:1;fill-opacity:1"
       d="m 99.215153,77.196483 3.059497,0.14569 18.35699,-61.627033 2.03967,-1.165523 -0.72846,-5.2448543 -0.87414,0 -3.64226,3.3508793 0.43707,2.185355 z"
       id="path4258" />
    <path
       style="fill:#ffffff;fill-rule:evenodd;stroke:none;stroke-width:1px;stroke-linecap:butt;stroke-linejoin:miter;stroke-opacity:1;fill-opacity:1"
       d="m 108.68503,53.886021 4.80778,-8.450042 -0.72845,-0.728452 -4.5164,9.032804 z"
       id="path4264" />
    <g
       transform="scale(1.209599,0.82672027)"
       style="font-style:normal;font-variant:normal;font-weight:normal;font-stretch:normal;font-size:34.8629303px;line-height:125%;font-family:Seravek;-inkscape-font-specification:Seravek;letter-spacing:0px;word-spacing:0px;fill:#ffffff;fill-opacity:1;stroke:none;stroke-width:1px;stroke-linecap:butt;stroke-linejoin:miter;stroke-opacity:1"
       id="text4266">
      <path
         d="m 92.997218,86.470229 q 0,-1.051165 0.774542,-1.825708 0.774543,-0.774543 2.378953,-0.774543 1.715059,0 2.60025,0.885192 0.774543,0.774543 0.774543,1.825708 l -1.272463,0 q 0,-0.663894 -0.442596,-1.10649 -0.49792,-0.49792 -1.549085,-0.49792 -1.161814,0 -1.60441,0.442596 -0.387271,0.387271 -0.387271,0.885191 0,0.497921 0.221297,0.719219 0.276623,0.276622 0.995841,0.553244 1.272463,0.553245 2.876873,1.272463 0.442596,0.165974 0.829867,0.553245 0.608569,0.608569 0.608569,1.438436 0,1.10649 -0.774542,1.881033 -0.829868,0.829867 -2.7109,0.829867 -1.825708,0 -2.821548,-0.995841 -0.719218,-0.719218 -0.719218,-2.10233 l 1.272463,0 q 0,0.995841 0.442595,1.438436 0.60857,0.60857 1.881033,0.60857 1.161814,0 1.715058,-0.553245 0.442596,-0.442596 0.442596,-0.885192 0,-0.49792 -0.331947,-0.829867 -0.276622,-0.276622 -0.885191,-0.553245 -0.553245,-0.276622 -1.438437,-0.663893 -0.99584,-0.442596 -1.604409,-0.719219 -0.442596,-0.165973 -0.774543,-0.49792 -0.49792,-0.49792 -0.49792,-1.327787 z"
         style="font-style:normal;font-variant:normal;font-weight:normal;font-stretch:normal;font-size:14.16306591px;font-family:'MS PGothic';-inkscape-font-specification:'MS PGothic';fill:#ffffff;fill-opacity:1"
         id="path4176" />
      <path
         d="m 101.46186,83.980627 1.27247,0 0,4.315309 4.3153,-4.315309 1.60441,0 -3.76206,3.762065 3.81739,5.698421 -1.49376,0 -3.20882,-4.81323 -1.27246,1.272463 0,3.540767 -1.27247,0 0,-9.460486 z"
         style="font-style:normal;font-variant:normal;font-weight:normal;font-stretch:normal;font-size:14.16306591px;font-family:'MS PGothic';-inkscape-font-specification:'MS PGothic';fill:#ffffff;fill-opacity:1"
         id="path4178" />
      <path
         d="m 109.09664,93.441113 3.76206,-9.571135 1.10649,0 3.76207,9.571135 -1.32779,0 -1.16181,-2.876873 -3.65142,0 -1.16181,2.876873 -1.32779,0 z m 4.31531,-7.745427 -1.43844,3.817389 2.87687,0 -1.43843,-3.817389 z"
         style="font-style:normal;font-variant:normal;font-weight:normal;font-stretch:normal;font-size:14.16306591px;font-family:'MS PGothic';-inkscape-font-specification:'MS PGothic';fill:#ffffff;fill-opacity:1"
         id="path4180" />
      <path
         d="m 118.88907,83.980627 1.38311,0 4.42596,7.468805 0,-7.468805 1.27246,0 0,9.460486 -1.38311,0 -4.42596,-7.468805 0,7.468805 -1.27246,0 0,-9.460486 z"
         style="font-style:normal;font-variant:normal;font-weight:normal;font-stretch:normal;font-size:14.16306591px;font-family:'MS PGothic';-inkscape-font-specification:'MS PGothic';fill:#ffffff;fill-opacity:1"
         id="path4182" />
      <path
         d="m 127.90696,83.980627 3.31947,0 q 1.65973,0 2.82155,1.161814 1.21714,1.217139 1.21714,3.651416 0,2.323628 -1.27247,3.596091 -1.05116,1.051165 -2.76622,1.051165 l -3.31947,0 0,-9.460486 z m 1.27246,1.051165 0,7.358156 1.99169,0 q 1.05116,0 1.71505,-0.663894 1.05117,-1.051165 1.05117,-2.932197 0,-1.991681 -0.99584,-2.987522 -0.77454,-0.774543 -1.77038,-0.774543 l -1.99169,0 z"
         style="font-style:normal;font-variant:normal;font-weight:normal;font-stretch:normal;font-size:14.16306591px;font-family:'MS PGothic';-inkscape-font-specification:'MS PGothic';fill:#ffffff;fill-opacity:1"
         id="path4184" />
      <path
         d="m 136.64823,83.980627 2.4896,0 0,1.217139 -0.60857,0 0,7.026208 0.60857,0 0,1.217139 -2.4896,0 0,-1.217139 0.60857,0 0,-7.026208 -0.60857,0 0,-1.217139 z"
         style="font-style:normal;font-variant:normal;font-weight:normal;font-stretch:normal;font-size:14.16306591px;font-family:'MS PGothic';-inkscape-font-specification:'MS PGothic';fill:#ffffff;fill-opacity:1"
         id="path4186" />
      <path
         d="m 140.63159,83.980627 1.38311,0 4.42596,7.468805 0,-7.468805 1.27246,0 0,9.460486 -1.38311,0 -4.42596,-7.468805 0,7.468805 -1.27246,0 0,-9.460486 z"
         style="font-style:normal;font-variant:normal;font-weight:normal;font-stretch:normal;font-size:14.16306591px;font-family:'MS PGothic';-inkscape-font-specification:'MS PGothic';fill:#ffffff;fill-opacity:1"
         id="path4188" />
      <path
         d="m 148.87494,93.441113 3.76206,-9.571135 1.10649,0 3.76207,9.571135 -1.32779,0 -1.16181,-2.876873 -3.65142,0 -1.16181,2.876873 -1.32779,0 z m 4.31531,-7.745427 -1.43844,3.817389 2.87687,0 -1.43843,-3.817389 z"
         style="font-style:normal;font-variant:normal;font-weight:normal;font-stretch:normal;font-size:14.16306591px;font-family:'MS PGothic';-inkscape-font-specification:'MS PGothic';fill:#ffffff;fill-opacity:1"
         id="path4190" />
      <path
         d="m 157.89283,83.925303 1.32779,0 2.93219,7.690102 2.9322,-7.690102 1.32779,0 -3.76207,9.571134 -0.99584,0 -3.76206,-9.571134 z"
         style="font-style:normal;font-variant:normal;font-weight:normal;font-stretch:normal;font-size:14.16306591px;font-family:'MS PGothic';-inkscape-font-specification:'MS PGothic';fill:#ffffff;fill-opacity:1"
         id="path4192" />
      <path
         d="m 167.13201,83.980627 2.48961,0 0,1.217139 -0.60857,0 0,7.026208 0.60857,0 0,1.217139 -2.48961,0 0,-1.217139 0.60857,0 0,-7.026208 -0.60857,0 0,-1.217139 z"
         style="font-style:normal;font-variant:normal;font-weight:normal;font-stretch:normal;font-size:14.16306591px;font-family:'MS PGothic';-inkscape-font-specification:'MS PGothic';fill:#ffffff;fill-opacity:1"
         id="path4194" />
      <path
         d="m 171.1707,86.470229 q 0,-1.051165 0.77455,-1.825708 0.77454,-0.774543 2.37895,-0.774543 1.71506,0 2.60025,0.885192 0.77454,0.774543 0.77454,1.825708 l -1.27246,0 q 0,-0.663894 -0.4426,-1.10649 -0.49792,-0.49792 -1.54908,-0.49792 -1.16182,0 -1.60441,0.442596 -0.38727,0.387271 -0.38727,0.885191 0,0.497921 0.22129,0.719219 0.27663,0.276622 0.99584,0.553244 1.27247,0.553245 2.87688,1.272463 0.44259,0.165974 0.82986,0.553245 0.60857,0.608569 0.60857,1.438436 0,1.10649 -0.77454,1.881033 -0.82987,0.829867 -2.7109,0.829867 -1.82571,0 -2.82155,-0.995841 -0.71922,-0.719218 -0.71922,-2.10233 l 1.27247,0 q 0,0.995841 0.44259,1.438436 0.60857,0.60857 1.88104,0.60857 1.16181,0 1.71505,-0.553245 0.4426,-0.442596 0.4426,-0.885192 0,-0.49792 -0.33195,-0.829867 -0.27662,-0.276622 -0.88519,-0.553245 -0.55324,-0.276622 -1.43843,-0.663893 -0.99585,-0.442596 -1.60441,-0.719219 -0.4426,-0.165973 -0.77455,-0.49792 -0.49792,-0.49792 -0.49792,-1.327787 z"
         style="font-style:normal;font-variant:normal;font-weight:normal;font-stretch:normal;font-size:14.16306591px;font-family:'MS PGothic';-inkscape-font-specification:'MS PGothic';fill:#ffffff;fill-opacity:1"
         id="path4196" />
      <path
         d="m 179.63534,83.980627 1.27247,0 0,4.315309 4.31531,-4.315309 1.60441,0 -3.76207,3.762065 3.81739,5.698421 -1.49376,0 -3.20882,-4.81323 -1.27246,1.272463 0,3.540767 -1.27247,0 0,-9.460486 z"
         style="font-style:normal;font-variant:normal;font-weight:normal;font-stretch:normal;font-size:14.16306591px;font-family:'MS PGothic';-inkscape-font-specification:'MS PGothic';fill:#ffffff;fill-opacity:1"
         id="path4198" />
      <path
         d="m 187.27012,93.441113 3.76207,-9.571135 1.10649,0 3.76206,9.571135 -1.32779,0 -1.16181,-2.876873 -3.65142,0 -1.16181,2.876873 -1.32779,0 z m 4.31531,-7.745427 -1.43843,3.817389 2.87687,0 -1.43844,-3.817389 z"
         style="font-style:normal;font-variant:normal;font-weight:normal;font-stretch:normal;font-size:14.16306591px;font-family:'MS PGothic';-inkscape-font-specification:'MS PGothic';fill:#ffffff;fill-opacity:1"
         id="path4200" />
      <path
         d="m 205.80383,83.980627 1.27246,0 0,6.804911 q 0,1.272463 -0.77454,2.047006 -0.71922,0.719218 -2.21298,0.719218 -1.49376,0 -2.21298,-0.719218 -0.94052,-0.940517 -0.94052,-3.042847 l 1.27246,0 q 0,1.60441 0.55325,2.157655 0.44259,0.442596 1.27246,0.442596 0.88519,0 1.27247,-0.387272 0.49792,-0.49792 0.49792,-1.272463 l 0,-6.749586 z"
         style="font-style:normal;font-variant:normal;font-weight:normal;font-stretch:normal;font-size:14.16306591px;font-family:'MS PGothic';-inkscape-font-specification:'MS PGothic';fill:#ffffff;fill-opacity:1"
         id="path4202" />
      <path
         d="m 209.01264,83.980627 6.0857,0 0,1.051165 -4.81323,0 0,2.932198 4.48128,0 0,1.051165 -4.48128,0 0,3.374793 5.08985,0 0,1.051165 -6.36232,0 0,-9.460486 z"
         style="font-style:normal;font-variant:normal;font-weight:normal;font-stretch:normal;font-size:14.16306591px;font-family:'MS PGothic';-inkscape-font-specification:'MS PGothic';fill:#ffffff;fill-opacity:1"
         id="path4204" />
      <path
         d="m 217.25599,83.925303 4.64726,0 q 1.10649,0 1.8257,0.719218 0.71922,0.719218 0.71922,1.991681 0,1.272463 -0.71922,1.991681 -0.38727,0.387272 -1.10648,0.497921 l 2.15765,4.259984 -1.38311,0 -1.99168,-4.094011 -2.87688,0 0,4.094011 -1.27246,0 0,-9.460485 z m 1.27246,1.051165 0,3.264144 3.26415,0 q 0.55324,0 0.94051,-0.387271 0.38728,-0.387272 0.38728,-1.217139 0,-0.774542 -0.4426,-1.217138 -0.4426,-0.442596 -1.05117,-0.442596 l -3.09817,0 z"
         style="font-style:normal;font-variant:normal;font-weight:normal;font-stretch:normal;font-size:14.16306591px;font-family:'MS PGothic';-inkscape-font-specification:'MS PGothic';fill:#ffffff;fill-opacity:1"
         id="path4206" />
      <path
         d="m 225.94194,83.980627 1.38311,0 4.42596,7.468805 0,-7.468805 1.27246,0 0,9.460486 -1.38311,0 -4.42596,-7.468805 0,7.468805 -1.27246,0 0,-9.460486 z"
         style="font-style:normal;font-variant:normal;font-weight:normal;font-stretch:normal;font-size:14.16306591px;font-family:'MS PGothic';-inkscape-font-specification:'MS PGothic';fill:#ffffff;fill-opacity:1"
         id="path4208" />
      <path
         d="m 234.95983,83.980627 4.42595,0 q 1.10649,0 1.82571,0.719219 0.6639,0.663893 0.6639,1.770383 0,0.885191 -0.60857,1.493761 -0.33195,0.331946 -0.82987,0.49792 0.66389,0.221298 1.05116,0.608569 0.6639,0.663894 0.6639,1.659734 0,1.217139 -0.82987,2.047006 -0.66389,0.663894 -1.99168,0.663894 l -4.37063,0 0,-9.460486 z m 1.27246,1.051165 0,2.932198 2.98752,0 q 0.55325,0 0.94052,-0.387272 0.44259,-0.442596 0.44259,-1.161814 0,-0.608569 -0.44259,-1.051165 -0.33195,-0.331947 -0.82987,-0.331947 l -3.09817,0 z m 0,3.983363 0,3.374793 2.82155,0 q 0.82986,0 1.27246,-0.442596 0.49792,-0.49792 0.49792,-1.217139 0,-0.774542 -0.4426,-1.217138 -0.49792,-0.49792 -1.32778,-0.49792 l -2.82155,0 z"
         style="font-style:normal;font-variant:normal;font-weight:normal;font-stretch:normal;font-size:14.16306591px;font-family:'MS PGothic';-inkscape-font-specification:'MS PGothic';fill:#ffffff;fill-opacity:1"
         id="path4210" />
      <path
         d="m 243.20317,93.441113 3.76206,-9.571135 1.10649,0 3.76207,9.571135 -1.32779,0 -1.16182,-2.876873 -3.65141,0 -1.16182,2.876873 -1.32778,0 z m 4.31531,-7.745427 -1.43844,3.817389 2.87687,0 -1.43843,-3.817389 z"
         style="font-style:normal;font-variant:normal;font-weight:normal;font-stretch:normal;font-size:14.16306591px;font-family:'MS PGothic';-inkscape-font-specification:'MS PGothic';fill:#ffffff;fill-opacity:1"
         id="path4212" />
      <path
         d="m 252.9956,83.980627 1.38312,0 4.42595,7.468805 0,-7.468805 1.27247,0 0,9.460486 -1.38311,0 -4.42596,-7.468805 0,7.468805 -1.27247,0 0,-9.460486 z"
         style="font-style:normal;font-variant:normal;font-weight:normal;font-stretch:normal;font-size:14.16306591px;font-family:'MS PGothic';-inkscape-font-specification:'MS PGothic';fill:#ffffff;fill-opacity:1"
         id="path4214" />
      <path
         d="m 261.90284,88.683208 q 0,-2.323628 1.32779,-3.651416 1.16181,-1.161814 2.82155,-1.161814 1.65973,0 2.82155,1.161814 1.32778,1.327788 1.32778,3.651416 0,2.323628 -1.32778,3.651415 -1.16182,1.161814 -2.82155,1.161814 -1.65974,0 -2.82155,-1.161814 -1.32779,-1.327787 -1.32779,-3.651415 z m 4.14934,-3.762065 q -1.05117,0 -1.88103,0.829868 -0.94052,0.940516 -0.94052,2.932197 0,1.991681 0.94052,2.932197 0.82986,0.829867 1.88103,0.829867 1.05116,0 1.88103,-0.829867 0.94052,-0.940516 0.94052,-2.932197 0,-1.991681 -0.94052,-2.932197 -0.82987,-0.829868 -1.88103,-0.829868 z"
         style="font-style:normal;font-variant:normal;font-weight:normal;font-stretch:normal;font-size:14.16306591px;font-family:'MS PGothic';-inkscape-font-specification:'MS PGothic';fill:#ffffff;fill-opacity:1"
         id="path4216" />
      <path
         d="m 272.24852,83.925303 4.64726,0 q 1.10649,0 1.82571,0.719218 0.71921,0.719218 0.71921,1.991681 0,1.272463 -0.71921,1.991681 -0.38728,0.387272 -1.10649,0.497921 l 2.15765,4.259984 -1.38311,0 -1.99168,-4.094011 -2.87687,0 0,4.094011 -1.27247,0 0,-9.460485 z m 1.27247,1.051165 0,3.264144 3.26414,0 q 0.55324,0 0.94052,-0.387271 0.38727,-0.387272 0.38727,-1.217139 0,-0.774542 -0.4426,-1.217138 -0.4426,-0.442596 -1.05116,-0.442596 l -3.09817,0 z"
         style="font-style:normal;font-variant:normal;font-weight:normal;font-stretch:normal;font-size:14.16306591px;font-family:'MS PGothic';-inkscape-font-specification:'MS PGothic';fill:#ffffff;fill-opacity:1"
         id="path4218" />
    </g>
  </g>
  <path
     style="fill:#ffffff;fill-rule:evenodd;stroke:#ffffff;stroke-width:0.69999999;stroke-linecap:butt;stroke-linejoin:miter;stroke-miterlimit:4;stroke-dasharray:none;stroke-opacity:1;fill-opacity:1"
     d="M 143.08398 11.9375 C 142.19581 11.920835 141.38431 11.924186 140.69727 11.943359 C 135.2009 12.096746 121.03125 15.863281 121.03125 15.863281 C 121.03125 15.863281 120.04482 25.382579 118.78711 30.244141 C 117.52939 35.105702 113.48438 45.03125 113.48438 45.03125 C 113.48438 45.03125 119.48314 42.272721 123.01758 41.113281 C 127.07725 39.781541 131.91045 38.230717 136.06445 37.833984 C 140.21845 37.437252 150.67482 36.164036 146.28125 39.953125 C 141.88768 43.742214 155.83571 42.981576 161.51953 41.693359 C 167.20335 40.405142 169.08903 38.123575 177.48242 35.453125 C 183.41886 33.564383 186.07837 33.48157 187.14648 33.591797 C 185.50213 33.259102 176.33199 31.519532 169.33594 32.917969 C 161.65767 34.452772 154.55469 30.289062 154.55469 30.289062 C 154.55469 30.289062 164.98886 30.111927 170.30859 26.152344 C 175.62833 22.192761 189.01953 21.8125 189.01953 21.8125 C 189.01953 21.8125 178.088 21.379818 171.9082 21.802734 C 165.7284 22.225649 152.12815 21.809271 155.91797 17.208984 C 159.23405 13.183692 149.30119 12.054153 143.08398 11.9375 z M 187.14648 33.591797 C 187.30683 33.624239 187.78711 33.712891 187.78711 33.712891 C 187.78711 33.712891 187.58855 33.637417 187.14648 33.591797 z M 134.9375 13.220703 L 137.60352 22.267578 L 147.40039 22.001953 L 139.26367 27.232422 L 142.55664 36.097656 L 134.86133 30.283203 L 127.09766 36.029297 L 130.47852 27.205078 L 122.38867 21.890625 L 132.17383 22.25 L 134.9375 13.220703 z "
     id="path4224" />
  <g
     transform="matrix(1.1906051,0.09641134,-0.02043097,0.83825462,0,0)"
     style="font-style:normal;font-variant:normal;font-weight:normal;font-stretch:normal;font-size:11.98237324px;line-height:121.00000381%;font-family:'Iowan Old Style';-inkscape-font-specification:'Iowan Old Style';letter-spacing:0px;word-spacing:0px;fill:#ffffff;fill-opacity:1;stroke:none;stroke-width:1px;stroke-linecap:butt;stroke-linejoin:miter;stroke-opacity:1"
     id="text4234">
    <path
       d="m 115.44536,15.104743 q 0,0.368599 0.0351,0.748899 0.0351,0.374449 0.11117,0.760599 l -0.57923,0.111165 q -0.0702,-0.649435 -0.38615,-0.947824 -0.31594,-0.29839 -0.91857,-0.29839 -0.47391,0 -0.7723,0.239882 -0.29254,0.234031 -0.29254,0.60848 0,0.520718 1.36323,0.936123 l 0.041,0.0117 q 1.01803,0.310091 1.38663,0.68454 0.37445,0.374449 0.37445,1.018034 0,0.865913 -0.73135,1.433438 -0.73135,0.567524 -1.88395,0.567524 -0.46806,0 -0.92442,-0.09361 -0.45051,-0.08776 -0.87176,-0.269135 0.006,-0.06436 0.006,-0.146269 0.006,-0.08191 0.006,-0.245733 0,-0.327643 -0.0293,-0.649435 -0.0293,-0.321792 -0.0878,-0.631883 l 0.53827,-0.134568 q 0.13457,0.801556 0.49732,1.164303 0.36275,0.356897 1.02388,0.356897 0.56168,0 0.88932,-0.251583 0.33349,-0.251583 0.33349,-0.68454 0,-0.514867 -1.44514,-1.000481 -0.23988,-0.08191 -0.36859,-0.122866 -0.69625,-0.239882 -1.00049,-0.590928 -0.30424,-0.356897 -0.30424,-0.91857 0,-0.871765 0.65529,-1.404185 0.65529,-0.53827 1.75523,-0.53827 0.32764,0 0.7138,0.07021 0.392,0.07021 0.86591,0.216478 z"
       style="font-style:normal;font-variant:normal;font-weight:bold;font-stretch:normal;line-height:121.00000381%;font-family:'Iowan Old Style';-inkscape-font-specification:'Iowan Old Style Bold';letter-spacing:0.18273121px;fill:#ffffff;fill-opacity:1"
       id="path4171" />
  </g>
  <g
     id="g4190">
    <path
       style="fill:#ffffff;fill-rule:evenodd;stroke:none;stroke-width:1px;stroke-linecap:butt;stroke-linejoin:miter;stroke-opacity:1;fill-opacity:1"
       d="m 99.797915,76.613721 1.019835,0.145691 18.35699,-61.627034 -0.87415,-0.14569 z"
       id="path4260" />
    <path
       style="fill:#ffffff;fill-rule:evenodd;stroke:none;stroke-width:1px;stroke-linecap:butt;stroke-linejoin:miter;stroke-opacity:1;fill-opacity:1"
       d="m 120.77733,10.470286 -2.47674,2.331046 0.29138,0.728452 2.47674,-2.476737 z"
       id="path4262" />
  </g>
  <g
     transform="matrix(0.88896533,0,0,0.8962371,5.0549871,7.8342862)"
     style="font-style:normal;font-variant:normal;font-weight:normal;font-stretch:normal;font-size:22.5px;line-height:125%;font-family:'Copperplate Gothic Bold';-inkscape-font-specification:'Copperplate Gothic Bold, ';letter-spacing:0px;word-spacing:0px;fill:#ffffff;fill-opacity:1;stroke:none;stroke-width:1px;stroke-linecap:butt;stroke-linejoin:miter;stroke-opacity:1"
     id="flowRoot4270">
    <path
       d="m 29.849121,33.639471 q 5.053711,1.911621 5.053711,7.075195 0,4.108887 -2.944336,6.437988 -1.494141,1.164551 -3.47168,1.691895 -1.955566,0.505371 -4.855957,0.505371 l -20.5004879,0 0,-0.703125 q 0.7910156,-0.219727 1.0986328,-0.571289 0.3076172,-0.351563 0.3076172,-1.032715 l 0,-25.378418 q 0,-0.681152 -0.3076172,-1.032715 -0.3076172,-0.351562 -1.0986328,-0.571289 l 0,-0.703125 20.3027339,0 q 2.922364,0 4.702149,0.439453 1.779785,0.439453 3.120117,1.494141 2.658691,2.087402 2.658691,6.020508 0,4.394531 -4.064941,6.328125 z m -18.764648,-2.351075 11.491699,0 q 2.614746,0 3.647461,-0.769043 1.164551,-0.878906 1.164551,-2.724609 0,-1.889648 -1.098633,-2.680664 -1.098633,-0.812988 -3.713379,-0.812988 l -11.491699,0 0,6.987304 z m 0,13.117676 11.118164,0 q 3.098144,0 4.460449,-0.856934 1.560059,-0.988769 1.560059,-3.22998 0,-2.219238 -1.560059,-3.22998 -1.340332,-0.856934 -4.460449,-0.856934 l -11.118164,0 0,8.173828 z"
       style="font-style:normal;font-variant:normal;font-weight:normal;font-stretch:normal;font-size:45px;font-family:'Copperplate Gothic Bold';-inkscape-font-specification:'Copperplate Gothic Bold, ';fill:#ffffff;fill-opacity:1"
       id="path4164" />
    <path
       d="m 47.471191,44.406072 18.435059,0 q 0.681152,0 1.032715,-0.307617 0.351562,-0.307617 0.571289,-1.098633 l 0.703125,0 0,7.756348 -0.703125,0 Q 67.290527,49.965154 66.938965,49.657537 66.587402,49.34992 65.90625,49.34992 l -26.38916,0 0,-0.703125 q 0.791015,-0.219727 1.098633,-0.571289 0.307617,-0.351563 0.307617,-1.032715 l 0,-25.378418 q 0,-0.681152 -0.307617,-1.032715 -0.307618,-0.351562 -1.098633,-0.571289 l 0,-0.703125 9.360351,0 0,0.703125 q -0.791015,0.197754 -1.098632,0.571289 -0.307618,0.351563 -0.307618,1.032715 l 0,22.741699 z"
       style="font-style:normal;font-variant:normal;font-weight:normal;font-stretch:normal;font-size:45px;font-family:'Copperplate Gothic Bold';-inkscape-font-specification:'Copperplate Gothic Bold, ';fill:#ffffff;fill-opacity:1"
       id="path4166" />
    <path
       d="m 95.10791,41.703435 -13.623047,0 -2.021484,4.21875 q -0.417481,0.878907 -0.417481,1.384278 0,0.966797 1.472168,1.340332 l 0,0.703125 -9.93164,0 0,-0.703125 q 0.878906,-0.175782 1.340332,-0.615235 0.461426,-0.439453 1.054687,-1.713867 L 84.011719,23.268377 q 0.527343,-1.098633 0.527343,-1.757813 0,-1.010742 -1.274414,-1.450195 l 0,-0.703125 10.634766,0 0,0.703125 q -1.296387,0.373535 -1.296387,1.296387 0,0.637207 0.417481,1.450195 l 11.425782,23.115234 q 0.7251,1.472168 1.27441,2.021485 0.54932,0.527343 1.47217,0.703125 l 0,0.703125 -11.030272,0 0,-0.703125 q 1.450195,-0.241699 1.450195,-1.362305 0,-0.461426 -0.439453,-1.362305 l -2.06543,-4.21875 z m -1.889648,-4.108886 -4.855957,-10.678711 -4.921875,10.678711 9.777832,0 z M 88.582031,9.513494 q 2.131348,0 3.581543,1.208496 1.472168,1.230469 1.472168,2.944336 0,1.757812 -1.472168,2.922363 -1.516113,1.186524 -3.55957,1.186524 -2.087402,0 -3.55957,-1.208496 -1.472168,-1.230469 -1.472168,-2.944336 0,-1.73584 1.428222,-2.900391 1.450196,-1.1865234 3.581543,-1.208496 z m 0.02197,2.285156 q -0.966797,0 -1.604004,0.527344 -0.615234,0.505371 -0.615234,1.318359 0,0.769043 0.637207,1.31836 0.659179,0.527343 1.582031,0.527343 0.900879,0 1.560058,-0.527343 0.65918,-0.549317 0.65918,-1.296387 0,-0.812988 -0.615234,-1.340332 -0.615235,-0.527344 -1.604004,-0.527344 z"
       style="font-style:normal;font-variant:normal;font-weight:normal;font-stretch:normal;font-size:45px;font-family:'Copperplate Gothic Bold';-inkscape-font-specification:'Copperplate Gothic Bold, ';fill:#ffffff;fill-opacity:1"
       id="path4168" />
  </g>
  <g
     transform="scale(0.98412169,1.0161345)"
     style="font-style:normal;font-variant:normal;font-weight:normal;font-stretch:normal;font-size:40px;line-height:125%;font-family:'Copperplate Gothic Bold';-inkscape-font-specification:'Copperplate Gothic Bold, ';letter-spacing:0px;word-spacing:0px;fill:#ffffff;fill-opacity:1;stroke:none;stroke-width:1px;stroke-linecap:butt;stroke-linejoin:miter;stroke-opacity:1"
     id="text4278">
    <path
       d="m 212.93192,29.25539 0,20.214844 q 0,0.605469 0.27343,0.917969 0.27344,0.3125 0.97657,0.507812 l 0,0.625 -8.32032,0 0,-0.625 q 0.70313,-0.195312 0.97657,-0.507812 0.27343,-0.3125 0.27343,-0.917969 l 0,-20.214844 -8.28125,0 q -0.58593,0 -0.89843,0.273438 -0.3125,0.253906 -0.50782,0.957031 l -0.625,0 0,-6.894531 0.625,0 q 0.21485,0.722656 0.50782,0.996093 0.3125,0.273438 0.89843,0.273438 l 22.36328,0 q 0.60547,0 0.91797,-0.273438 0.3125,-0.273437 0.50782,-0.996093 l 0.625,0 0,6.894531 -0.625,0 q -0.19532,-0.703125 -0.50782,-0.957031 -0.3125,-0.273438 -0.91797,-0.273438 l -8.26171,0 z"
       style="fill:#ffffff;fill-opacity:1"
       id="path4153" />
    <path
       d="m 242.44363,44.72414 -12.10937,0 -1.79688,3.75 q -0.37109,0.78125 -0.37109,1.230469 0,0.859375 1.30859,1.191406 l 0,0.625 -8.82812,0 0,-0.625 q 0.78125,-0.15625 1.19141,-0.546875 0.41015,-0.390625 0.9375,-1.523437 l 9.80468,-20.488282 q 0.46875,-0.976562 0.46875,-1.5625 0,-0.898437 -1.13281,-1.289062 l 0,-0.625 9.45313,0 0,0.625 q -1.15235,0.332031 -1.15235,1.152344 0,0.566406 0.3711,1.289062 l 10.15625,20.546875 q 0.64453,1.308594 1.13281,1.796875 0.48828,0.46875 1.30859,0.625 l 0,0.625 -9.80469,0 0,-0.625 q 1.28907,-0.214844 1.28907,-1.210937 0,-0.410157 -0.39063,-1.210938 l -1.83594,-3.75 z m -1.67968,-3.652344 -4.31641,-9.492187 -4.375,9.492187 8.69141,0 z m -4.1211,-24.960937 q 1.89453,0 3.1836,1.074219 1.30859,1.09375 1.30859,2.617187 0,1.5625 -1.30859,2.597656 -1.34766,1.054688 -3.16407,1.054688 -1.85546,0 -3.16406,-1.074219 -1.30859,-1.09375 -1.30859,-2.617187 0,-1.542969 1.26953,-2.578125 1.28906,-1.054688 3.18359,-1.074219 z m 0.0195,2.03125 q -0.85937,0 -1.42578,0.46875 -0.54687,0.449219 -0.54687,1.171875 0,0.683594 0.5664,1.171875 0.58594,0.46875 1.40625,0.46875 0.80079,0 1.38672,-0.46875 0.58594,-0.488281 0.58594,-1.152344 0,-0.722656 -0.54687,-1.191406 -0.54688,-0.46875 -1.42579,-0.46875 z"
       style="fill:#ffffff;fill-opacity:1"
       id="path4155" />
    <path
       d="m 277.28738,41.931171 -6.58203,0 q -0.60547,0 -0.91797,0.273438 -0.29296,0.273437 -0.48828,0.976562 l -0.625,0 0,-6.210937 0.625,0 q 0.19532,0.722656 0.48828,0.996094 0.3125,0.253906 0.91797,0.253906 l 12.65625,0 0,0.625 q -0.70312,0.195312 -0.99609,0.507812 -0.27344,0.3125 -0.27344,0.917969 l 0,5.46875 q 0,0.605469 0.27344,0.917969 0.27344,0.3125 0.99609,0.507812 l 0,0.488282 q -7.59765,4.335937 -14.72656,4.335937 -6.46484,0 -10.54687,-3.066406 -5.13672,-3.867188 -5.13672,-10.742188 0,-6.40625 4.57031,-10.195312 4.33594,-3.59375 11.52344,-3.59375 2.28515,0 4.29687,0.429687 2.03125,0.410157 4.60938,1.40625 1.32812,0.527344 1.89453,0.527344 0.41015,0 0.95703,-0.449219 l 0.54687,0.292969 -3.125,6.386719 -0.5664,-0.292969 q -0.0195,-0.644531 -0.17578,-0.917969 -0.15625,-0.292968 -0.70313,-0.703125 -1.1914,-0.898437 -3.49609,-1.523437 -2.30469,-0.644531 -4.35547,-0.644531 -4.17969,0 -6.93359,2.34375 -3.10547,2.65625 -3.10547,7.011718 0,4.21875 3.02734,6.816407 2.77344,2.382812 7.30469,2.382812 2.20703,0 4.35547,-0.507812 2.14843,-0.507813 3.71093,-1.386719 l 0,-3.632813 z"
       style="fill:#ffffff;fill-opacity:1"
       id="path4157" />
    <path
       d="m 295.06082,39.821796 0,7.304688 17.14844,0 q 0.58594,0 0.89844,-0.273438 0.3125,-0.273437 0.50781,-0.976562 l 0.625,0 0,6.894531 -0.625,0 q -0.19531,-0.703125 -0.50781,-0.976562 -0.3125,-0.273438 -0.89844,-0.273438 l -24.21875,0 0,-0.625 q 0.70312,-0.195312 0.97656,-0.507812 0.27344,-0.3125 0.27344,-0.917969 l 0,-22.558594 q 0,-0.605469 -0.27344,-0.917969 -0.27344,-0.3125 -0.97656,-0.507812 l 0,-0.625 23.75,0 q 0.58594,0 0.89844,-0.273438 0.3125,-0.292968 0.50781,-0.996093 l 0.625,0 0,6.894531 -0.625,0 q -0.19531,-0.683594 -0.50781,-0.957031 -0.3125,-0.273438 -0.89844,-0.273438 l -16.67969,0 0,6.328125 10.82031,0 q 0.58594,0 0.89844,-0.273437 0.3125,-0.273438 0.50781,-0.976563 l 0.625,0 0,6.738281 -0.625,0 q -0.19531,-0.683593 -0.50781,-0.957031 -0.3125,-0.292969 -0.89844,-0.292969 l -10.82031,0 z"
       style="fill:#ffffff;fill-opacity:1"
       id="path4159" />
    <path
       d="m 332.38504,29.25539 0,20.214844 q 0,0.605469 0.27344,0.917969 0.27344,0.3125 0.97656,0.507812 l 0,0.625 -8.32031,0 0,-0.625 q 0.70312,-0.195312 0.97656,-0.507812 0.27344,-0.3125 0.27344,-0.917969 l 0,-20.214844 -8.28125,0 q -0.58594,0 -0.89844,0.273438 -0.3125,0.253906 -0.50781,0.957031 l -0.625,0 0,-6.894531 0.625,0 q 0.21484,0.722656 0.50781,0.996093 0.3125,0.273438 0.89844,0.273438 l 22.36328,0 q 0.60547,0 0.91797,-0.273438 0.3125,-0.273437 0.50781,-0.996093 l 0.625,0 0,6.894531 -0.625,0 q -0.19531,-0.703125 -0.50781,-0.957031 -0.3125,-0.273438 -0.91797,-0.273438 l -8.26172,0 z"
       style="fill:#ffffff;fill-opacity:1"
       id="path4161" />
  </g>
</svg>
