<?xml version="1.0" encoding="UTF-8" standalone="no"?>
<!-- Created with Inkscape (http://www.inkscape.org/) -->

<svg
   xmlns:dc="http://purl.org/dc/elements/1.1/"
   xmlns:cc="http://creativecommons.org/ns#"
   xmlns:rdf="http://www.w3.org/1999/02/22-rdf-syntax-ns#"
   xmlns:svg="http://www.w3.org/2000/svg"
   xmlns="http://www.w3.org/2000/svg"
   xmlns:sodipodi="http://sodipodi.sourceforge.net/DTD/sodipodi-0.dtd"
   xmlns:inkscape="http://www.inkscape.org/namespaces/inkscape"
   id="svg2"
   version="1.1"
   inkscape:version="0.91 r13725"
   xml:space="preserve"
   width="744.09998"
   height="524.41248"
   viewBox="0 0 744.09998 524.41248"
   sodipodi:docname="Linkon_Master_Logo_White.svg"><metadata
     id="metadata8"><rdf:RDF><cc:Work
         rdf:about=""><dc:format>image/svg+xml</dc:format><dc:type
           rdf:resource="http://purl.org/dc/dcmitype/StillImage" /><dc:title></dc:title></cc:Work></rdf:RDF></metadata><defs
     id="defs6"><clipPath
       clipPathUnits="userSpaceOnUse"
       id="clipPath16"><path
         d="m 0,419.53 595.28,0 L 595.28,0 0,0 0,419.53 Z"
         id="path18"
         inkscape:connector-curvature="0" /></clipPath></defs><sodipodi:namedview
     pagecolor="#ffffff"
     bordercolor="#666666"
     borderopacity="1"
     objecttolerance="10"
     gridtolerance="10"
     guidetolerance="10"
     inkscape:pageopacity="0"
     inkscape:pageshadow="2"
     inkscape:window-width="1140"
     inkscape:window-height="708"
     id="namedview4"
     showgrid="false"
     inkscape:zoom="3.3345393"
     inkscape:cx="374.07404"
     inkscape:cy="260.97716"
     inkscape:window-x="216"
     inkscape:window-y="74"
     inkscape:window-maximized="0"
     inkscape:current-layer="g10" /><g
     id="g10"
     inkscape:groupmode="layer"
     inkscape:label="Linkon_Master_Logo_PMS"
     transform="matrix(1.25,0,0,-1.25,0,524.4125)"><g
       id="g12"
       style="fill:#ffffff;fill-opacity:1"><g
         id="g14"
         clip-path="url(#clipPath16)"
         style="fill:#ffffff;fill-opacity:1"><g
           id="g20"
           transform="translate(328.754,191.2916)"
           style="fill:#ffffff;fill-opacity:1"><path
             d="m 0,0 c -1.991,-1.944 -4.451,-2.917 -7.381,-2.917 -2.93,0 -5.39,0.973 -7.381,2.917 -1.991,1.944 -2.986,4.367 -2.986,7.268 0,2.902 0.995,5.325 2.986,7.268 1.991,1.943 4.451,2.916 7.381,2.916 2.93,0 5.39,-0.973 7.381,-2.916 C 1.99,12.593 2.985,10.17 2.985,7.268 2.985,4.367 1.99,1.944 0,0 m -2.437,12.324 c -1.343,1.39 -2.991,2.086 -4.944,2.086 -1.953,0 -3.602,-0.696 -4.944,-2.086 -1.343,-1.39 -2.014,-3.075 -2.014,-5.056 0,-1.982 0.671,-3.667 2.014,-5.057 1.342,-1.39 2.991,-2.084 4.944,-2.084 1.953,0 3.601,0.694 4.944,2.084 1.342,1.39 2.014,3.075 2.014,5.057 0,1.981 -0.672,3.666 -2.014,5.056"
             style="fill:#ffffff;fill-opacity:1;fill-rule:nonzero;stroke:none"
             id="path22"
             inkscape:connector-curvature="0" /></g><g
           id="g24"
           transform="translate(352.9521,208.2645)"
           style="fill:#ffffff;fill-opacity:1"><path
             d="m 0,0 3.325,0 0,-19.692 -3.607,0 -11.155,14.368 0,-14.368 -3.325,0 0,19.692 3.325,0 L 0,-14.706 0,0 Z"
             style="fill:#ffffff;fill-opacity:1;fill-rule:nonzero;stroke:none"
             id="path26"
             inkscape:connector-curvature="0" /></g><path
           d="m 254.213,208.264 3.325,0 0,-19.692 -3.325,0 0,19.692 z"
           style="fill:#ffffff;fill-opacity:1;fill-rule:nonzero;stroke:none"
           id="path28"
           inkscape:connector-curvature="0" /><g
           id="g30"
           transform="translate(280.0172,208.2645)"
           style="fill:#ffffff;fill-opacity:1"><path
             d="m 0,0 3.324,0 0,-19.692 -3.606,0 -11.155,14.368 0,-14.368 -3.325,0 0,19.692 3.325,0 L 0,-14.706 0,0 Z"
             style="fill:#ffffff;fill-opacity:1;fill-rule:nonzero;stroke:none"
             id="path32"
             inkscape:connector-curvature="0" /></g><g
           id="g34"
           transform="translate(291.0602,208.2645)"
           style="fill:#ffffff;fill-opacity:1"><path
             d="m 0,0 3.324,0 0,-9.606 9.015,9.606 4.225,0 -7.915,-8.62 8.028,-11.072 -3.944,0 -6.535,8.62 -2.874,-3.098 0,-5.522 -3.324,0 L 0,0 Z"
             style="fill:#ffffff;fill-opacity:1;fill-rule:nonzero;stroke:none"
             id="path36"
             inkscape:connector-curvature="0" /></g><g
           id="g38"
           transform="translate(235.9999,188.549)"
           style="fill:#ffffff;fill-opacity:1"><path
             d="m 0,0 0,19.739 3.332,0 0,-16.576 9.009,0 L 10.947,0 0,0 Z"
             style="fill:#ffffff;fill-opacity:1;fill-rule:nonzero;stroke:none"
             id="path40"
             inkscape:connector-curvature="0" /></g><g
           id="g42"
           transform="translate(240.7734,172.9802)"
           style="fill:#ffffff;fill-opacity:1"><path
             d="M 0,0 -1.451,4.51 -2.926,0 0,0 Z m 1.091,-2.71 c -0.132,0 -0.227,0.071 -0.276,0.203 l -0.635,1.919 -3.298,0 -0.6,-1.919 c -0.036,-0.132 -0.144,-0.203 -0.276,-0.203 -0.156,0 -0.299,0.096 -0.299,0.275 0,0.037 0,0.073 0.011,0.096 l 2.543,7.832 c 0.048,0.156 0.156,0.216 0.288,0.216 0.132,0 0.228,-0.072 0.276,-0.216 l 2.554,-7.832 c 0.012,-0.023 0.012,-0.059 0.012,-0.096 0,-0.179 -0.143,-0.275 -0.3,-0.275"
             style="fill:#ffffff;fill-opacity:1;fill-rule:nonzero;stroke:none"
             id="path44"
             inkscape:connector-curvature="0" /></g><g
           id="g46"
           transform="translate(249.75,170.2702)"
           style="fill:#ffffff;fill-opacity:1"><path
             d="m 0,0 -0.12,0 c -1.199,0 -2.207,0.791 -2.207,2.183 0,0.204 0.144,0.299 0.3,0.299 0.156,0 0.3,-0.095 0.3,-0.299 0,-1.008 0.707,-1.596 1.607,-1.596 l 0.12,0 c 0.936,0 1.655,0.552 1.655,1.476 0,2.422 -3.85,1.714 -3.85,4.305 0,1.247 0.96,2.051 2.075,2.051 l 0.12,0 c 1.151,0 2.099,-0.672 2.099,-1.859 0,-0.192 -0.144,-0.288 -0.288,-0.288 -0.144,0 -0.3,0.096 -0.3,0.3 0,0.816 -0.648,1.247 -1.511,1.247 l -0.12,0 c -0.804,0 -1.487,-0.551 -1.487,-1.463 0,-2.027 3.862,-1.5 3.862,-4.293 C 2.255,0.803 1.271,0 0,0"
             style="fill:#ffffff;fill-opacity:1;fill-rule:nonzero;stroke:none"
             id="path48"
             inkscape:connector-curvature="0" /></g><g
           id="g50"
           transform="translate(254.9468,170.5573)"
           style="fill:#ffffff;fill-opacity:1"><path
             d="m 0,0 c 0,-0.203 -0.156,-0.287 -0.3,-0.287 -0.144,0 -0.3,0.084 -0.3,0.287 l 0,7.832 c 0,0.204 0.156,0.3 0.3,0.3 0.144,0 0.3,-0.096 0.3,-0.3 L 0,0 Z"
             style="fill:#ffffff;fill-opacity:1;fill-rule:nonzero;stroke:none"
             id="path52"
             inkscape:connector-curvature="0" /></g><g
           id="g54"
           transform="translate(261.5449,170.3298)"
           style="fill:#ffffff;fill-opacity:1"><path
             d="m 0,0 -3.406,0 c -0.156,0 -0.3,0.144 -0.3,0.3 l 0,7.76 c 0,0.204 0.144,0.299 0.3,0.299 0.156,0 0.3,-0.095 0.3,-0.299 l 0,-7.472 3.106,0 C 0.204,0.588 0.3,0.443 0.3,0.3 0.3,0.156 0.204,0 0,0"
             style="fill:#ffffff;fill-opacity:1;fill-rule:nonzero;stroke:none"
             id="path56"
             inkscape:connector-curvature="0" /></g><g
           id="g58"
           transform="translate(267.6528,178.3171)"
           style="fill:#ffffff;fill-opacity:1"><path
             d="m 0,0 -1.823,-7.699 c -0.072,-0.277 -0.288,-0.348 -0.468,-0.348 -0.156,0 -0.396,0.071 -0.456,0.348 L -4.582,0 c -0.012,0.024 -0.012,0.048 -0.012,0.084 0,0.181 0.157,0.288 0.312,0.288 0.132,0 0.252,-0.072 0.288,-0.227 l 1.703,-7.497 1.715,7.497 c 0.036,0.155 0.156,0.227 0.288,0.227 0.144,0 0.3,-0.107 0.3,-0.288 C 0.012,0.048 0.012,0.024 0,0"
             style="fill:#ffffff;fill-opacity:1;fill-rule:nonzero;stroke:none"
             id="path60"
             inkscape:connector-curvature="0" /></g><g
           id="g62"
           transform="translate(273.9287,170.3298)"
           style="fill:#ffffff;fill-opacity:1"><path
             d="m 0,0 -3.91,0 c -0.18,0 -0.3,0.144 -0.3,0.3 l 0,7.687 c 0,0.157 0.12,0.3 0.3,0.3 l 3.91,0 c 0.204,0 0.3,-0.143 0.3,-0.3 C 0.3,7.844 0.204,7.7 0,7.7 l -3.622,0 0,-3.106 2.566,0 c 0.204,0 0.3,-0.157 0.3,-0.313 0,-0.143 -0.096,-0.287 -0.3,-0.287 l -2.566,0 0,-3.406 3.622,0 C 0.204,0.588 0.3,0.443 0.3,0.3 0.3,0.144 0.204,0 0,0"
             style="fill:#ffffff;fill-opacity:1;fill-rule:nonzero;stroke:none"
             id="path64"
             inkscape:connector-curvature="0" /></g><g
           id="g66"
           transform="translate(280.144,176.4226)"
           style="fill:#ffffff;fill-opacity:1"><path
             d="m 0,0 c 0,0.899 -0.708,1.607 -1.607,1.607 l -1.799,0 0,-3.335 1.799,0 C -0.708,-1.728 0,-1.044 0,-0.12 L 0,0 Z m 0.588,-0.12 c 0,-1.092 -0.744,-1.979 -1.787,-2.171 l 1.643,-3.442 c 0.024,-0.048 0.036,-0.096 0.036,-0.144 0,-0.18 -0.156,-0.275 -0.312,-0.275 -0.108,0 -0.204,0.048 -0.252,0.155 l -1.751,3.683 -1.571,0 0,-3.551 c 0,-0.203 -0.144,-0.287 -0.3,-0.287 -0.144,0 -0.288,0.084 -0.288,0.287 l 0,7.76 c 0,0.156 0.132,0.299 0.288,0.299 l 2.099,0 C -0.396,2.194 0.588,1.211 0.588,0 l 0,-0.12 z"
             style="fill:#ffffff;fill-opacity:1;fill-rule:nonzero;stroke:none"
             id="path68"
             inkscape:connector-curvature="0" /></g><g
           id="g70"
           transform="translate(286.9121,176.4226)"
           style="fill:#ffffff;fill-opacity:1"><path
             d="m 0,0 c 0,0.899 -0.708,1.607 -1.607,1.607 l -1.799,0 0,-3.335 1.799,0 C -0.708,-1.728 0,-1.044 0,-0.12 L 0,0 Z m 0.588,-0.12 c 0,-1.092 -0.744,-1.979 -1.787,-2.171 l 1.643,-3.442 c 0.024,-0.048 0.036,-0.096 0.036,-0.144 0,-0.18 -0.156,-0.275 -0.312,-0.275 -0.108,0 -0.204,0.048 -0.252,0.155 l -1.751,3.683 -1.571,0 0,-3.551 c 0,-0.203 -0.144,-0.287 -0.3,-0.287 -0.144,0 -0.288,0.084 -0.288,0.287 l 0,7.76 c 0,0.156 0.132,0.299 0.288,0.299 l 2.099,0 C -0.396,2.194 0.588,1.211 0.588,0 l 0,-0.12 z"
             style="fill:#ffffff;fill-opacity:1;fill-rule:nonzero;stroke:none"
             id="path72"
             inkscape:connector-curvature="0" /></g><g
           id="g74"
           transform="translate(293.1406,172.9802)"
           style="fill:#ffffff;fill-opacity:1"><path
             d="M 0,0 -1.451,4.51 -2.926,0 0,0 Z m 1.091,-2.71 c -0.132,0 -0.227,0.071 -0.276,0.203 l -0.635,1.919 -3.298,0 -0.6,-1.919 c -0.036,-0.132 -0.144,-0.203 -0.276,-0.203 -0.156,0 -0.299,0.096 -0.299,0.275 0,0.037 0,0.073 0.011,0.096 l 2.543,7.832 c 0.048,0.156 0.156,0.216 0.288,0.216 0.132,0 0.228,-0.072 0.276,-0.216 l 2.554,-7.832 c 0.012,-0.023 0.012,-0.059 0.012,-0.096 0,-0.179 -0.143,-0.275 -0.3,-0.275"
             style="fill:#ffffff;fill-opacity:1;fill-rule:nonzero;stroke:none"
             id="path76"
             inkscape:connector-curvature="0" /></g><g
           id="g78"
           transform="translate(297.1982,170.5573)"
           style="fill:#ffffff;fill-opacity:1"><path
             d="m 0,0 c 0,-0.203 -0.156,-0.287 -0.3,-0.287 -0.144,0 -0.3,0.084 -0.3,0.287 l 0,7.832 c 0,0.204 0.156,0.3 0.3,0.3 0.144,0 0.3,-0.096 0.3,-0.3 L 0,0 Z"
             style="fill:#ffffff;fill-opacity:1;fill-rule:nonzero;stroke:none"
             id="path80"
             inkscape:connector-curvature="0" /></g><g
           id="g82"
           transform="translate(303.7969,170.3298)"
           style="fill:#ffffff;fill-opacity:1"><path
             d="m 0,0 -3.406,0 c -0.157,0 -0.301,0.144 -0.301,0.3 l 0,7.76 c 0,0.204 0.144,0.299 0.301,0.299 0.155,0 0.299,-0.095 0.299,-0.299 l 0,-7.472 3.107,0 C 0.203,0.588 0.299,0.443 0.299,0.3 0.299,0.156 0.203,0 0,0"
             style="fill:#ffffff;fill-opacity:1;fill-rule:nonzero;stroke:none"
             id="path84"
             inkscape:connector-curvature="0" /></g><g
           id="g86"
           transform="translate(314.1992,172.1404)"
           style="fill:#ffffff;fill-opacity:1"><path
             d="m 0,0 c -0.131,-1.079 -1.055,-1.87 -2.17,-1.87 l -0.121,0 c -1.211,0 -2.206,0.959 -2.206,2.182 l 0,4.042 c 0,1.223 0.995,2.195 2.206,2.195 l 0.121,0 c 1.115,0 2.039,-0.816 2.17,-1.883 L 0,4.63 c 0,-0.18 -0.131,-0.3 -0.287,-0.3 -0.145,0 -0.264,0.108 -0.301,0.252 -0.096,0.768 -0.767,1.379 -1.582,1.379 l -0.121,0 c -0.898,0 -1.618,-0.707 -1.618,-1.607 l 0,-4.042 c 0,-0.899 0.72,-1.607 1.618,-1.607 l 0.121,0 c 0.815,0 1.486,0.611 1.582,1.379 0.037,0.145 0.156,0.252 0.301,0.252 C -0.131,0.336 0,0.217 0,0.036 L 0,0 Z"
             style="fill:#ffffff;fill-opacity:1;fill-rule:nonzero;stroke:none"
             id="path88"
             inkscape:connector-curvature="0" /></g><g
           id="g90"
           transform="translate(319.9727,176.4948)"
           style="fill:#ffffff;fill-opacity:1"><path
             d="m 0,0 c 0,0.899 -0.708,1.606 -1.607,1.606 l -0.121,0 C -2.627,1.606 -3.335,0.899 -3.335,0 l 0,-4.042 c 0,-0.899 0.708,-1.607 1.607,-1.607 l 0.121,0 C -0.708,-5.649 0,-4.941 0,-4.042 L 0,0 Z m 0.587,-4.042 c 0,-1.224 -0.983,-2.183 -2.194,-2.183 l -0.121,0 c -1.211,0 -2.194,0.959 -2.194,2.183 l 0,4.042 c 0,1.223 0.983,2.194 2.194,2.194 l 0.121,0 C -0.396,2.194 0.587,1.223 0.587,0 l 0,-4.042 z"
             style="fill:#ffffff;fill-opacity:1;fill-rule:nonzero;stroke:none"
             id="path92"
             inkscape:connector-curvature="0" /></g><g
           id="g94"
           transform="translate(329.1025,170.5573)"
           style="fill:#ffffff;fill-opacity:1"><path
             d="m 0,0 c 0,-0.203 -0.144,-0.287 -0.3,-0.287 -0.143,0 -0.287,0.084 -0.287,0.287 l 0,6.969 -2.088,-4.57 C -2.734,2.255 -2.866,2.184 -2.998,2.184 c -0.108,0 -0.265,0.071 -0.324,0.215 l -2.087,4.57 0,-6.969 c 0,-0.203 -0.144,-0.287 -0.287,-0.287 -0.157,0 -0.301,0.084 -0.301,0.287 l 0,7.832 c 0,0.156 0.144,0.3 0.301,0.3 l 0.215,0 c 0.084,0 0.228,-0.096 0.264,-0.18 l 2.219,-4.93 2.219,4.93 c 0.036,0.084 0.179,0.18 0.263,0.18 l 0.216,0 c 0.156,0 0.3,-0.144 0.3,-0.3 L 0,0 Z"
             style="fill:#ffffff;fill-opacity:1;fill-rule:nonzero;stroke:none"
             id="path96"
             inkscape:connector-curvature="0" /></g><g
           id="g98"
           transform="translate(334.1807,178.03)"
           style="fill:#ffffff;fill-opacity:1"><path
             d="m 0,0 -1.728,0 0,-3.179 1.728,0 c 0.899,0 1.606,0.684 1.606,1.583 C 1.606,-0.72 0.899,0 0,0 m 0,-3.778 -1.728,0 0,-3.695 c 0,-0.203 -0.143,-0.287 -0.287,-0.287 -0.144,0 -0.3,0.084 -0.3,0.287 l 0,7.76 c 0,0.156 0.144,0.3 0.3,0.3 l 2.015,0 c 1.211,0 2.194,-0.971 2.194,-2.183 0,-1.211 -0.983,-2.182 -2.194,-2.182"
             style="fill:#ffffff;fill-opacity:1;fill-rule:nonzero;stroke:none"
             id="path100"
             inkscape:connector-curvature="0" /></g><g
           id="g102"
           transform="translate(341.1523,172.9802)"
           style="fill:#ffffff;fill-opacity:1"><path
             d="M 0,0 -1.451,4.51 -2.927,0 0,0 Z m 1.091,-2.71 c -0.132,0 -0.228,0.071 -0.277,0.203 l -0.634,1.919 -3.299,0 -0.6,-1.919 c -0.035,-0.132 -0.143,-0.203 -0.275,-0.203 -0.156,0 -0.3,0.096 -0.3,0.275 0,0.037 0,0.073 0.012,0.096 l 2.543,7.832 c 0.048,0.156 0.155,0.216 0.288,0.216 0.131,0 0.227,-0.072 0.275,-0.216 l 2.555,-7.832 c 0.012,-0.023 0.012,-0.059 0.012,-0.096 0,-0.179 -0.144,-0.275 -0.3,-0.275"
             style="fill:#ffffff;fill-opacity:1;fill-rule:nonzero;stroke:none"
             id="path104"
             inkscape:connector-curvature="0" /></g><g
           id="g106"
           transform="translate(348.9756,170.57)"
           style="fill:#ffffff;fill-opacity:1"><path
             d="m 0,0 c 0,-0.192 -0.132,-0.3 -0.288,-0.3 l -0.216,0 c -0.084,0 -0.239,0.048 -0.3,0.192 l -3.106,7.051 0,-6.956 c 0,-0.203 -0.155,-0.287 -0.3,-0.287 -0.144,0 -0.3,0.084 -0.3,0.287 l 0,7.832 c 0,0.157 0.144,0.3 0.3,0.3 l 0.216,0 c 0.084,0 0.204,-0.059 0.265,-0.191 l 3.128,-7.065 0,6.956 c 0,0.204 0.157,0.3 0.301,0.3 0.144,0 0.3,-0.096 0.3,-0.3 L 0,0 Z"
             style="fill:#ffffff;fill-opacity:1;fill-rule:nonzero;stroke:none"
             id="path108"
             inkscape:connector-curvature="0" /></g><g
           id="g110"
           transform="translate(355.623,178.281)"
           style="fill:#ffffff;fill-opacity:1"><path
             d="m 0,0 -1.979,-4.749 0,-2.975 c 0,-0.203 -0.156,-0.287 -0.299,-0.287 -0.144,0 -0.3,0.084 -0.3,0.287 l 0,2.975 L -4.557,0 c -0.011,0.024 -0.024,0.061 -0.024,0.12 0,0.181 0.156,0.288 0.311,0.288 0.133,0 0.217,-0.059 0.264,-0.179 l 1.728,-4.151 1.727,4.151 c 0.048,0.12 0.132,0.179 0.264,0.179 0.156,0 0.311,-0.107 0.311,-0.288 C 0.024,0.084 0.013,0.049 0,0"
             style="fill:#ffffff;fill-opacity:1;fill-rule:nonzero;stroke:none"
             id="path112"
             inkscape:connector-curvature="0" /></g><g
           id="g114"
           transform="translate(285.4105,234.3806)"
           style="fill:#ffffff;fill-opacity:1"><path
             d="m 0,0 c 0,-0.216 0.154,-0.306 0.342,-0.2 l 12.462,7.002 c 0.188,0.106 0.497,0.107 0.686,0.003 L 17.869,4.384 C 18.058,4.28 18.058,4.108 17.87,4.003 L -4.153,-8.296 c -0.189,-0.105 -0.343,-0.014 -0.343,0.202 l 0,4.786 0,0.785 0,28.759 c 0,0.216 0.146,0.492 0.324,0.613 l 3.847,2.616 C -0.146,29.586 0,29.509 0,29.293 L 0,0 Z"
             style="fill:#ffffff;fill-opacity:1;fill-rule:nonzero;stroke:none"
             id="path116"
             inkscape:connector-curvature="0" /></g><g
           id="g118"
           transform="translate(295.9244,250.7383)"
           style="fill:#ffffff;fill-opacity:1"><path
             d="m 0,0 c 0,0.216 0.154,0.306 0.343,0.201 l 23.183,-12.937 c 0.188,-0.105 0.188,-0.277 -0.001,-0.381 L -9.924,-31.628 c -0.189,-0.105 -0.489,-0.091 -0.668,0.031 l -3.847,2.621 c -0.179,0.121 -0.17,0.307 0.018,0.412 l 27.794,15.511 c 0.189,0.105 0.188,0.277 -10e-4,0.381 L 0.344,-5.47 C 0.155,-5.365 0,-5.103 0,-4.887 L 0,0 Z"
             style="fill:#ffffff;fill-opacity:1;fill-rule:nonzero;stroke:none"
             id="path120"
             inkscape:connector-curvature="0" /></g><g
           id="g122"
           transform="translate(319.4497,247.7447)"
           style="fill:#ffffff;fill-opacity:1"><path
             d="m 0,0 c 0.189,-0.105 0.343,-0.367 0.343,-0.583 l 0,-4.86 C 0.343,-5.659 0.189,-5.75 0,-5.645 L -25.651,8.589 c -0.188,0.105 -0.343,0.014 -0.343,-0.202 l -0.008,-14.484 c 0,-0.216 -0.154,-0.48 -0.342,-0.586 l -3.804,-2.146 c -0.188,-0.106 -0.342,-0.016 -0.342,0.2 l 0,25.184 c 0,0.216 0.154,0.306 0.343,0.202 L 0,0 Z"
             style="fill:#ffffff;fill-opacity:1;fill-rule:nonzero;stroke:none"
             id="path124"
             inkscape:connector-curvature="0" /></g></g></g></g></svg>