<?xml version="1.0" encoding="UTF-8" standalone="no"?>
<svg
   xmlns:dc="http://purl.org/dc/elements/1.1/"
   xmlns:cc="http://creativecommons.org/ns#"
   xmlns:rdf="http://www.w3.org/1999/02/22-rdf-syntax-ns#"
   xmlns:svg="http://www.w3.org/2000/svg"
   xmlns="http://www.w3.org/2000/svg"
   version="1.1"
   id="svg2"
   viewBox="0 0 1292 711"
   height="9.875in"
   width="17.9444in">
  <metadata
     id="metadata9">
    <rdf:RDF>
      <cc:Work
         rdf:about="">
        <dc:format>image/svg+xml</dc:format>
        <dc:type
           rdf:resource="http://purl.org/dc/dcmitype/StillImage" />
        <dc:title></dc:title>
      </cc:Work>
    </rdf:RDF>
  </metadata>
  <defs
     id="defs7" />
  <path
     style="fill:#0e3b5d;fill-opacity:1;stroke:#0e3b5d;stroke-opacity:1"
     d="M 1020.00,24.00            C 1020.00,24.00 1020.00,51.00 1020.00,51.00              1020.00,51.00 995.00,52.83 995.00,52.83              974.98,54.74 948.85,55.10 934.18,71.04              922.95,83.24 921.07,101.20 919.91,117.00              919.91,117.00 919.00,129.00 919.00,129.00              919.00,129.00 919.00,163.00 919.00,163.00              919.00,163.00 918.00,180.00 918.00,180.00              918.00,180.00 918.00,361.00 918.00,361.00              918.00,361.00 919.00,376.00 919.00,376.00              919.00,376.00 919.00,413.00 919.00,413.00              919.00,413.00 919.96,425.00 919.96,425.00              921.01,449.05 923.61,470.43 935.31,492.00              941.23,502.92 949.64,512.08 959.00,520.13              989.75,546.56 1023.86,557.65 1064.00,558.00              1064.00,558.00 1077.00,558.00 1077.00,558.00              1092.63,557.88 1109.21,553.93 1124.00,549.00              1163.61,535.80 1190.48,516.82 1211.72,480.00              1222.38,461.52 1235.38,427.68 1242.95,407.00              1242.95,407.00 1250.33,386.00 1250.33,386.00              1251.00,383.94 1252.08,379.26 1253.72,377.92              1255.85,376.36 1260.49,377.55 1263.00,377.92              1263.00,377.92 1288.00,381.00 1288.00,381.00              1288.00,381.00 1277.61,394.00 1277.61,394.00              1271.36,401.63 1265.31,409.55 1260.20,418.00              1246.31,440.99 1233.04,472.77 1233.00,500.00              1233.00,500.00 1233.00,511.00 1233.00,511.00              1233.03,528.49 1238.29,540.43 1245.00,556.00              1230.08,563.64 1194.14,573.37 1177.00,576.80              1122.80,587.64 1074.04,588.95 1020.00,576.12              994.11,569.97 975.76,559.41 952.00,552.02              923.32,543.11 896.95,539.65 867.00,540.00              867.00,540.00 857.00,540.91 857.00,540.91              823.84,543.23 791.01,552.17 761.00,566.48              761.00,566.48 728.00,585.00 728.00,585.00              728.00,585.00 728.00,551.00 728.00,551.00              728.00,551.00 751.00,545.42 751.00,545.42              776.66,538.10 803.18,527.74 816.69,503.00              824.44,488.81 826.00,472.80 827.09,457.00              827.09,457.00 828.00,445.00 828.00,445.00              828.00,445.00 828.00,380.00 828.00,380.00              828.00,380.00 829.00,363.00 829.00,363.00              829.00,363.00 829.00,162.00 829.00,162.00              829.00,162.00 828.00,147.00 828.00,147.00              828.00,147.00 828.00,132.00 828.00,132.00              828.00,132.00 827.09,122.00 827.09,122.00              825.73,102.20 824.78,78.37 807.00,65.63              792.38,55.16 766.56,53.87 749.00,52.17              749.00,52.17 736.00,51.03 736.00,51.03              734.03,50.91 731.39,51.14 730.02,49.40              728.77,47.81 729.00,43.99 729.00,42.00              729.00,42.00 729.00,24.00 729.00,24.00              729.00,24.00 1020.00,24.00 1020.00,24.00 Z            M 753.89,357.60            C 759.61,361.66 759.29,370.91 751.96,373.99              741.32,378.47 733.36,363.51 744.09,356.85              747.43,355.91 750.84,355.43 753.89,357.60 Z            M 749.98,371.67            C 755.74,370.42 757.68,361.37 749.00,358.91              737.66,360.18 741.33,373.54 749.98,371.67 Z            M 752.35,381.99            C 754.53,383.55 757.27,392.15 758.32,395.00              758.32,395.00 770.68,428.00 770.68,428.00              773.47,435.54 774.17,442.12 783.00,444.00              783.00,444.00 783.00,446.00 783.00,446.00              783.00,446.00 755.00,446.00 755.00,446.00              755.00,446.00 755.00,444.00 755.00,444.00              757.64,443.99 762.42,444.32 764.46,442.26              766.07,440.45 765.24,438.05 764.46,436.00              763.45,432.67 759.72,421.53 757.50,419.60              754.41,416.90 740.54,418.00 736.00,418.00              733.33,432.75 721.60,443.58 738.00,444.00              738.00,444.00 738.00,446.00 738.00,446.00              738.00,446.00 715.00,446.00 715.00,446.00              715.00,446.00 715.00,444.00 715.00,444.00              723.41,442.64 724.54,436.99 727.19,430.00              727.19,430.00 738.05,400.00 738.05,400.00              740.21,394.09 743.36,387.19 744.00,381.00              746.25,381.00 750.52,380.68 752.35,381.99 Z            M 437.00,382.00            C 437.00,382.00 437.00,384.00 437.00,384.00              433.62,384.01 429.15,383.59 426.74,386.43              424.69,388.84 425.00,393.01 425.00,396.00              425.00,396.00 425.00,433.00 425.00,433.00              425.06,441.36 426.64,442.94 435.00,443.00              440.25,443.03 445.42,443.40 449.99,440.30              454.23,437.42 455.44,433.62 460.00,431.00              460.00,431.00 452.37,445.01 452.37,445.01              452.37,445.01 439.00,446.00 439.00,446.00              439.00,446.00 407.00,446.00 407.00,446.00              407.00,446.00 407.00,444.00 407.00,444.00              414.92,443.72 415.95,441.57 416.00,434.00              416.00,434.00 416.00,394.00 416.00,394.00              415.87,387.09 413.94,384.80 407.00,384.00              407.00,384.00 407.00,382.00 407.00,382.00              407.00,382.00 437.00,382.00 437.00,382.00 Z            M 502.00,382.00            C 502.00,382.00 502.00,384.00 502.00,384.00              494.26,384.90 493.05,387.72 493.00,395.00              493.00,395.00 493.00,407.00 493.00,407.00              493.00,411.93 492.57,422.77 493.79,427.00              496.79,437.39 507.56,443.27 518.00,442.48              520.17,442.32 523.95,441.61 526.00,440.89              541.86,435.30 540.00,419.49 540.00,406.00              540.00,396.54 542.45,385.44 530.00,384.00              530.00,384.00 530.00,382.00 530.00,382.00              530.00,382.00 554.00,382.00 554.00,382.00              554.00,382.00 554.00,384.00 554.00,384.00              540.95,386.78 544.00,401.81 544.00,412.00              544.00,416.68 544.40,425.88 543.21,430.00              539.74,442.02 528.43,446.74 517.00,447.83              512.49,448.26 505.27,447.35 501.00,445.90              482.01,439.43 484.00,422.16 484.00,406.00              484.00,397.06 486.98,386.34 476.00,384.00              476.00,384.00 476.00,382.00 476.00,382.00              476.00,382.00 502.00,382.00 502.00,382.00 Z            M 602.00,382.00            C 602.00,382.00 602.00,384.00 602.00,384.00              598.11,384.02 594.23,383.63 591.60,387.15              589.33,390.18 590.00,397.20 590.00,401.00              590.00,401.00 590.00,434.00 590.00,434.00              590.18,443.63 595.06,443.03 603.00,443.00              617.38,442.94 615.53,438.38 625.00,431.00              624.02,434.42 620.23,443.03 617.37,445.01              615.18,446.52 606.95,446.00 604.00,446.00              604.00,446.00 572.00,446.00 572.00,446.00              572.00,446.00 572.00,444.00 572.00,444.00              576.38,443.85 579.27,443.61 581.11,438.98              582.13,436.43 582.00,432.74 582.00,430.00              582.00,430.00 582.00,404.00 582.00,404.00              582.00,400.37 582.35,393.16 581.11,390.02              579.33,385.49 576.42,384.51 572.00,384.00              572.00,384.00 572.00,382.00 572.00,382.00              572.00,382.00 602.00,382.00 602.00,382.00 Z            M 691.00,382.00            C 691.00,382.00 691.00,396.00 691.00,396.00              691.00,396.00 689.00,396.00 689.00,396.00              687.65,387.90 684.94,386.05 677.00,386.00              677.00,386.00 660.00,386.00 660.00,386.00              660.00,386.00 660.00,411.00 660.00,411.00              664.42,411.00 678.63,411.95 681.57,409.40              683.34,407.86 683.54,406.12 684.00,404.00              684.00,404.00 686.00,404.00 686.00,404.00              686.00,404.00 685.00,423.00 685.00,423.00              684.16,420.91 683.35,418.22 681.57,416.74              678.29,414.00 664.69,415.00 660.00,415.00              660.00,419.50 659.30,435.83 661.02,438.89              664.37,444.85 681.75,444.06 686.96,440.91              691.70,438.04 691.18,433.92 695.00,431.00              695.00,431.00 694.00,446.00 694.00,446.00              694.00,446.00 639.00,446.00 639.00,446.00              639.00,446.00 639.00,444.00 639.00,444.00              642.51,443.99 646.71,444.42 649.30,441.57              651.77,438.86 651.95,434.46 652.00,431.00              652.00,431.00 652.00,397.00 652.00,397.00              651.89,388.58 650.01,384.53 641.00,384.00              641.00,384.00 641.00,382.00 641.00,382.00              641.00,382.00 691.00,382.00 691.00,382.00 Z            M 739.00,414.00            C 739.00,414.00 756.00,414.00 756.00,414.00              756.00,414.00 748.00,390.00 748.00,390.00              744.23,394.27 739.52,408.22 739.00,414.00 Z            M 647.50,500.02            C 649.91,501.68 653.15,511.83 654.32,515.00              654.32,515.00 667.05,549.00 667.05,549.00              669.69,556.06 670.86,561.26 679.00,563.00              679.00,563.00 679.00,565.00 679.00,565.00              679.00,565.00 651.00,565.00 651.00,565.00              651.00,565.00 651.00,563.00 651.00,563.00              653.85,562.97 658.37,563.22 660.19,560.57              661.47,558.77 660.78,556.86 660.19,555.00              659.15,551.87 655.26,540.43 653.30,538.60              650.83,536.27 643.38,536.98 640.00,537.00              637.91,537.01 635.10,536.88 633.27,538.02              630.82,539.56 629.44,544.32 628.42,547.00              625.10,555.80 620.70,562.66 634.00,563.00              634.00,563.00 634.00,565.00 634.00,565.00              634.00,565.00 610.00,565.00 610.00,565.00              610.00,565.00 610.00,563.00 610.00,563.00              619.02,561.95 619.90,556.53 622.68,549.00              622.68,549.00 634.05,518.00 634.05,518.00              636.22,512.17 639.37,505.11 640.00,499.00              642.18,499.01 645.68,498.76 647.50,500.02 Z            M 97.00,501.00            C 97.00,501.00 124.00,500.00 124.00,500.00              124.00,500.00 126.00,516.00 126.00,516.00              122.04,512.94 123.51,509.46 119.78,506.60              116.44,504.04 103.63,505.00 99.00,505.00              99.00,505.00 99.00,553.00 99.00,553.00              99.17,562.15 102.94,562.97 111.00,563.00              111.00,563.00 111.00,565.00 111.00,565.00              111.00,565.00 78.00,565.00 78.00,565.00              78.00,565.00 78.00,563.00 78.00,563.00              82.17,562.96 86.62,563.09 88.98,558.89              90.55,556.10 90.00,546.60 90.00,543.00              90.00,543.00 90.00,505.00 90.00,505.00              85.45,505.00 72.50,504.04 69.27,506.60              65.81,509.34 66.99,512.94 63.00,516.00              63.00,516.00 64.00,500.00 64.00,500.00              64.00,500.00 97.00,501.00 97.00,501.00 Z            M 479.00,563.63            C 487.04,564.66 497.68,556.71 493.53,548.00              491.95,544.68 488.87,542.09 486.00,539.90              479.06,534.59 469.66,530.26 464.65,523.00              458.90,514.67 462.62,504.36 472.00,500.97              475.19,499.81 478.65,499.96 482.00,500.00              490.41,500.10 488.76,502.01 498.00,501.00              498.00,501.00 499.00,514.00 499.00,514.00              493.39,510.52 492.13,504.38 483.00,502.54              476.48,501.23 468.03,506.90 470.34,514.08              471.58,517.95 474.84,520.87 478.00,523.24              488.31,530.99 502.76,535.55 501.96,551.00              501.77,554.55 500.96,557.14 498.61,559.90              496.81,562.00 494.52,563.52 492.00,564.64              488.83,566.05 484.47,566.95 481.00,566.68              473.26,566.06 472.04,564.22 463.00,565.00              463.00,565.00 461.00,550.00 461.00,550.00              466.46,553.37 468.11,562.25 479.00,563.63 Z            M 182.00,501.00            C 184.94,501.00 193.13,500.27 194.98,502.60              196.48,504.49 196.00,512.34 196.00,515.00              196.00,515.00 194.00,515.00 194.00,515.00              192.65,506.90 189.94,505.05 182.00,505.00              182.00,505.00 165.00,505.00 165.00,505.00              165.00,505.00 165.00,530.00 165.00,530.00              169.42,530.00 183.63,530.95 186.57,528.40              188.34,526.86 188.54,525.12 189.00,523.00              189.00,523.00 191.00,523.00 191.00,523.00              191.00,523.00 190.00,542.00 190.00,542.00              189.17,539.93 188.29,537.06 186.57,535.60              183.57,533.04 169.47,534.00 165.00,534.00              165.00,538.44 164.31,554.89 166.02,557.87              169.41,563.77 186.71,562.82 191.91,559.84              196.55,557.18 196.14,552.94 200.00,550.00              200.00,550.00 199.00,565.00 199.00,565.00              199.00,565.00 144.00,565.00 144.00,565.00              144.00,565.00 144.00,563.00 144.00,563.00              148.49,562.96 152.33,563.10 155.15,558.89              156.92,556.24 156.96,553.06 157.00,550.00              157.00,550.00 157.00,521.00 157.00,521.00              157.00,517.22 157.44,510.32 155.69,507.11              153.49,503.09 150.01,503.10 146.00,503.00              146.00,503.00 146.00,501.00 146.00,501.00              146.00,501.00 182.00,501.00 182.00,501.00 Z            M 253.00,501.00            C 253.00,501.00 253.00,503.00 253.00,503.00              250.42,503.30 248.45,503.42 246.51,505.43              242.65,509.44 244.00,527.01 244.00,533.00              253.28,530.67 259.96,522.61 265.23,515.00              269.07,509.45 272.48,503.78 263.00,503.00              263.00,503.00 263.00,501.00 263.00,501.00              263.00,501.00 290.00,501.00 290.00,501.00              290.00,501.00 290.00,503.00 290.00,503.00              275.85,503.32 275.02,510.24 267.33,520.00              267.33,520.00 257.00,532.00 257.00,532.00              267.88,537.15 275.18,551.15 284.04,558.78              288.31,562.45 291.40,561.88 296.00,564.00              296.00,564.00 265.00,563.00 265.00,563.00              274.78,561.85 270.60,556.88 265.96,552.00              259.98,545.70 252.73,536.67 244.00,535.00              244.00,535.00 244.00,551.00 244.00,551.00              244.04,559.13 245.17,562.48 254.00,563.00              254.00,563.00 254.00,565.00 254.00,565.00              254.00,565.00 226.00,565.00 226.00,565.00              226.00,565.00 226.00,563.00 226.00,563.00              230.26,562.75 233.21,562.44 234.97,557.96              236.09,555.10 236.00,551.05 236.00,548.00              236.00,548.00 236.00,518.00 236.00,518.00              236.00,514.95 236.09,510.90 234.97,508.04              233.21,503.56 230.26,503.25 226.00,503.00              226.00,503.00 226.00,501.00 226.00,501.00              226.00,501.00 253.00,501.00 253.00,501.00 Z            M 319.00,501.00            C 319.00,501.00 324.83,501.60 324.83,501.60              324.83,501.60 338.00,514.00 338.00,514.00              338.00,514.00 374.00,551.00 374.00,551.00              374.00,551.00 374.00,522.00 374.00,522.00              374.00,517.98 374.41,510.58 372.57,507.13              370.69,503.60 367.56,503.34 364.00,503.00              364.00,503.00 364.00,501.00 364.00,501.00              364.00,501.00 387.00,501.00 387.00,501.00              387.00,501.00 387.00,503.00 387.00,503.00              379.40,503.45 378.10,505.61 378.00,513.00              378.00,513.00 378.00,566.00 378.00,566.00              372.24,564.27 365.49,555.49 361.00,551.00              361.00,551.00 322.00,510.00 322.00,510.00              322.00,510.00 322.00,544.00 322.00,544.00              322.00,547.92 321.51,555.60 323.31,558.89              325.51,562.91 328.99,562.90 333.00,563.00              333.00,563.00 333.00,565.00 333.00,565.00              333.00,565.00 309.00,565.00 309.00,565.00              309.00,565.00 309.00,563.00 309.00,563.00              318.18,561.93 317.99,556.79 318.00,549.00              318.00,549.00 318.00,515.00 318.00,515.00              317.98,507.12 317.51,504.42 309.00,503.00              309.00,503.00 309.00,501.00 309.00,501.00              309.00,501.00 319.00,501.00 319.00,501.00 Z            M 433.00,501.00            C 433.00,501.00 433.00,503.00 433.00,503.00              425.82,504.53 425.05,507.17 425.00,514.00              425.00,514.00 425.00,553.00 425.00,553.00              425.12,559.46 426.55,561.62 433.00,563.00              433.00,563.00 433.00,565.00 433.00,565.00              433.00,565.00 408.00,565.00 408.00,565.00              408.00,565.00 408.00,563.00 408.00,563.00              411.38,562.28 414.00,561.52 415.40,557.96              416.32,555.63 416.00,546.98 416.00,544.00              416.00,544.00 416.00,515.00 416.00,515.00              415.99,507.87 415.84,504.67 408.00,503.00              408.00,503.00 408.00,501.00 408.00,501.00              408.00,501.00 433.00,501.00 433.00,501.00 Z            M 555.00,501.00            C 555.00,501.00 555.00,503.00 555.00,503.00              552.46,503.30 550.44,503.41 548.56,505.43              544.77,509.51 546.00,527.01 546.00,533.00              555.40,530.76 561.94,522.64 567.28,515.00              571.19,509.40 574.87,503.81 565.00,503.00              565.00,503.00 565.00,501.00 565.00,501.00              565.00,501.00 592.00,501.00 592.00,501.00              592.00,501.00 592.00,503.00 592.00,503.00              578.08,503.31 577.00,510.26 569.33,520.00              569.33,520.00 559.00,532.00 559.00,532.00              569.67,537.05 577.49,551.17 586.09,558.78              590.20,562.41 593.48,561.91 598.00,564.00              591.62,564.00 572.87,564.93 567.98,563.00              576.69,561.08 572.10,556.36 567.98,552.00              561.98,545.70 554.73,536.67 546.00,535.00              546.00,540.78 544.70,556.62 548.51,560.57              550.67,562.81 553.13,562.83 556.00,563.00              556.00,563.00 556.00,565.00 556.00,565.00              556.00,565.00 528.00,565.00 528.00,565.00              528.00,565.00 528.00,563.00 528.00,563.00              531.55,562.79 534.65,562.65 536.26,558.89              537.34,556.39 537.00,548.13 537.00,545.00              537.00,545.00 537.00,515.00 537.00,515.00              536.99,507.53 536.54,503.69 528.00,503.00              528.00,503.00 528.00,501.00 528.00,501.00              528.00,501.00 555.00,501.00 555.00,501.00 Z            M 634.00,532.00            C 634.00,532.00 651.00,532.00 651.00,532.00              651.00,532.00 643.00,509.00 643.00,509.00              643.00,509.00 634.00,532.00 634.00,532.00 Z            M 751.00,682.06            C 758.39,684.10 769.39,678.72 768.67,670.00              768.31,665.57 763.29,661.11 760.00,658.52              753.88,653.69 743.04,648.36 738.99,641.99              730.18,628.11 743.15,617.12 757.00,618.33              763.82,618.92 764.01,621.04 772.00,620.00              772.00,620.00 772.00,633.00 772.00,633.00              768.27,627.04 764.41,622.45 757.00,621.34              749.36,620.20 743.25,626.22 744.47,632.00              745.23,635.60 749.27,639.39 752.00,641.68              760.74,648.99 773.58,652.50 776.32,665.00              777.27,669.34 776.39,673.25 774.01,676.98              772.41,679.48 770.59,681.16 768.00,682.59              764.29,684.63 761.13,684.95 757.00,685.00              746.81,685.10 747.30,682.73 737.00,684.00              737.00,684.00 737.00,668.00 737.00,668.00              740.31,674.79 743.12,679.88 751.00,682.06 Z            M 877.00,620.00            C 888.83,620.00 901.63,621.54 913.00,618.00              913.00,618.00 915.00,635.00 915.00,635.00              915.00,635.00 913.00,635.00 913.00,635.00              910.64,620.04 899.68,623.00 888.00,623.00              888.00,623.00 888.00,672.00 888.00,672.00              888.17,680.92 892.04,681.92 900.00,682.00              900.00,682.00 900.00,684.00 900.00,684.00              900.00,684.00 868.00,684.00 868.00,684.00              868.00,684.00 868.00,682.00 868.00,682.00              875.69,681.80 878.84,680.20 879.00,672.00              879.00,672.00 879.00,623.00 879.00,623.00              867.21,623.00 856.39,619.85 854.00,635.00              854.00,635.00 852.00,635.00 852.00,635.00              852.00,635.00 854.00,618.00 854.00,618.00              861.73,620.90 868.86,620.00 877.00,620.00 Z            M 1037.00,620.00            C 1047.09,620.00 1057.30,621.02 1067.00,618.00              1067.12,623.64 1069.07,629.79 1067.00,635.00              1065.92,631.39 1065.06,627.16 1061.79,624.73              1058.67,622.65 1045.37,621.83 1042.60,624.73              1040.68,626.52 1041.01,630.46 1041.00,633.00              1041.00,633.00 1041.00,668.00 1041.00,668.00              1041.01,671.41 1040.76,675.90 1042.85,678.77              1045.37,682.23 1049.20,681.96 1053.00,682.00              1053.00,682.00 1053.00,684.00 1053.00,684.00              1053.00,684.00 1021.00,684.00 1021.00,684.00              1021.00,684.00 1021.00,682.00 1021.00,682.00              1024.82,681.96 1028.68,682.19 1031.26,678.77              1033.29,676.09 1032.99,672.19 1033.00,669.00              1033.00,669.00 1033.00,632.00 1033.00,632.00              1032.93,622.06 1029.82,622.90 1021.00,623.00              1007.52,623.17 1011.38,628.31 1006.00,635.00              1006.00,635.00 1007.00,618.00 1007.00,618.00              1016.70,621.02 1026.91,620.00 1037.00,620.00 Z            M 691.00,623.22            C 703.90,630.98 700.94,649.59 686.00,654.00              686.00,654.00 697.00,664.00 697.00,664.00              705.87,672.83 711.89,680.94 725.00,683.00              725.00,683.00 725.00,685.00 725.00,685.00              717.35,685.00 709.77,685.08 703.00,680.87              692.94,674.62 681.75,660.40 677.00,658.02              674.12,656.58 668.33,657.00 665.00,657.00              665.00,657.00 665.00,671.00 665.00,671.00              665.05,678.93 666.75,681.51 675.00,682.00              675.00,682.00 675.00,684.00 675.00,684.00              675.00,684.00 646.00,684.00 646.00,684.00              646.00,684.00 646.00,682.00 646.00,682.00              650.22,681.75 653.31,681.38 655.11,676.96              656.35,673.92 656.00,666.55 656.00,663.00              656.00,663.00 656.00,634.00 656.00,634.00              655.96,625.87 654.83,622.52 646.00,622.00              646.00,622.00 646.00,620.00 646.00,620.00              659.14,620.00 679.41,616.25 691.00,623.22 Z            M 252.00,620.00            C 252.00,620.00 252.00,622.00 252.00,622.00              243.95,622.65 243.09,626.76 243.00,634.00              242.83,648.66 239.60,669.49 255.00,677.56              258.36,679.32 262.25,679.91 266.00,679.98              269.37,680.05 271.74,679.93 275.00,678.96              286.64,675.48 289.98,667.17 290.00,656.00              290.00,656.00 290.00,634.00 290.00,634.00              289.93,621.49 286.27,624.85 280.00,620.00              280.00,620.00 304.00,620.00 304.00,620.00              304.00,620.00 304.00,622.00 304.00,622.00              300.29,622.60 298.04,623.44 296.17,627.02              295.02,629.24 295.04,631.57 295.00,634.00              295.00,634.00 295.00,656.00 295.00,656.00              294.99,659.72 295.07,662.33 294.07,666.00              289.41,683.22 276.27,685.18 261.00,685.00              257.24,684.95 255.63,684.83 252.00,683.64              232.45,677.26 235.00,661.37 235.00,645.00              235.00,636.01 238.12,622.98 226.00,622.00              226.00,622.00 226.00,620.00 226.00,620.00              226.00,620.00 252.00,620.00 252.00,620.00 Z            M 336.00,620.00            C 345.32,620.18 348.26,626.75 354.09,633.00              354.09,633.00 368.96,648.00 368.96,648.00              368.96,648.00 390.00,670.00 390.00,670.00              390.00,670.00 390.00,641.00 390.00,641.00              390.00,637.76 390.34,629.69 389.26,627.04              387.49,622.68 384.13,622.24 380.00,622.00              380.00,622.00 380.00,620.00 380.00,620.00              380.00,620.00 404.00,620.00 404.00,620.00              404.00,620.00 404.00,622.00 404.00,622.00              395.89,622.28 394.11,625.16 394.00,633.00              394.00,633.00 394.00,684.00 394.00,684.00              386.42,681.77 380.04,672.76 374.83,667.00              374.83,667.00 358.09,650.00 358.09,650.00              351.66,643.10 345.72,635.53 338.00,630.00              338.00,630.00 338.00,661.00 338.00,661.00              338.00,664.77 337.63,672.77 338.89,675.98              340.84,680.94 344.22,681.72 349.00,682.00              349.00,682.00 349.00,684.00 349.00,684.00              349.00,684.00 325.00,684.00 325.00,684.00              325.00,684.00 325.00,682.00 325.00,682.00              329.27,681.50 332.27,680.61 333.86,675.98              334.22,673.68 334.00,664.93 333.86,662.00              333.86,662.00 333.86,633.00 333.86,633.00              333.98,625.23 333.52,622.91 325.00,622.00              325.00,622.00 325.00,620.00 325.00,620.00              325.00,620.00 336.00,620.00 336.00,620.00 Z            M 456.00,620.00            C 456.00,620.00 456.00,622.00 456.00,622.00              446.59,623.09 447.01,629.13 447.00,637.00              447.00,637.00 447.00,668.00 447.00,668.00              447.04,675.59 447.61,680.21 456.00,682.00              456.00,682.00 456.00,684.00 456.00,684.00              456.00,684.00 431.00,684.00 431.00,684.00              433.19,681.12 435.42,681.13 437.26,678.73              439.16,676.24 438.98,672.96 439.00,670.00              439.00,670.00 439.00,633.00 439.00,633.00              438.91,626.34 437.92,623.49 431.00,622.00              431.00,622.00 431.00,620.00 431.00,620.00              431.00,620.00 456.00,620.00 456.00,620.00 Z            M 508.00,620.00            C 508.00,620.00 508.00,622.00 508.00,622.00              504.61,622.09 499.81,622.15 498.54,626.11              497.62,628.96 501.03,636.11 502.20,639.00              502.20,639.00 517.00,674.00 517.00,674.00              517.00,674.00 529.32,641.00 529.32,641.00              530.46,637.90 533.90,629.94 533.50,627.02              532.88,622.35 528.72,622.13 525.00,622.00              525.00,622.00 525.00,620.00 525.00,620.00              525.00,620.00 549.00,620.00 549.00,620.00              549.00,620.00 549.00,622.00 549.00,622.00              541.39,623.23 539.25,628.46 536.60,635.00              536.60,635.00 523.42,669.00 523.42,669.00              522.01,672.71 518.75,686.31 513.20,684.34              509.95,683.19 506.92,673.29 505.60,670.00              505.60,670.00 491.60,635.00 491.60,635.00              488.97,628.43 487.82,623.27 480.00,622.00              480.00,622.00 480.00,620.00 480.00,620.00              480.00,620.00 508.00,620.00 508.00,620.00 Z            M 610.00,620.00            C 618.14,620.14 617.00,622.97 617.00,634.00              617.00,634.00 615.00,634.00 615.00,634.00              613.65,625.90 610.94,624.05 603.00,624.00              603.00,624.00 586.00,624.00 586.00,624.00              586.00,624.00 586.00,649.00 586.00,649.00              594.67,649.00 608.20,652.03 610.00,641.00              610.00,641.00 612.00,641.00 612.00,641.00              612.00,641.00 612.00,661.00 612.00,661.00              612.00,661.00 610.00,661.00 610.00,661.00              609.44,658.37 609.07,656.37 606.77,654.60              603.46,652.04 590.61,653.00 586.00,653.00              586.00,657.36 585.32,673.98 587.02,676.85              587.78,678.14 588.69,678.85 590.06,679.40              593.12,680.63 609.06,680.33 611.98,678.83              617.03,676.23 616.84,671.79 621.00,669.00              621.00,669.00 620.00,684.00 620.00,684.00              620.00,684.00 565.00,684.00 565.00,684.00              565.00,684.00 565.00,682.00 565.00,682.00              568.81,681.96 572.80,682.15 575.40,678.77              577.29,676.33 576.99,672.92 577.00,670.00              577.00,670.00 577.00,634.00 577.00,634.00              576.98,625.77 576.15,622.32 567.00,622.00              567.00,622.00 567.00,620.00 567.00,620.00              567.00,620.00 610.00,620.00 610.00,620.00 Z            M 683.93,651.49            C 691.88,645.49 692.41,629.76 683.93,623.99              678.38,620.25 671.34,621.00 665.00,621.00              665.00,621.00 665.00,655.00 665.00,655.00              671.42,655.00 678.51,655.62 683.93,651.49 Z            M 830.00,621.00            C 822.44,623.76 821.06,624.70 821.00,633.00              821.00,633.00 821.00,663.00 821.00,663.00              821.00,666.24 820.66,674.31 821.74,676.96              823.35,680.93 826.18,681.56 830.00,682.00              830.00,682.00 830.00,684.00 830.00,684.00              830.00,684.00 805.00,684.00 805.00,684.00              809.43,677.97 811.93,681.51 812.00,671.00              812.00,671.00 812.00,632.00 812.00,632.00              811.89,626.09 810.90,623.75 805.00,622.00              805.00,622.00 805.00,620.00 805.00,620.00              805.00,620.00 830.00,621.00 830.00,621.00 Z            M 983.00,620.00            C 983.00,620.00 983.00,634.00 983.00,634.00              983.00,634.00 981.00,634.00 981.00,634.00              979.97,625.10 975.98,624.02 968.00,624.00              968.00,624.00 952.00,624.00 952.00,624.00              952.00,624.00 952.00,649.00 952.00,649.00              952.00,649.00 971.95,647.98 971.95,647.98              971.95,647.98 978.00,641.00 978.00,641.00              978.00,641.00 977.00,661.00 977.00,661.00              976.17,658.93 975.29,656.06 973.57,654.60              970.57,652.04 956.47,653.00 952.00,653.00              952.00,653.00 952.00,671.00 952.00,671.00              952.05,673.73 952.03,676.47 954.31,678.40              957.16,680.80 968.03,680.07 972.00,680.00              983.34,679.79 981.11,673.39 987.00,669.00              987.00,669.00 986.00,684.00 986.00,684.00              986.00,684.00 931.00,684.00 931.00,684.00              931.00,684.00 931.00,682.00 931.00,682.00              935.42,681.96 939.37,682.12 942.07,677.89              943.83,675.14 943.96,671.17 944.00,668.00              944.00,668.00 944.00,637.00 944.00,637.00              943.99,633.49 944.14,629.29 942.43,626.11              940.24,622.03 937.09,622.11 933.00,622.00              933.00,622.00 933.00,620.00 933.00,620.00              933.00,620.00 983.00,620.00 983.00,620.00 Z"
     stroke-width="1"
     stroke="black"
     fill="none"
     id="Markering" />
</svg>
