<?xml version="1.0" encoding="UTF-8" standalone="no"?>
<svg
   xmlns:dc="http://purl.org/dc/elements/1.1/"
   xmlns:cc="http://creativecommons.org/ns#"
   xmlns:rdf="http://www.w3.org/1999/02/22-rdf-syntax-ns#"
   xmlns:svg="http://www.w3.org/2000/svg"
   xmlns="http://www.w3.org/2000/svg"
   xmlns:sodipodi="http://sodipodi.sourceforge.net/DTD/sodipodi-0.dtd"
   xmlns:inkscape="http://www.inkscape.org/namespaces/inkscape"
   width="4.44444in"
   height="2.68056in"
   viewBox="0 0 320 193"
   id="svg2"
   version="1.1"
   inkscape:version="0.91 r13725"
   sodipodi:docname="m-nu-vit.svg">
  <metadata
     id="metadata9">
    <rdf:RDF>
      <cc:Work
         rdf:about="">
        <dc:format>image/svg+xml</dc:format>
        <dc:type
           rdf:resource="http://purl.org/dc/dcmitype/StillImage" />
      </cc:Work>
    </rdf:RDF>
  </metadata>
  <defs
     id="defs7" />
  <sodipodi:namedview
     pagecolor="#ffffff"
     bordercolor="#666666"
     borderopacity="1"
     objecttolerance="10"
     gridtolerance="10"
     guidetolerance="10"
     inkscape:pageopacity="0"
     inkscape:pageshadow="2"
     inkscape:window-width="1250"
     inkscape:window-height="623"
     id="namedview5"
     showgrid="false"
     inkscape:zoom="1.4513394"
     inkscape:cx="226.90389"
     inkscape:cy="120.62521"
     inkscape:window-x="0"
     inkscape:window-y="70"
     inkscape:window-maximized="0"
     inkscape:current-layer="svg2" />
  <path
     id="Markering"
     fill="none"
     stroke="black"
     stroke-width="1"
     d="M 98.00,1.21            C 109.08,1.02 122.77,3.77 133.00,8.01              144.67,12.85 156.09,19.97 164.96,29.01              200.98,65.78 201.04,125.66 165.91,163.00              158.17,171.23 148.13,177.84 138.00,182.74              124.38,189.34 109.08,192.17 94.00,192.00              85.28,191.89 74.27,189.79 66.00,187.00              26.65,173.72 2.63,138.95 1.04,98.00              0.52,84.56 5.25,65.02 11.27,53.00              15.74,44.07 21.98,36.04 29.00,29.00              47.15,10.79 63.23,5.02 88.00,1.21              88.00,1.21 98.00,1.21 98.00,1.21 Z            M 70.00,57.60            C 65.70,59.02 61.93,61.80 58.00,64.00              52.85,53.38 38.87,54.77 35.22,66.00              33.45,71.46 34.00,80.99 34.00,87.00              34.00,87.00 34.00,124.00 34.00,124.00              34.01,129.01 34.10,135.84 37.43,139.84              42.29,145.81 52.36,145.89 57.15,139.84              60.16,135.95 59.99,131.59 60.00,127.00              60.00,127.00 60.00,95.00 60.00,95.00              60.02,90.90 59.92,87.52 62.51,84.04              67.95,76.74 77.93,76.71 82.31,85.04              84.04,88.31 83.98,91.43 84.00,95.00              84.00,95.00 84.00,126.00 84.00,126.00              84.01,131.10 83.90,135.73 87.42,139.89              93.15,146.68 103.44,145.61 107.91,137.98              109.97,134.48 109.98,130.91 110.00,127.00              110.00,127.00 110.00,95.00 110.00,95.00              110.01,90.78 109.68,87.60 112.43,84.04              117.94,76.93 128.11,76.62 132.55,85.04              134.19,88.16 133.99,91.59 134.00,95.00              134.00,95.00 134.00,122.00 134.00,122.00              134.00,125.92 133.59,132.52 135.01,136.00              138.88,145.52 151.24,147.55 157.30,138.96              159.92,135.24 159.98,131.33 160.00,127.00              160.00,127.00 160.00,87.00 160.00,87.00              159.79,69.43 149.03,56.75 131.00,56.04              117.84,55.52 113.61,60.57 103.00,66.00              96.98,55.81 80.42,54.15 70.00,57.60 Z            M 263.30,103.00            C 265.79,108.83 265.01,125.92 265.00,133.00              264.99,138.53 265.11,144.94 258.00,145.84              256.60,146.02 254.50,145.84 253.21,145.26              248.62,143.20 249.01,137.19 249.00,133.00              248.99,126.59 250.87,112.55 244.89,108.78              240.58,106.06 235.65,109.67 234.43,114.02              232.85,119.65 235.60,137.77 232.55,142.77              230.14,146.71 222.92,147.12 220.01,143.57              217.74,140.81 218.01,136.37 218.00,133.00              218.00,133.00 218.57,100.02 218.57,100.02              221.08,91.51 228.77,93.62 234.00,98.00              241.38,90.74 258.95,92.81 263.30,103.00 Z            M 298.00,145.43            C 289.65,147.70 277.95,145.78 274.23,137.00              272.33,132.53 273.00,120.38 273.00,115.00              273.00,108.70 270.71,95.32 279.02,94.15              287.80,92.91 287.99,99.53 288.00,106.00              288.01,110.96 287.32,123.01 289.31,126.98              290.68,129.71 293.65,132.72 297.00,132.04              306.33,130.13 303.99,112.08 304.00,105.00              304.00,102.65 303.81,99.20 305.02,97.15              307.34,93.23 314.40,93.06 317.26,96.43              319.31,98.84 319.00,103.01 319.00,106.00              319.00,106.00 319.00,136.00 319.00,136.00              318.95,138.66 318.94,141.42 317.11,143.57              313.65,147.64 307.52,146.47 305.00,142.00              302.75,143.30 300.53,144.75 298.00,145.43 Z            M 203.00,144.26            C 195.89,146.92 188.24,140.40 189.38,133.00              190.05,128.69 192.40,126.68 196.00,124.74              211.56,121.12 214.23,140.05 203.00,144.26 Z"
     style="fill:#ffffff;fill-opacity:1;stroke:none" />
</svg>
