<?xml version="1.0" encoding="UTF-8" standalone="no"?>
<svg
   xmlns:dc="http://purl.org/dc/elements/1.1/"
   xmlns:cc="http://creativecommons.org/ns#"
   xmlns:rdf="http://www.w3.org/1999/02/22-rdf-syntax-ns#"
   xmlns:svg="http://www.w3.org/2000/svg"
   xmlns="http://www.w3.org/2000/svg"
   viewBox="0 0 546.36433 458.09497"
   height="458.09497"
   width="546.36255"
   xml:space="preserve"
   version="1.1"
   id="svg2"><metadata
     id="metadata8"><rdf:RDF><cc:Work
         rdf:about=""><dc:format>image/svg+xml</dc:format><dc:type
           rdf:resource="http://purl.org/dc/dcmitype/StillImage" /><dc:title></dc:title></cc:Work></rdf:RDF></metadata><defs
     id="defs6" /><g
     transform="matrix(1.25,0,0,-1.25,-261.72816,607.13394)"
     style="fill:#ffffff;fill-opacity:1"
     id="g30"><path
       id="path40"
       style="fill:#ffffff;fill-opacity:1;stroke:none"
       d="m 567.222,310.104 c 6.755,0 12.652,-5.363 12.652,-13.142 0,-7.778 -5.897,-13.143 -12.652,-13.143 -6.765,0 -12.657,5.365 -12.657,13.143 0,7.779 5.892,13.142 12.657,13.142" /></g><g
     transform="matrix(1.25,0,0,-1.25,-261.72816,607.13394)"
     style="fill:#ffffff;fill-opacity:1"
     id="g80"><path
       id="path90"
       style="fill:#ffffff;fill-opacity:1;stroke:none"
       d="m 623.376,469.266 c 2.937,0 5.503,-2.197 5.503,-5.38 0,-3.188 -2.566,-5.381 -5.503,-5.381 -2.938,0 -5.503,2.193 -5.503,5.381 0,3.183 2.565,5.38 5.503,5.38" /></g><g
     transform="matrix(1.25,0,0,-1.25,-261.72816,607.13394)"
     style="fill:#ffffff;fill-opacity:1"
     id="g130"><path
       id="path140"
       style="fill:#ffffff;fill-opacity:1;stroke:none"
       d="m 603.278,411.082 c 3.65,0 6.841,-2.731 6.841,-6.694 0,-3.963 -3.191,-6.696 -6.841,-6.696 -3.662,0 -6.849,2.733 -6.849,6.696 0,3.963 3.187,6.694 6.849,6.694" /></g><path
     id="path154"
     style="fill:none;stroke:none;stroke-width:0.3125;stroke-linecap:butt;stroke-linejoin:miter;stroke-miterlimit:4;stroke-dasharray:none;stroke-opacity:1"
     d="m 492.27934,93.28144 c 4.5725,0 8.56125,3.41375 8.56125,8.3675 0,4.95375 -3.98875,8.37 -8.56125,8.37 -4.56875,0 -8.5525,-3.41625 -8.5525,-8.37 0,-4.95375 3.98375,-8.3675 8.5525,-8.3675 z" /><g
     transform="matrix(1.25,0,0,-1.25,-261.72816,607.13394)"
     style="fill:#ffffff;fill-opacity:1;stroke:none;stroke-opacity:1"
     id="g180"><path
       id="path190"
       style="fill:#ffffff;fill-opacity:1;stroke:none;stroke-opacity:1"
       d="m 620.451,387.217 c 4.451,0 8.342,-3.332 8.342,-8.161 0,-4.832 -3.891,-8.164 -8.342,-8.164 -4.465,0 -8.35,3.332 -8.35,8.164 0,4.829 3.885,8.161 8.35,8.161" /></g><path
     id="path204"
     style="fill:none;stroke:none;stroke-width:0.3125;stroke-linecap:butt;stroke-linejoin:miter;stroke-miterlimit:4;stroke-dasharray:none;stroke-opacity:1"
     d="m 513.72809,123.11269 c 5.575,0 10.43875,4.165 10.43875,10.20125 0,6.04 -4.86375,10.205 -10.43875,10.205 -5.57,0 -10.4275,-4.165 -10.4275,-10.205 0,-6.03625 4.8575,-10.20125 10.4275,-10.20125 z" /><g
     transform="matrix(1.25,0,0,-1.25,-261.72816,607.13394)"
     style="fill:#ffffff;fill-opacity:1"
     id="g230"><path
       id="path240"
       style="fill:#ffffff;fill-opacity:1;stroke:none"
       d="m 588.301,372.493 c 5.104,0 9.565,-4.055 9.565,-9.939 0,-5.878 -4.461,-9.934 -9.565,-9.934 -5.12,0 -9.572,4.056 -9.572,9.934 0,5.884 4.452,9.939 9.572,9.939" /></g><g
     transform="matrix(1.25,0,0,-1.25,-261.72816,607.13394)"
     style="fill:#ffffff;fill-opacity:1;stroke:none"
     id="g280"><path
       id="path290"
       style="fill:#ffffff;fill-opacity:1;stroke:none"
       d="m 620.644,362.88 c 4.749,0 8.895,-3.554 8.895,-8.705 0,-5.153 -4.146,-8.703 -8.895,-8.703 -4.76,0 -8.904,3.55 -8.904,8.703 0,5.151 4.144,8.705 8.904,8.705" /></g><path
     id="path304"
     style="fill:none;stroke:none;stroke-width:0.3125;stroke-linecap:butt;stroke-linejoin:miter;stroke-miterlimit:4;stroke-dasharray:none;stroke-opacity:1"
     d="m 513.95934,153.53394 c 5.945,0 11.13375,4.4425 11.13375,10.88125 0,6.44125 -5.18875,10.87875 -11.13375,10.87875 -5.935,0 -11.11875,-4.4375 -11.11875,-10.87875 0,-6.43875 5.18375,-10.88125 11.11875,-10.88125 z" /><g
     transform="matrix(1.25,0,0,-1.25,-261.72816,607.13394)"
     style="fill:#ffffff;fill-opacity:1"
     id="g330"><path
       id="path340"
       style="fill:#ffffff;fill-opacity:1;stroke:none"
       d="m 557.674,359.075 c 5.725,0 10.722,-4.546 10.722,-11.144 0,-6.588 -4.997,-11.137 -10.722,-11.137 -5.738,0 -10.73,4.549 -10.73,11.137 0,6.598 4.992,11.144 10.73,11.144" /></g><g
     transform="matrix(1.25,0,0,-1.25,-261.72816,607.13394)"
     style="fill:#ffffff;fill-opacity:1"
     id="g380"><path
       id="path390"
       style="fill:#ffffff;fill-opacity:1;stroke:none"
       d="m 585.526,341.981 c 5.735,0 10.736,-4.549 10.736,-11.152 0,-6.601 -5.001,-11.154 -10.736,-11.154 -5.738,0 -10.739,4.553 -10.739,11.154 0,6.603 5.001,11.152 10.739,11.152" /></g><path
     d="m 56.65934,388.09769 c 22.0225,0 32.615,-31.7825 32.615,-59.3825 0,-28.16 -10.5925,-59.94375 -32.89875,-59.94375 -22.30125,0 -33.1775,31.22625 -33.1775,59.105 0,27.8775 10.87625,60.22125 33.1775,60.22125 l 0.28375,0 z m -0.56,6.4075 c -30.39125,0 -51.8575,-30.3825 -51.8575,-66.35375 0,-34.56625 20.07375,-65.78875 52.13375,-65.78875 31.78375,0 51.86125,31.2225 51.86125,65.78875 0,35.97125 -21.47375,66.35375 -51.86125,66.35375 l -0.27625,0 z"
     style="fill:#ffffff;fill-opacity:1;fill-rule:nonzero;stroke:none"
     id="path420" /><path
     d="m 175.14684,388.38019 c 0,-1.9525 2.7925,-2.51 5.02375,-2.79 6.96375,-1.11875 9.19375,-2.2325 9.19375,-5.8575 0,-1.6675 -4.18125,-9.19625 -9.47375,-18.39875 -9.76,-17.01125 -12.27125,-22.02875 -14.50625,-22.02875 -2.225,0 -4.455,3.63 -14.49375,21.475 -5.85,10.59125 -7.80375,15.88625 -7.80375,19.23125 0,3.625 2.79375,5.02125 7.5325,5.57875 3.06375,0.55625 6.40625,1.39375 6.40625,3.34625 0,2.23 -1.1125,3.345 -5.85375,3.345 -3.90625,0 -8.36375,-1.115 -18.12375,-1.115 -10.87,0 -13.94125,1.115 -17.565,1.115 -3.065,0 -4.455,-0.28 -4.455,-3.06875 0,-2.5125 3.06875,-3.06625 6.13,-3.6225 11.43,-1.67 15.335,-8.3625 25.65,-24.25625 9.47875,-15.05375 13.94125,-22.58 16.45375,-27.045 0.83125,-1.9525 1.6675,-3.07 1.6675,-3.90375 0,-1.11875 -0.55875,-2.23375 -2.2275,-4.745 -3.6275,-5.57 -9.47875,-15.0475 -20.63,-33.16875 -9.48375,-15.34125 -11.70875,-20.35625 -18.4025,-21.19375 -4.73875,-0.5575 -7.25125,-0.83 -7.25125,-3.06125 0,-2.2325 1.11375,-3.62875 5.02125,-3.62875 4.73875,0 13.655,1.11375 21.18375,1.11375 9.20375,0 15.33875,-1.11375 19.7975,-1.11375 3.62375,0 4.73875,1.11375 4.73875,3.06625 0,2.79375 -1.95125,3.06625 -8.085,3.62375 -4.18375,0.55875 -6.1325,2.23125 -6.1325,4.1825 0,2.23 5.02,11.70875 9.47875,20.0775 5.5725,9.47625 11.9925,19.79375 13.1025,19.79375 1.67125,0 6.1375,-7.25375 11.4325,-16.1725 9.48125,-16.17125 11.15625,-20.6325 11.15625,-22.86375 0,-2.78625 -3.3475,-4.18 -7.815,-5.0175 -5.575,-0.83 -7.2475,-1.39375 -7.2475,-3.62375 0,-2.2325 1.6725,-3.06625 3.34875,-3.06625 5.5775,0 11.42875,1.11375 20.3475,1.11375 8.0925,0 14.22125,-1.11375 18.12875,-1.11375 2.51125,0 3.62625,1.11375 3.62625,3.62875 0,1.94625 -2.51125,2.50375 -6.97125,3.06125 -8.92625,1.11625 -15.0575,8.365 -24.53875,23.69875 -8.08375,13.93875 -12.26875,20.07625 -14.49625,23.42125 -1.39375,2.51 -2.2325,3.62625 -2.2325,5.29625 0,1.115 0.83875,2.23 2.50875,5.02125 3.6275,5.57375 8.92625,13.9375 18.13125,28.98875 15.33,25.095 16.9975,26.4875 24.80625,27.88625 3.06625,0.55625 5.29625,1.6725 5.29625,3.90375 0,1.6725 -1.67,2.7875 -4.17875,2.7875 -3.0675,0 -8.0875,-1.115 -21.74625,-1.115 -12.825,0 -16.73125,1.115 -20.0725,1.115 -3.0675,0 -5.86,-0.56375 -5.86,-3.6225 l 0,-0.27875 z"
     style="fill:#ffffff;fill-opacity:1;fill-rule:nonzero;stroke:none"
     id="path422" /><path
     d="m 245.32184,438.84394 c 0,-6.69375 3.91125,-8.09 9.20125,-8.9275 4.185,-0.555 8.0825,-0.83 10.3175,-3.06 1.95125,-1.39875 5.02125,-9.20625 7.80625,-17.565 3.06875,-8.08875 5.58125,-16.72875 5.58125,-20.6325 0,-6.41875 -1.12375,-8.92625 -4.46875,-19.8 -9.1925,-26.485 -17.56,-52.97125 -26.76375,-79.1825 -5.02,-15.05375 -7.52875,-18.12 -11.71125,-18.39875 -4.17875,-0.28125 -6.1275,-0.83 -6.1275,-3.9025 0,-1.95375 1.665,-2.7875 4.4575,-2.7875 6.69125,0 13.93875,1.11375 20.90875,1.11375 5.855,0 13.945,-1.11375 17.8475,-1.11375 3.06625,0 4.46,1.11375 4.46,3.62875 0,2.23125 -3.3425,2.23125 -8.64375,3.06125 -4.7375,0.8375 -7.24625,3.0675 -7.24625,6.97125 0,3.6225 1.94875,8.92 5.29125,20.355 6.415,19.79375 19.79875,60.7775 21.75125,60.7775 1.95,0 15.8875,-44.32875 21.46625,-62.17375 3.90125,-12.82375 4.465,-15.8875 4.465,-18.95875 0,-4.74 -3.90875,-6.13375 -11.15375,-6.97125 -2.23375,-0.28125 -5.57875,-0.28125 -5.57875,-2.7875 0,-2.50625 1.67625,-3.9025 4.18,-3.9025 3.06375,0 9.48125,1.11375 17.56,1.11375 4.19125,0 8.37125,-1.11375 13.67,-1.11375 2.51,0 3.9,1.11375 3.9,3.62875 0,2.23125 -2.2275,2.50375 -4.73875,3.06125 -5.0175,0.8375 -8.0825,6.13375 -13.38125,21.19375 -12.83375,36.795 -25.6475,73.60125 -37.36,110.68125 -4.4625,14.77625 -7.8075,25.6475 -10.035,33.73875 -3.62625,11.9875 -5.57875,15.05125 -13.38125,15.05125 -9.76125,0 -12.27375,-2.5125 -12.27375,-12.8275 l 0,-0.27125 z"
     style="fill:#ffffff;fill-opacity:1;fill-rule:nonzero;stroke:none"
     id="path424" /><path
     d="m 381.65434,265.70144 25.93125,0 c 8.0825,0 15.615,-0.8325 23.69875,-1.945 3.06375,-0.28375 7.525,-1.95625 9.20125,-1.95625 1.395,0 1.95,1.39 1.95,3.345 0,4.45625 0,8.92125 -0.275,13.38125 l 0,91.1675 c 0,9.20375 0,14.22625 10.31625,15.89625 4.73375,0.8375 7.24625,1.39375 7.24625,3.90375 0,1.95 -1.1175,2.7875 -4.1825,2.7875 -5.57625,0 -13.105,-1.115 -22.02875,-1.115 -8.91625,0 -17.28375,1.115 -22.0225,1.115 -1.9525,0 -3.34625,-1.115 -3.34625,-3.06875 0,-1.95 1.6775,-3.06625 5.295,-3.6225 10.60125,-1.39875 11.71375,-3.63125 11.71375,-14.4975 l 0,-76.11625 c 0,-15.8875 -4.73875,-19.795 -20.90625,-19.795 l -21.19125,0 c -10.03875,0 -10.32125,1.675 -10.32125,8.08375 l 0,84.1975 c 0,13.1075 2.79375,16.72875 11.9875,18.1275 4.1875,0.55625 7.81125,0.8375 7.81125,3.90375 0,1.6725 -0.83875,2.7875 -4.18375,2.7875 -5.5775,0 -14.2175,-1.115 -23.9725,-1.115 -8.6425,0 -15.8925,1.115 -20.3525,1.115 -4.74,0 -6.41625,-0.8375 -6.41625,-2.7875 0,-2.23125 1.95125,-3.3475 6.13625,-3.90375 9.19375,-0.8375 11.70875,-3.90375 11.70875,-17.28375 l 0,-86.71375 c 0,-5.2975 -2.515,-6.1325 -6.6925,-6.69 -3.065,-0.5575 -6.68875,-0.83625 -6.68875,-3.90625 0,-3.06 3.06125,-3.62125 6.4125,-5.575 l 2.40625,-0.675 c 3.50125,-1.6275 5.59125,-4.89875 5.83125,-11.4225 0.3425,-9.2375 2.39625,-28.2225 5.74625,-34.95375 7.80375,-15.68625 22.6675,-24.24625 39.47375,-24.24625 10.95125,0 25.17375,4.665 25.17375,9.78875 0,10.25875 -2.10625,17.4825 -7.2325,17.4825 -3.71875,0 -4.66125,-5.35875 -6.7575,-10.72625 -1.8575,-5.125 -4.65875,-10.485 -12.11375,-10.485 -14.1775,0 -23.01,7.34375 -27.11875,21.95375 -1.83125,6.5325 -2.72625,25.47625 -2.72625,34.9125 0,6.765 1.46375,8.65125 8.22625,8.65125 l 2.2625,0 z"
     style="fill:#ffffff;fill-opacity:1;fill-rule:nonzero;stroke:none"
     id="path426" /><g
     transform="matrix(1.25,0,0,-1.25,-261.72816,607.13394)"
     style="fill:#ffffff;fill-opacity:1"
     id="g438"><path
       id="path448"
       style="fill:#ffffff;fill-opacity:1;stroke:none"
       d="m 402.191,326.572 c 0.603,0 1.131,-0.451 1.131,-1.105 0,-0.655 -0.528,-1.107 -1.131,-1.107 -0.604,0 -1.131,0.452 -1.131,1.107 0,0.654 0.527,1.105 1.131,1.105" /></g><path
     style="fill:#000000;fill-opacity:0;stroke:none;stroke-width:0.40000001;stroke-miterlimit:4;stroke-dasharray:none"
     d="m 515.41945,33.10212 c 0,-1.71457 6.95009,-10.449 7.54651,-9.48398 0.72289,1.16968 -4.49733,9.07503 -6.41464,9.71413 -0.62253,0.20751 -1.13187,0.10394 -1.13187,-0.23015 z"
     id="path4621" /><path
     style="fill:#000000;fill-opacity:0;stroke:none;stroke-width:0.40000001;stroke-miterlimit:4;stroke-dasharray:none"
     d="m 512.97267,31.62901 c -0.73517,-1.18954 4.99366,-10.08611 6.49482,-10.08611 1.48123,0 1.19429,0.71905 -2.441,6.11715 -1.91571,2.84467 -3.68069,4.5727 -4.05382,3.96896 z"
     id="path4623" /><path
     style="fill:#000000;fill-opacity:0;stroke:none;stroke-width:0.40000001;stroke-miterlimit:4;stroke-dasharray:none"
     d="m 429.68997,184.19982 c -2.20396,-1.19153 -2.14964,-1.32523 4.74559,-11.68112 3.83629,-5.76169 7.49051,-10.4758 8.12049,-10.4758 0.62999,0 1.59445,0.71184 2.14325,1.58188 0.77007,1.2208 -0.43383,3.7316 -5.27438,11 -7.79456,11.70403 -7.08602,11.00713 -9.73495,9.57504 z"
     id="path4625" /></svg>