<?xml version="1.0" encoding="UTF-8" standalone="no"?>
<svg
   xmlns:dc="http://purl.org/dc/elements/1.1/"
   xmlns:cc="http://creativecommons.org/ns#"
   xmlns:rdf="http://www.w3.org/1999/02/22-rdf-syntax-ns#"
   xmlns:svg="http://www.w3.org/2000/svg"
   xmlns="http://www.w3.org/2000/svg"
   xmlns:sodipodi="http://sodipodi.sourceforge.net/DTD/sodipodi-0.dtd"
   xmlns:inkscape="http://www.inkscape.org/namespaces/inkscape"
   width="28.4409in"
   height="28.4409in"
   viewBox="0 0 2048 2048"
   id="svg2"
   version="1.1"
   inkscape:version="0.91 r13725"
   sodipodi:docname="railit.svg">
  <metadata
     id="metadata9">
    <rdf:RDF>
      <cc:Work
         rdf:about="">
        <dc:format>image/svg+xml</dc:format>
        <dc:type
           rdf:resource="http://purl.org/dc/dcmitype/StillImage" />
      </cc:Work>
    </rdf:RDF>
  </metadata>
  <defs
     id="defs7" />
  <sodipodi:namedview
     pagecolor="#ffffff"
     bordercolor="#666666"
     borderopacity="1"
     objecttolerance="10"
     gridtolerance="10"
     guidetolerance="10"
     inkscape:pageopacity="0"
     inkscape:pageshadow="2"
     inkscape:window-width="1013"
     inkscape:window-height="664"
     id="namedview5"
     showgrid="false"
     inkscape:zoom="0.17"
     inkscape:cx="1279.8405"
     inkscape:cy="1279.8405"
     inkscape:window-x="0"
     inkscape:window-y="70"
     inkscape:window-maximized="0"
     inkscape:current-layer="svg2" />
  <path
     id="Markering #1"
     fill="none"
     stroke="black"
     stroke-width="1"
     d="M 8.70,65.04            C 10.30,61.44 13.10,60.14 15.30,56.96              15.30,56.96 19.08,49.00 19.08,49.00              24.12,40.32 40.48,24.21 49.00,18.72              49.00,18.72 55.96,15.28 55.96,15.28              59.21,13.08 60.45,10.18 64.04,8.43              64.04,8.43 74.98,5.52 74.98,5.52              82.91,2.62 77.27,0.02 89.00,0.00              89.00,0.00 782.00,0.00 782.00,0.00              781.99,4.42 782.03,8.98 779.86,13.00              777.68,17.06 773.90,19.45 771.61,25.00              771.61,25.00 768.87,33.00 768.87,33.00              768.87,33.00 762.83,42.00 762.83,42.00              762.83,42.00 758.93,52.00 758.93,52.00              758.93,52.00 752.90,61.00 752.90,61.00              752.90,61.00 748.87,71.00 748.87,71.00              748.87,71.00 743.08,79.00 743.08,79.00              743.08,79.00 738.59,90.91 738.59,90.91              738.59,90.91 732.44,99.01 732.44,99.01              732.44,99.01 727.92,110.91 727.92,110.91              725.92,114.15 723.47,115.15 721.57,119.01              719.86,122.49 720.06,126.23 717.91,130.00              717.91,130.00 711.16,139.00 711.16,139.00              711.16,139.00 707.70,149.96 707.70,149.96              705.79,153.54 703.09,154.59 701.14,158.04              699.22,161.42 699.33,165.70 697.69,169.00              695.53,173.33 691.65,175.42 689.70,180.00              688.45,182.94 688.46,187.02 686.84,189.83              685.24,192.62 682.57,193.97 680.44,198.00              680.44,198.00 676.56,209.00 676.56,209.00              676.56,209.00 670.09,218.00 670.09,218.00              667.84,221.98 668.37,225.15 666.16,229.00              666.16,229.00 659.99,238.00 659.99,238.00              659.99,238.00 655.93,248.00 655.93,248.00              655.93,248.00 649.40,258.00 649.40,258.00              649.40,258.00 645.60,267.91 645.60,267.91              645.60,267.91 640.19,276.01 640.19,276.01              640.19,276.01 636.59,285.00 636.59,285.00              636.59,285.00 630.08,294.00 630.08,294.00              628.01,297.66 627.74,301.94 626.35,305.00              624.63,308.79 622.04,310.56 620.08,314.00              620.08,314.00 615.91,325.00 615.91,325.00              615.91,325.00 608.93,334.00 608.93,334.00              606.80,337.76 607.39,341.64 605.69,344.96              603.93,348.39 601.14,349.58 599.09,353.04              597.01,356.53 597.13,360.47 595.43,364.00              593.33,368.37 590.00,370.35 587.93,374.00              585.82,377.73 586.45,381.39 584.55,384.91              582.83,388.09 580.04,389.57 578.14,393.01              578.14,393.01 573.91,405.00 573.91,405.00              573.91,405.00 567.16,414.00 567.16,414.00              567.16,414.00 563.86,424.00 563.86,424.00              563.86,424.00 558.08,432.00 558.08,432.00              558.08,432.00 553.87,443.00 553.87,443.00              553.87,443.00 548.22,451.00 548.22,451.00              548.22,451.00 543.87,462.00 543.87,462.00              543.87,462.00 538.08,470.00 538.08,470.00              538.08,470.00 534.08,481.00 534.08,481.00              534.08,481.00 527.41,491.00 527.41,491.00              527.41,491.00 523.44,501.00 523.44,501.00              523.44,501.00 517.27,510.00 517.27,510.00              517.27,510.00 513.15,521.00 513.15,521.00              511.15,524.33 508.51,526.02 506.57,530.00              506.57,530.00 502.86,540.91 502.86,540.91              502.86,540.91 497.09,548.04 497.09,548.04              494.81,551.89 495.21,556.00 492.91,560.00              490.40,564.38 486.98,565.58 485.15,570.04              483.78,573.37 484.30,576.61 482.55,579.96              480.67,583.54 477.84,584.81 475.93,588.04              473.82,591.62 474.21,596.24 472.07,600.00              472.07,600.00 464.93,609.00 464.93,609.00              462.80,612.75 463.39,616.61 461.69,619.96              460.01,623.27 457.52,624.32 455.41,628.04              453.15,632.04 453.24,635.89 451.69,639.00              449.82,642.77 446.52,644.96 444.45,649.00              444.45,649.00 441.08,658.91 441.08,658.91              441.08,658.91 434.83,668.00 434.83,668.00              434.83,668.00 430.92,678.00 430.92,678.00              430.92,678.00 424.83,687.00 424.83,687.00              424.83,687.00 420.92,697.00 420.92,697.00              420.92,697.00 415.41,705.00 415.41,705.00              415.41,705.00 411.01,715.96 411.01,715.96              411.01,715.96 405.07,724.04 405.07,724.04              405.07,724.04 400.59,735.91 400.59,735.91              398.58,739.35 396.18,740.39 394.30,744.01              394.30,744.01 390.70,755.00 390.70,755.00              390.70,755.00 384.09,764.00 384.09,764.00              381.92,767.81 382.12,771.63 380.43,774.91              378.67,778.31 375.86,779.72 373.85,783.01              371.59,786.73 371.96,791.14 369.86,795.00              369.86,795.00 362.93,804.00 362.93,804.00              360.99,807.44 361.35,810.81 360.00,813.99              358.18,818.24 355.23,819.40 353.09,823.04              350.81,826.89 351.23,830.92 348.91,835.00              348.91,835.00 342.14,844.00 342.14,844.00              342.14,844.00 338.55,854.91 338.55,854.91              336.82,858.09 334.54,859.11 332.55,863.01              332.55,863.01 328.56,874.00 328.56,874.00              328.56,874.00 322.08,883.00 322.08,883.00              322.08,883.00 318.44,893.00 318.44,893.00              318.44,893.00 312.44,902.00 312.44,902.00              312.44,902.00 309.00,910.96 309.00,910.96              309.00,910.96 302.41,920.01 302.41,920.01              302.41,920.01 298.43,931.00 298.43,931.00              296.54,934.88 293.97,936.61 292.14,940.00              292.14,940.00 288.56,950.00 288.56,950.00              286.27,954.33 283.31,955.65 281.45,959.09              279.51,962.69 280.03,967.19 277.86,970.91              277.86,970.91 271.85,978.04 271.85,978.04              269.74,981.43 269.96,985.48 268.35,989.00              266.09,993.95 262.41,994.92 260.31,999.04              258.61,1002.38 259.34,1006.19 257.43,1009.91              255.53,1013.62 252.38,1014.88 250.31,1019.00              250.31,1019.00 247.35,1029.00 247.35,1029.00              245.38,1033.37 242.06,1035.26 239.93,1039.00              238.06,1042.29 238.27,1045.81 236.69,1049.00              236.69,1049.00 230.14,1058.00 230.14,1058.00              230.14,1058.00 226.43,1069.00 226.43,1069.00              224.33,1073.30 221.31,1075.05 219.30,1079.00              219.30,1079.00 215.86,1089.00 215.86,1089.00              215.86,1089.00 210.08,1097.00 210.08,1097.00              210.08,1097.00 205.87,1108.00 205.87,1108.00              205.87,1108.00 199.56,1117.00 199.56,1117.00              199.56,1117.00 195.59,1126.96 195.59,1126.96              193.50,1130.72 191.44,1131.44 189.48,1136.01              189.48,1136.01 185.59,1146.91 185.59,1146.91              185.59,1146.91 180.00,1154.04 180.00,1154.04              180.00,1154.04 175.44,1165.96 175.44,1165.96              173.45,1169.78 171.15,1170.54 169.30,1174.04              167.54,1177.36 167.56,1181.77 165.00,1186.00              165.00,1186.00 158.17,1195.00 158.17,1195.00              158.17,1195.00 155.35,1204.91 155.35,1204.91              153.56,1208.63 150.17,1210.14 148.17,1214.00              146.52,1217.20 146.92,1221.34 144.86,1224.96              142.89,1228.43 139.76,1229.91 137.74,1233.04              135.36,1236.72 136.26,1240.95 134.35,1244.91              132.78,1248.17 130.06,1249.65 128.00,1253.01              125.47,1257.17 125.95,1261.21 123.86,1264.99              121.80,1268.73 119.07,1269.77 116.84,1274.04              114.58,1278.34 115.31,1281.17 113.32,1284.91              113.32,1284.91 107.41,1293.01 107.41,1293.01              107.41,1293.01 103.70,1303.00 103.70,1303.00              103.70,1303.00 97.36,1312.00 97.36,1312.00              97.36,1312.00 92.73,1324.00 92.73,1324.00              92.73,1324.00 87.08,1332.00 87.08,1332.00              87.08,1332.00 82.59,1343.00 82.59,1343.00              82.59,1343.00 77.08,1351.00 77.08,1351.00              77.08,1351.00 72.87,1361.96 72.87,1361.96              72.87,1361.96 67.41,1369.09 67.41,1369.09              67.41,1369.09 63.17,1380.00 63.17,1380.00              60.89,1384.44 58.70,1385.81 56.73,1389.00              54.55,1392.54 54.89,1395.59 53.35,1399.00              51.58,1402.93 48.84,1404.68 46.72,1408.00              44.06,1412.17 44.59,1416.09 42.55,1419.99              40.58,1423.75 37.95,1425.02 36.01,1428.09              33.60,1431.87 34.26,1435.23 32.43,1438.99              30.39,1443.17 27.46,1444.22 25.45,1448.04              23.58,1451.60 23.81,1456.50 22.30,1460.00              20.55,1464.07 17.98,1465.09 15.65,1468.17              11.29,1473.92 13.35,1482.26 5.00,1484.79              3.38,1485.02 1.66,1484.96 0.00,1484.79              0.00,1484.79 0.00,84.00 0.00,84.00              9.85,79.19 5.25,72.81 8.70,65.04 Z            M 1051.00,0.00            C 1052.95,0.00 1056.71,-0.26 1058.26,0.99              1059.56,2.04 1061.51,11.51 1062.33,14.00              1067.16,28.56 1067.83,43.77 1068.00,59.00              1068.25,80.47 1073.37,85.95 1076.39,103.00              1076.39,103.00 1079.28,145.00 1079.28,145.00              1079.28,145.00 1085.54,170.00 1085.54,170.00              1087.22,178.77 1087.90,191.00 1088.00,200.00              1088.07,205.89 1090.52,225.26 1091.90,231.00              1091.90,231.00 1096.56,249.00 1096.56,249.00              1096.56,249.00 1099.29,289.00 1099.29,289.00              1099.29,289.00 1106.56,322.00 1106.56,322.00              1106.56,322.00 1109.10,348.00 1109.10,348.00              1109.10,348.00 1109.10,358.00 1109.10,358.00              1109.10,358.00 1112.66,380.00 1112.66,380.00              1115.52,392.76 1117.97,395.16 1118.00,410.00              1118.01,416.66 1119.20,435.78 1120.45,442.00              1120.45,442.00 1126.56,467.00 1126.56,467.00              1126.56,467.00 1130.42,513.00 1130.42,513.00              1130.42,513.00 1136.39,539.00 1136.39,539.00              1138.21,549.03 1138.95,562.75 1139.00,573.00              1139.07,587.00 1144.23,601.34 1147.00,615.00              1148.61,622.98 1148.91,633.79 1149.00,642.00              1149.27,664.50 1158.71,683.83 1159.00,708.00              1159.16,721.95 1160.12,730.35 1163.47,744.00              1163.47,744.00 1167.54,760.00 1167.54,760.00              1167.54,760.00 1169.09,781.00 1169.09,781.00              1169.09,781.00 1171.28,804.00 1171.28,804.00              1171.28,804.00 1177.69,831.00 1177.69,831.00              1179.05,838.23 1179.91,854.35 1180.00,862.00              1180.15,874.54 1185.78,892.38 1188.20,905.00              1188.20,905.00 1190.09,928.00 1190.09,928.00              1190.09,928.00 1192.28,950.00 1192.28,950.00              1193.77,961.03 1194.94,959.49 1196.76,967.00              1198.76,975.24 1199.90,986.51 1200.00,995.00              1200.00,995.00 1203.47,1029.00 1203.47,1029.00              1203.47,1029.00 1208.11,1045.00 1208.11,1045.00              1209.26,1050.05 1210.94,1065.80 1211.00,1071.00              1211.10,1079.62 1212.20,1092.63 1214.01,1101.00              1214.01,1101.00 1218.92,1120.00 1218.92,1120.00              1218.92,1120.00 1222.43,1163.00 1222.43,1163.00              1222.43,1163.00 1229.68,1193.00 1229.68,1193.00              1231.38,1202.70 1231.89,1218.92 1232.00,1229.00              1232.14,1241.00 1236.78,1251.61 1239.34,1263.00              1241.37,1272.09 1241.89,1285.57 1242.00,1295.00              1242.29,1319.28 1251.69,1332.02 1252.00,1359.00              1252.00,1359.00 1252.91,1369.00 1252.91,1369.00              1253.72,1380.77 1252.46,1378.78 1255.42,1392.00              1258.24,1404.59 1261.83,1410.66 1262.00,1425.00              1262.00,1425.00 1263.43,1453.00 1263.43,1453.00              1265.62,1468.25 1268.59,1470.85 1270.33,1479.00              1271.94,1486.55 1272.91,1505.78 1273.00,1514.00              1273.27,1537.17 1282.95,1549.42 1283.00,1579.00              1283.01,1586.93 1283.44,1598.37 1285.24,1606.00              1285.24,1606.00 1290.72,1624.00 1290.72,1624.00              1290.72,1624.00 1294.00,1659.00 1294.00,1659.00              1294.25,1681.01 1298.27,1682.03 1301.54,1700.00              1301.54,1700.00 1304.00,1738.00 1304.00,1738.00              1304.14,1749.28 1309.89,1762.95 1311.92,1775.00              1313.17,1782.40 1313.99,1792.49 1314.00,1800.00              1314.00,1800.00 1316.28,1824.00 1316.28,1824.00              1317.82,1834.84 1320.44,1837.24 1321.91,1845.00              1323.80,1855.01 1323.88,1868.70 1324.00,1879.00              1324.25,1899.98 1330.76,1906.24 1332.85,1923.00              1332.85,1923.00 1336.17,1967.00 1336.17,1967.00              1336.17,1967.00 1342.71,1992.00 1342.71,1992.00              1342.71,1992.00 1344.00,2011.00 1344.00,2011.00              1344.00,2011.00 1345.00,2028.00 1345.00,2028.00              1345.04,2036.16 1346.94,2040.17 1348.00,2048.00              1348.00,2048.00 693.00,2048.00 693.00,2048.00              693.00,2039.36 693.64,2027.37 695.51,2019.00              695.51,2019.00 702.87,1994.00 702.87,1994.00              702.87,1994.00 702.87,1984.00 702.87,1984.00              702.87,1984.00 703.91,1976.00 703.91,1976.00              704.49,1967.59 703.59,1967.08 705.28,1957.00              707.84,1941.83 712.73,1941.88 713.00,1919.00              713.00,1919.00 715.28,1894.00 715.28,1894.00              717.91,1878.28 723.79,1872.28 724.00,1855.00              724.10,1846.08 724.08,1834.70 725.81,1826.00              725.81,1826.00 732.57,1801.00 732.57,1801.00              732.57,1801.00 735.80,1764.00 735.80,1764.00              737.97,1752.72 743.87,1741.84 744.00,1731.00              744.00,1731.00 746.46,1696.00 746.46,1696.00              746.46,1696.00 753.81,1669.00 753.81,1669.00              753.81,1669.00 753.81,1658.00 753.81,1658.00              753.81,1658.00 754.91,1650.00 754.91,1650.00              754.91,1650.00 756.46,1632.00 756.46,1632.00              759.08,1617.84 764.77,1613.03 765.00,1594.00              765.09,1585.88 765.32,1573.81 767.01,1566.00              769.17,1556.03 771.50,1556.30 773.57,1542.00              773.57,1542.00 777.46,1500.00 777.46,1500.00              777.46,1500.00 782.85,1483.00 782.85,1483.00              784.51,1476.74 785.92,1464.49 786.00,1458.00              786.10,1449.09 785.69,1445.04 787.90,1436.00              790.55,1425.14 794.94,1416.75 795.00,1405.00              795.04,1397.91 796.70,1376.55 798.24,1370.00              798.24,1370.00 804.25,1350.00 804.25,1350.00              804.25,1350.00 807.80,1310.00 807.80,1310.00              807.80,1310.00 814.33,1287.00 814.33,1287.00              815.96,1279.53 815.92,1274.45 816.00,1267.00              816.07,1261.29 817.56,1246.48 818.90,1241.00              818.90,1241.00 825.25,1218.00 825.25,1218.00              825.25,1218.00 828.29,1181.00 828.29,1181.00              828.29,1181.00 834.74,1157.00 834.74,1157.00              834.74,1157.00 838.16,1120.00 838.16,1120.00              839.74,1105.51 846.80,1094.07 847.00,1077.00              847.11,1067.44 848.34,1054.30 850.42,1045.00              850.42,1045.00 856.25,1023.00 856.25,1023.00              856.25,1023.00 860.29,982.00 860.29,982.00              863.19,968.17 867.79,962.78 868.00,945.00              868.09,937.08 868.95,925.67 870.66,918.00              870.66,918.00 876.00,899.00 876.00,899.00              876.00,899.00 879.44,863.00 879.44,863.00              882.98,840.34 888.69,835.67 889.00,809.00              889.23,789.72 893.88,784.89 896.54,771.00              896.54,771.00 901.27,728.00 901.27,728.00              901.27,728.00 907.54,703.00 907.54,703.00              907.54,703.00 911.25,664.00 911.25,664.00              911.25,664.00 917.57,638.00 917.57,638.00              917.57,638.00 921.44,599.00 921.44,599.00              921.44,599.00 928.56,569.00 928.56,569.00              928.56,569.00 931.28,535.00 931.28,535.00              931.28,535.00 937.92,506.00 937.92,506.00              937.92,506.00 941.29,470.00 941.29,470.00              941.29,470.00 948.72,440.00 948.72,440.00              948.72,440.00 951.80,402.00 951.80,402.00              951.80,402.00 955.85,387.00 955.85,387.00              957.96,379.08 959.96,366.15 960.00,358.00              960.04,349.77 961.44,336.94 963.48,329.00              963.48,329.00 968.71,311.00 968.71,311.00              968.71,311.00 972.29,270.00 972.29,270.00              975.71,253.69 979.79,248.43 980.00,230.00              980.00,230.00 982.67,203.00 982.67,203.00              982.67,203.00 987.08,189.00 987.08,189.00              988.87,182.28 990.99,165.02 991.00,158.00              991.04,134.95 996.13,131.86 998.92,116.00              1000.45,107.27 999.58,107.39 1000.09,100.00              1000.09,100.00 1002.43,76.00 1002.43,76.00              1002.43,76.00 1009.54,49.00 1009.54,49.00              1010.77,42.10 1010.97,34.99 1011.00,28.00              1011.00,28.00 1014.00,0.00 1014.00,0.00              1014.00,0.00 1051.00,0.00 1051.00,0.00 Z            M 1972.00,0.00            C 1976.44,8.84 1983.01,5.40 1990.00,9.71              1990.00,9.71 1996.00,14.22 1996.00,14.22              1996.00,14.22 2004.91,19.63 2004.91,19.63              2004.91,19.63 2016.74,30.37 2016.74,30.37              2016.74,30.37 2021.26,35.91 2021.26,35.91              2021.26,35.91 2028.90,43.18 2028.90,43.18              2028.90,43.18 2039.30,58.00 2039.30,58.00              2042.17,64.76 2039.56,69.77 2048.00,74.00              2048.00,74.00 2048.00,1486.83 2048.00,1486.83              2046.34,1486.96 2044.64,1487.00 2043.00,1486.83              2032.46,1484.49 2036.81,1474.88 2032.91,1468.00              2032.91,1468.00 2026.16,1459.00 2026.16,1459.00              2024.17,1455.20 2024.80,1451.05 2022.27,1447.00              2020.50,1444.17 2017.73,1442.06 2016.17,1439.00              2014.52,1435.76 2014.96,1431.86 2012.86,1428.00              2012.86,1428.00 2005.93,1419.00 2005.93,1419.00              2003.61,1414.89 2004.60,1411.10 2002.15,1407.00              2000.20,1403.76 1997.19,1401.91 1995.57,1398.83              1993.65,1395.21 1994.33,1391.20 1991.91,1387.01              1989.72,1383.21 1987.03,1382.21 1984.92,1377.96              1984.92,1377.96 1981.43,1367.09 1981.43,1367.09              1979.50,1363.35 1976.64,1362.37 1974.65,1358.00              1974.65,1358.00 1971.69,1347.01 1971.69,1347.01              1969.71,1343.07 1966.57,1341.94 1964.45,1337.96              1964.45,1337.96 1960.86,1327.00 1960.86,1327.00              1958.77,1323.14 1955.66,1321.39 1953.88,1317.00              1952.71,1314.13 1952.52,1309.57 1950.56,1306.09              1948.89,1303.11 1946.55,1301.69 1944.70,1298.96              1942.15,1295.22 1942.22,1291.65 1940.43,1288.00              1938.54,1284.12 1935.95,1282.37 1934.14,1279.00              1931.95,1274.94 1932.49,1270.86 1930.55,1267.00              1928.57,1263.09 1925.36,1260.93 1923.28,1257.00              1923.28,1257.00 1919.70,1247.00 1919.70,1247.00              1917.77,1243.20 1914.96,1241.44 1912.97,1237.00              1912.97,1237.00 1909.56,1227.00 1909.56,1227.00              1909.56,1227.00 1903.27,1218.00 1903.27,1218.00              1903.27,1218.00 1899.43,1207.00 1899.43,1207.00              1897.54,1203.12 1894.97,1201.39 1893.14,1198.00              1893.14,1198.00 1889.17,1187.00 1889.17,1187.00              1889.17,1187.00 1882.55,1177.00 1882.55,1177.00              1882.55,1177.00 1879.03,1167.00 1879.03,1167.00              1877.11,1162.76 1874.82,1161.61 1872.91,1157.91              1872.91,1157.91 1868.47,1147.00 1868.47,1147.00              1868.47,1147.00 1862.41,1138.00 1862.41,1138.00              1862.41,1138.00 1858.44,1127.00 1858.44,1127.00              1858.44,1127.00 1852.44,1118.00 1852.44,1118.00              1852.44,1118.00 1848.95,1109.00 1848.95,1109.00              1848.95,1109.00 1842.12,1099.00 1842.12,1099.00              1842.12,1099.00 1837.92,1087.00 1837.92,1087.00              1837.92,1087.00 1832.16,1079.00 1832.16,1079.00              1832.16,1079.00 1828.86,1069.00 1828.86,1069.00              1826.81,1065.21 1823.61,1063.25 1821.57,1059.00              1819.82,1055.37 1819.99,1051.36 1817.59,1047.01              1815.34,1042.94 1812.85,1042.02 1811.14,1037.96              1809.86,1034.90 1809.93,1031.55 1807.91,1028.00              1807.91,1028.00 1801.16,1019.00 1801.16,1019.00              1801.16,1019.00 1797.70,1008.00 1797.70,1008.00              1795.66,1003.99 1792.47,1002.17 1790.70,998.00              1789.42,995.00 1789.38,990.52 1787.55,987.01              1785.59,983.26 1783.00,982.05 1781.08,978.91              1778.98,975.45 1778.67,970.53 1777.03,967.04              1775.03,962.78 1772.20,961.79 1770.31,957.99              1768.61,954.54 1769.34,950.92 1767.43,947.01              1765.17,942.38 1761.88,941.66 1759.57,936.99              1757.86,933.51 1758.01,929.59 1755.91,926.04              1753.67,922.25 1751.00,921.59 1749.26,916.99              1747.89,913.34 1748.33,909.45 1746.55,906.04              1744.69,902.50 1741.74,901.04 1739.73,897.96              1737.23,894.13 1737.80,889.62 1735.84,886.04              1733.98,882.64 1730.95,881.30 1729.17,877.96              1727.47,874.77 1727.79,869.69 1725.84,866.00              1723.77,862.08 1720.48,860.62 1718.57,856.91              1718.57,856.91 1715.35,846.04 1715.35,846.04              1713.42,841.95 1710.39,841.06 1708.31,836.99              1706.70,833.82 1706.82,829.60 1704.86,826.00              1704.86,826.00 1698.85,818.00 1698.85,818.00              1696.41,813.94 1696.63,809.42 1694.84,806.00              1694.84,806.00 1688.72,798.00 1688.72,798.00              1686.31,794.21 1686.48,790.50 1684.70,787.00              1684.70,787.00 1678.23,778.00 1678.23,778.00              1675.80,773.62 1675.91,769.46 1674.35,766.00              1672.67,762.27 1670.07,760.45 1668.08,757.00              1668.08,757.00 1663.59,746.00 1663.59,746.00              1663.59,746.00 1657.44,737.00 1657.44,737.00              1657.44,737.00 1653.32,725.04 1653.32,725.04              1653.32,725.04 1647.99,717.91 1647.99,717.91              1647.99,717.91 1643.59,707.00 1643.59,707.00              1643.59,707.00 1637.41,698.00 1637.41,698.00              1637.41,698.00 1633.52,687.00 1633.52,687.00              1631.41,681.98 1629.12,680.71 1627.13,677.00              1627.13,677.00 1623.73,668.00 1623.73,668.00              1623.73,668.00 1617.00,658.00 1617.00,658.00              1617.00,658.00 1612.59,646.00 1612.59,646.00              1612.59,646.00 1606.56,637.00 1606.56,637.00              1606.56,637.00 1602.92,627.00 1602.92,627.00              1602.92,627.00 1596.68,618.00 1596.68,618.00              1596.68,618.00 1592.59,607.00 1592.59,607.00              1590.65,603.43 1587.41,600.79 1585.88,597.00              1584.72,594.16 1584.66,590.33 1582.86,587.00              1582.86,587.00 1576.41,578.00 1576.41,578.00              1576.41,578.00 1571.92,566.01 1571.92,566.01              1569.83,562.44 1567.27,561.28 1565.65,557.91              1565.65,557.91 1562.55,547.00 1562.55,547.00              1562.55,547.00 1555.45,537.00 1555.45,537.00              1553.41,533.01 1553.88,528.99 1551.28,525.04              1549.51,522.36 1547.02,520.81 1545.45,517.91              1543.53,514.35 1544.07,510.07 1541.86,506.00              1541.86,506.00 1535.14,497.00 1535.14,497.00              1533.23,493.50 1533.09,488.64 1530.91,485.09              1528.93,481.85 1526.18,480.69 1524.43,476.99              1522.75,473.44 1523.44,469.64 1521.55,466.04              1519.34,461.82 1515.88,460.89 1513.88,456.00              1512.61,452.92 1512.48,448.04 1510.84,445.04              1509.16,441.97 1506.57,440.61 1504.72,437.91              1501.95,433.86 1502.63,429.53 1500.83,426.00              1498.98,422.37 1495.60,420.25 1493.57,416.00              1493.57,416.00 1490.43,405.04 1490.43,405.04              1488.40,400.98 1485.46,400.11 1483.30,395.99              1483.30,395.99 1479.56,385.00 1479.56,385.00              1477.49,381.05 1474.43,378.97 1472.65,375.00              1472.65,375.00 1469.69,365.00 1469.69,365.00              1468.11,361.81 1465.58,359.86 1463.70,357.00              1461.09,353.02 1461.24,349.70 1459.43,346.00              1457.40,341.82 1454.60,340.17 1452.57,336.00              1452.57,336.00 1448.56,324.09 1448.56,324.09              1448.56,324.09 1443.08,316.96 1443.08,316.96              1443.08,316.96 1438.95,306.00 1438.95,306.00              1438.95,306.00 1432.27,296.00 1432.27,296.00              1432.27,296.00 1428.17,285.00 1428.17,285.00              1428.17,285.00 1422.27,276.00 1422.27,276.00              1422.27,276.00 1418.56,266.00 1418.56,266.00              1418.56,266.00 1412.41,257.00 1412.41,257.00              1412.41,257.00 1407.59,245.00 1407.59,245.00              1407.59,245.00 1402.13,237.00 1402.13,237.00              1402.13,237.00 1398.45,227.00 1398.45,227.00              1398.45,227.00 1391.68,217.00 1391.68,217.00              1391.68,217.00 1387.59,206.00 1387.59,206.00              1387.59,206.00 1381.56,197.00 1381.56,197.00              1381.56,197.00 1377.59,186.00 1377.59,186.00              1377.59,186.00 1370.92,176.00 1370.92,176.00              1370.92,176.00 1366.78,165.00 1366.78,165.00              1366.78,165.00 1361.16,157.00 1361.16,157.00              1361.16,157.00 1358.20,148.00 1358.20,148.00              1356.42,144.03 1353.65,141.74 1351.53,138.00              1349.11,133.73 1349.09,130.40 1347.43,127.00              1345.41,122.84 1342.53,121.08 1340.57,117.00              1338.84,113.41 1339.05,109.79 1336.91,106.00              1336.91,106.00 1330.44,97.00 1330.44,97.00              1328.37,93.05 1328.33,88.49 1326.15,85.04              1324.31,82.11 1321.68,80.68 1320.17,77.91              1320.17,77.91 1317.30,67.00 1317.30,67.00              1315.56,62.91 1312.25,60.81 1310.09,57.00              1307.77,52.92 1308.21,48.97 1305.91,45.01              1303.89,41.52 1301.16,40.08 1299.45,36.91              1297.53,33.34 1298.05,28.97 1295.86,25.01              1295.86,25.01 1289.36,16.91 1289.36,16.91              1285.77,11.12 1286.00,6.47 1286.00,0.00              1286.00,0.00 1972.00,0.00 1972.00,0.00 Z            M 8.70,1716.00            C 10.48,1711.82 13.78,1709.85 15.86,1706.00              17.51,1702.97 17.53,1700.01 18.61,1697.00              20.62,1691.43 24.33,1690.20 26.73,1685.00              28.24,1681.71 28.06,1678.54 30.07,1675.09              31.95,1671.87 34.33,1670.75 36.47,1666.00              36.47,1666.00 40.08,1656.00 40.08,1656.00              40.08,1656.00 46.44,1647.00 46.44,1647.00              46.44,1647.00 50.13,1637.00 50.13,1637.00              50.13,1637.00 55.87,1629.00 55.87,1629.00              55.87,1629.00 60.08,1618.00 60.08,1618.00              60.08,1618.00 66.44,1609.00 66.44,1609.00              66.44,1609.00 70.44,1598.04 70.44,1598.04              72.36,1594.51 74.62,1593.55 76.44,1589.96              76.44,1589.96 80.41,1579.00 80.41,1579.00              80.41,1579.00 86.91,1570.00 86.91,1570.00              89.19,1565.97 88.65,1562.68 90.85,1559.00              92.82,1555.72 95.94,1553.57 97.69,1550.00              99.38,1546.55 98.79,1542.85 101.09,1539.09              103.01,1535.93 105.81,1534.60 107.91,1530.99              110.23,1527.00 109.64,1523.35 111.31,1520.01              113.48,1515.69 116.78,1515.01 118.86,1509.99              120.23,1506.66 120.30,1502.24 122.14,1499.09              124.00,1495.88 126.74,1494.75 128.70,1490.99              128.70,1490.99 132.16,1480.00 132.16,1480.00              132.16,1480.00 138.70,1471.00 138.70,1471.00              138.70,1471.00 142.26,1461.00 142.26,1461.00              142.26,1461.00 148.95,1451.00 148.95,1451.00              148.95,1451.00 152.30,1442.00 152.30,1442.00              152.30,1442.00 157.86,1434.00 157.86,1434.00              157.86,1434.00 162.41,1423.00 162.41,1423.00              162.41,1423.00 168.59,1414.00 168.59,1414.00              168.59,1414.00 172.56,1403.04 172.56,1403.04              174.37,1399.48 176.55,1398.57 178.59,1394.96              178.59,1394.96 182.57,1384.00 182.57,1384.00              182.57,1384.00 189.56,1374.00 189.56,1374.00              189.56,1374.00 193.14,1364.00 193.14,1364.00              193.14,1364.00 199.69,1355.00 199.69,1355.00              201.38,1351.59 200.94,1348.11 203.70,1344.01              205.89,1340.76 208.85,1339.06 210.55,1335.91              212.43,1332.42 211.76,1328.58 213.43,1325.00              215.39,1320.80 218.47,1319.71 220.43,1315.91              220.43,1315.91 223.65,1305.09 223.65,1305.09              225.58,1301.11 229.52,1299.42 231.69,1295.00              233.35,1291.60 232.64,1288.44 234.31,1285.00              234.31,1285.00 240.91,1276.00 240.91,1276.00              240.91,1276.00 244.56,1266.00 244.56,1266.00              244.56,1266.00 251.44,1256.00 251.44,1256.00              253.80,1251.69 253.46,1248.27 255.16,1245.00              255.16,1245.00 261.00,1237.00 261.00,1237.00              261.00,1237.00 265.41,1226.00 265.41,1226.00              265.41,1226.00 271.59,1217.00 271.59,1217.00              271.59,1217.00 274.97,1208.00 274.97,1208.00              276.74,1204.07 279.00,1202.38 280.92,1199.00              280.92,1199.00 285.41,1188.00 285.41,1188.00              285.41,1188.00 292.08,1178.00 292.08,1178.00              292.08,1178.00 295.30,1169.04 295.30,1169.04              297.24,1165.41 299.98,1164.37 301.84,1160.96              301.84,1160.96 304.97,1151.00 304.97,1151.00              307.20,1146.03 310.64,1144.13 312.69,1140.00              312.69,1140.00 315.65,1130.04 315.65,1130.04              317.58,1125.95 320.81,1124.85 322.83,1120.99              324.46,1117.87 324.04,1113.86 326.14,1110.00              326.14,1110.00 333.15,1101.00 333.15,1101.00              335.40,1097.21 334.71,1093.78 336.57,1090.04              338.38,1086.41 340.89,1085.38 342.92,1081.96              342.92,1081.96 347.41,1070.00 347.41,1070.00              347.41,1070.00 353.91,1061.00 353.91,1061.00              355.99,1057.32 355.77,1054.10 357.31,1051.00              357.31,1051.00 363.70,1042.00 363.70,1042.00              363.70,1042.00 367.75,1031.00 367.75,1031.00              367.75,1031.00 374.56,1021.00 374.56,1021.00              374.56,1021.00 377.76,1012.04 377.76,1012.04              377.76,1012.04 383.45,1003.96 383.45,1003.96              383.45,1003.96 387.67,993.00 387.67,993.00              387.67,993.00 393.92,984.00 393.92,984.00              393.92,984.00 398.13,973.00 398.13,973.00              398.13,973.00 403.92,965.00 403.92,965.00              403.92,965.00 408.09,954.00 408.09,954.00              408.09,954.00 414.86,945.00 414.86,945.00              414.86,945.00 418.45,934.09 418.45,934.09              420.22,930.85 422.96,929.43 424.86,925.99              424.86,925.99 428.45,915.01 428.45,915.01              430.73,910.66 433.97,909.63 436.01,904.99              437.52,901.55 437.40,897.39 439.30,894.09              441.10,890.97 443.94,889.47 445.86,885.99              447.79,882.50 447.70,878.17 449.31,875.01              451.34,871.03 454.44,869.92 456.55,865.96              456.55,865.96 459.82,855.09 459.82,855.09              461.47,851.64 464.37,850.16 466.56,846.00              466.56,846.00 470.44,835.00 470.44,835.00              470.44,835.00 476.91,826.00 476.91,826.00              476.91,826.00 480.16,817.00 480.16,817.00              480.16,817.00 486.33,808.00 486.33,808.00              486.33,808.00 490.55,797.00 490.55,797.00              490.55,797.00 496.64,788.00 496.64,788.00              496.64,788.00 500.56,778.04 500.56,778.04              502.45,774.25 504.90,773.18 506.95,768.99              506.95,768.99 511.08,758.00 511.08,758.00              513.07,754.54 515.58,752.80 517.43,749.00              517.43,749.00 521.08,739.00 521.08,739.00              523.02,735.60 525.63,733.75 527.43,730.00              527.43,730.00 530.84,720.04 530.84,720.04              533.09,715.77 535.81,714.71 537.86,710.99              539.79,707.49 539.69,703.21 541.31,700.01              543.30,696.08 546.23,695.01 548.23,690.96              550.00,687.40 549.72,683.52 551.85,680.01              554.07,676.37 557.25,674.98 559.23,670.96              561.21,666.96 560.54,663.16 562.17,660.04              563.81,656.91 566.46,655.70 568.59,651.96              570.85,647.97 570.76,644.12 572.31,641.00              574.19,637.23 577.49,635.03 579.55,631.00              579.55,631.00 583.14,620.00 583.14,620.00              583.14,620.00 589.56,611.00 589.56,611.00              589.56,611.00 593.41,601.00 593.41,601.00              593.41,601.00 600.08,591.00 600.08,591.00              600.08,591.00 603.30,582.00 603.30,582.00              603.30,582.00 609.33,573.00 609.33,573.00              609.33,573.00 613.99,562.00 613.99,562.00              613.99,562.00 619.73,554.00 619.73,554.00              619.73,554.00 624.00,543.00 624.00,543.00              624.00,543.00 629.86,535.00 629.86,535.00              629.86,535.00 633.44,525.00 633.44,525.00              633.44,525.00 640.43,515.00 640.43,515.00              640.43,515.00 644.41,504.09 644.41,504.09              644.41,504.09 650.55,495.99 650.55,495.99              650.55,495.99 654.14,485.00 654.14,485.00              654.14,485.00 660.91,476.00 660.91,476.00              663.17,472.02 662.66,468.67 664.85,465.00              666.82,461.70 669.88,459.63 671.69,456.00              671.69,456.00 674.65,446.00 674.65,446.00              676.57,441.75 679.77,439.85 681.86,436.00              681.86,436.00 685.30,426.00 685.30,426.00              685.30,426.00 691.59,417.00 691.59,417.00              691.59,417.00 695.68,406.00 695.68,406.00              695.68,406.00 702.56,396.00 702.56,396.00              702.56,396.00 706.14,386.00 706.14,386.00              706.14,386.00 711.16,379.00 711.16,379.00              711.16,379.00 715.41,369.00 715.41,369.00              715.41,369.00 721.59,360.00 721.59,360.00              721.59,360.00 725.57,349.00 725.57,349.00              725.57,349.00 732.43,339.00 732.43,339.00              732.43,339.00 736.09,329.00 736.09,329.00              736.09,329.00 742.70,320.00 742.70,320.00              742.70,320.00 746.44,309.09 746.44,309.09              748.33,305.72 751.02,304.41 752.84,300.99              752.84,300.99 756.44,290.00 756.44,290.00              758.63,285.81 761.81,283.79 763.69,280.00              765.33,276.69 765.22,272.38 767.14,269.09              769.00,265.88 771.73,264.75 773.70,260.99              773.70,260.99 777.30,250.01 777.30,250.01              779.42,245.96 782.52,244.82 784.55,240.96              786.45,237.33 785.68,233.80 787.57,230.09              789.42,226.46 792.15,225.53 794.44,221.00              794.44,221.00 798.16,210.00 798.16,210.00              798.16,210.00 804.86,201.00 804.86,201.00              804.86,201.00 808.30,191.00 808.30,191.00              808.30,191.00 814.01,183.00 814.01,183.00              816.55,178.86 816.70,175.34 818.26,172.00              818.26,172.00 824.93,162.00 824.93,162.00              824.93,162.00 828.44,153.00 828.44,153.00              828.44,153.00 834.45,144.00 834.45,144.00              839.45,133.93 834.79,138.59 843.62,126.00              847.42,120.58 846.59,117.19 849.08,113.09              850.82,110.23 853.03,109.11 854.70,105.96              856.46,102.64 856.44,98.23 859.00,94.00              861.10,90.54 864.03,88.39 865.69,85.00              865.69,85.00 868.97,73.04 868.97,73.04              870.69,69.35 872.99,68.22 874.92,64.96              879.53,57.20 876.50,51.17 887.00,47.35              888.36,46.86 891.66,45.74 893.00,45.66              897.63,45.39 899.01,49.02 898.94,53.00              898.81,60.31 894.17,60.26 894.00,74.00              894.00,74.00 894.00,78.00 894.00,78.00              893.73,100.99 884.09,113.60 884.00,132.00              884.00,132.00 884.00,136.00 884.00,136.00              884.00,136.00 883.09,146.00 883.09,146.00              883.09,146.00 881.19,164.00 881.19,164.00              881.19,164.00 877.43,177.00 877.43,177.00              874.22,188.26 873.13,197.36 873.00,209.00              872.71,233.87 863.05,241.03 863.00,270.00              862.97,289.13 857.31,301.19 853.67,319.00              853.67,319.00 850.56,356.00 850.56,356.00              850.56,356.00 845.24,374.00 845.24,374.00              843.30,382.22 842.10,397.42 842.00,406.00              841.84,419.58 838.52,425.11 835.48,437.00              833.05,446.49 832.11,455.25 832.00,465.00              831.72,488.44 825.53,494.46 823.28,512.00              823.28,512.00 819.74,549.00 819.74,549.00              819.74,549.00 812.11,578.00 812.11,578.00              812.11,578.00 812.11,587.00 812.11,587.00              812.11,587.00 809.56,614.00 809.56,614.00              809.56,614.00 802.43,642.00 802.43,642.00              802.43,642.00 801.91,651.00 801.91,651.00              801.91,651.00 799.72,675.00 799.72,675.00              797.65,689.56 791.18,703.20 791.00,718.00              790.92,725.09 790.30,740.49 788.76,747.00              788.76,747.00 783.18,765.00 783.18,765.00              783.18,765.00 781.09,783.00 781.09,783.00              781.09,783.00 778.92,808.00 778.92,808.00              778.92,808.00 771.29,840.00 771.29,840.00              771.29,840.00 769.41,870.00 769.41,870.00              769.41,870.00 761.44,904.00 761.44,904.00              761.44,904.00 760.91,915.00 760.91,915.00              760.91,915.00 758.54,940.00 758.54,940.00              755.68,954.93 750.19,965.88 750.00,982.00              749.91,989.65 749.88,997.47 748.33,1005.00              748.33,1005.00 741.44,1032.00 741.44,1032.00              740.45,1038.26 740.03,1044.67 740.00,1051.00              739.97,1057.04 738.55,1067.96 737.39,1074.00              737.39,1074.00 731.89,1093.00 731.89,1093.00              729.94,1101.55 730.10,1106.52 730.00,1115.00              729.70,1140.74 720.27,1151.33 720.00,1174.00              719.91,1182.08 719.02,1195.22 717.34,1203.00              717.34,1203.00 710.44,1229.00 710.44,1229.00              710.44,1229.00 709.91,1241.00 709.91,1241.00              709.91,1241.00 707.83,1265.00 707.83,1265.00              707.83,1265.00 700.13,1293.00 700.13,1293.00              700.13,1293.00 700.13,1303.00 700.13,1303.00              700.13,1303.00 699.09,1311.00 699.09,1311.00              699.09,1311.00 697.19,1333.00 697.19,1333.00              694.51,1346.45 689.20,1353.91 689.00,1371.00              688.89,1380.72 688.31,1391.51 686.11,1401.00              686.11,1401.00 680.29,1422.00 680.29,1422.00              680.29,1422.00 677.56,1458.00 677.56,1458.00              677.56,1458.00 669.10,1491.00 669.10,1491.00              669.10,1491.00 669.10,1502.00 669.10,1502.00              669.10,1502.00 666.72,1527.00 666.72,1527.00              664.98,1539.18 659.19,1545.03 659.00,1561.00              658.87,1572.34 657.96,1584.96 655.35,1596.00              652.11,1609.68 648.08,1614.80 648.00,1631.00              647.96,1639.64 647.78,1651.68 645.76,1660.00              644.09,1666.90 641.35,1669.98 640.13,1678.00              640.13,1678.00 635.72,1723.00 635.72,1723.00              635.72,1723.00 629.50,1743.00 629.50,1743.00              627.82,1750.09 628.08,1753.98 628.00,1761.00              627.93,1766.92 626.59,1784.45 625.34,1790.00              625.34,1790.00 619.81,1808.00 619.81,1808.00              618.06,1816.59 618.04,1818.43 618.00,1827.00              618.00,1827.00 615.73,1850.00 615.73,1850.00              613.66,1863.37 610.62,1865.78 608.67,1875.00              607.22,1881.84 607.08,1894.76 607.00,1902.00              606.77,1921.05 601.52,1925.11 599.08,1939.00              599.08,1939.00 595.56,1979.00 595.56,1979.00              593.12,1994.46 590.26,1995.03 588.52,2003.00              587.16,2009.19 587.03,2015.69 587.00,2022.00              587.00,2022.00 585.00,2048.00 585.00,2048.00              585.00,2048.00 89.00,2048.00 89.00,2048.00              77.27,2047.98 82.91,2045.38 74.98,2042.48              74.98,2042.48 64.04,2039.57 64.04,2039.57              60.45,2037.82 59.21,2034.92 55.96,2032.72              55.96,2032.72 49.00,2029.28 49.00,2029.28              40.48,2023.79 24.12,2007.68 19.08,1999.00              19.08,1999.00 15.30,1991.04 15.30,1991.04              13.09,1987.83 10.36,1986.61 8.65,1982.96              5.01,1975.21 10.06,1968.91 0.00,1964.00              0.00,1964.00 0.00,1731.00 0.00,1731.00              8.70,1726.78 5.86,1722.68 8.70,1716.00 Z            M 1453.13,2024.00            C 1453.13,2024.00 1451.00,2004.00 1451.00,2004.00              1451.00,2004.00 1449.71,1980.00 1449.71,1980.00              1449.71,1980.00 1442.61,1950.00 1442.61,1950.00              1440.98,1940.76 1441.11,1931.35 1441.00,1922.00              1440.91,1914.83 1439.31,1901.97 1437.52,1895.00              1437.52,1895.00 1432.29,1877.00 1432.29,1877.00              1432.29,1877.00 1430.00,1850.00 1430.00,1850.00              1429.96,1840.67 1430.20,1840.53 1428.73,1831.00              1428.73,1831.00 1422.67,1808.00 1422.67,1808.00              1421.29,1801.67 1421.07,1796.40 1421.00,1790.00              1421.00,1790.00 1420.00,1777.00 1420.00,1777.00              1419.91,1768.73 1420.47,1765.47 1418.72,1757.00              1418.72,1757.00 1412.61,1734.00 1412.61,1734.00              1410.31,1721.98 1410.14,1714.03 1410.00,1702.00              1409.76,1681.73 1404.70,1675.92 1402.08,1661.00              1402.08,1661.00 1398.71,1615.00 1398.71,1615.00              1398.71,1615.00 1392.00,1589.00 1392.00,1589.00              1390.23,1580.24 1389.10,1561.26 1389.00,1552.00              1388.79,1534.72 1383.69,1528.25 1381.44,1514.00              1380.45,1507.72 1380.07,1501.35 1380.00,1495.00              1380.00,1495.00 1379.00,1482.00 1379.00,1482.00              1378.79,1464.11 1375.35,1460.51 1372.00,1444.00              1369.79,1433.07 1369.13,1422.11 1369.00,1411.00              1369.00,1411.00 1368.17,1402.00 1368.17,1402.00              1366.13,1380.90 1363.78,1383.00 1361.08,1367.00              1361.08,1367.00 1357.57,1323.00 1357.57,1323.00              1357.57,1323.00 1350.61,1294.00 1350.61,1294.00              1350.61,1294.00 1348.00,1256.00 1348.00,1256.00              1347.87,1245.10 1344.04,1235.44 1341.65,1225.00              1339.50,1215.63 1339.11,1208.51 1339.00,1199.00              1338.89,1189.78 1337.19,1176.01 1335.11,1167.00              1335.11,1167.00 1330.29,1148.00 1330.29,1148.00              1330.29,1148.00 1328.00,1122.00 1328.00,1122.00              1327.96,1113.09 1327.90,1109.98 1326.57,1101.00              1324.93,1089.89 1323.30,1088.76 1321.24,1080.00              1319.55,1072.85 1318.09,1057.40 1318.00,1050.00              1317.89,1040.53 1317.17,1029.22 1314.96,1020.00              1314.96,1020.00 1310.62,1006.00 1310.62,1006.00              1308.85,996.81 1308.11,983.44 1308.00,974.00              1307.72,950.74 1298.04,931.69 1298.00,908.00              1297.98,898.26 1297.51,888.58 1295.55,879.00              1295.55,879.00 1289.43,854.00 1289.43,854.00              1289.43,854.00 1285.39,807.00 1285.39,807.00              1285.39,807.00 1281.43,792.00 1281.43,792.00              1278.70,782.28 1278.11,772.03 1278.00,762.00              1278.00,762.00 1276.96,752.00 1276.96,752.00              1276.96,752.00 1276.96,743.00 1276.96,743.00              1276.96,743.00 1269.42,708.00 1269.42,708.00              1269.42,708.00 1265.57,666.00 1265.57,666.00              1265.57,666.00 1259.42,638.00 1259.42,638.00              1257.47,627.18 1257.12,615.97 1257.00,605.00              1256.82,589.63 1250.81,575.03 1248.44,560.00              1248.44,560.00 1245.57,523.00 1245.57,523.00              1245.57,523.00 1242.36,506.00 1242.36,506.00              1242.36,506.00 1238.46,492.00 1238.46,492.00              1238.46,492.00 1236.00,460.00 1236.00,460.00              1235.74,437.45 1226.29,420.63 1226.00,396.00              1225.59,360.80 1216.05,355.70 1216.00,325.00              1215.99,316.34 1215.82,307.50 1213.99,299.00              1213.99,299.00 1207.46,274.00 1207.46,274.00              1207.46,274.00 1205.91,254.00 1205.91,254.00              1205.91,254.00 1203.72,228.00 1203.72,228.00              1203.72,228.00 1197.67,204.00 1197.67,204.00              1197.67,204.00 1195.00,173.00 1195.00,173.00              1195.00,173.00 1195.00,169.00 1195.00,169.00              1194.84,155.34 1189.40,143.17 1187.08,130.00              1187.08,130.00 1184.09,101.00 1184.09,101.00              1184.09,101.00 1183.54,91.00 1183.54,91.00              1181.81,81.42 1177.26,78.98 1178.34,72.00              1178.75,69.38 1179.98,65.79 1183.11,65.59              1184.97,65.47 1187.35,66.87 1189.00,67.65              1191.77,68.95 1195.30,70.08 1197.35,72.39              1200.78,76.24 1200.42,82.32 1202.00,85.96              1203.72,89.91 1206.70,91.22 1208.92,95.01              1211.46,99.38 1211.58,105.57 1213.31,108.99              1215.12,112.57 1217.71,113.72 1219.43,117.09              1221.72,121.56 1220.25,125.55 1224.40,130.91              1226.55,133.69 1228.37,134.49 1230.03,138.04              1230.03,138.04 1233.31,148.96 1233.31,148.96              1235.13,152.46 1237.92,153.61 1239.86,157.04              1241.87,160.57 1241.60,164.71 1243.00,167.99              1244.82,172.24 1247.77,173.40 1249.91,177.04              1252.17,180.85 1251.93,185.26 1253.77,188.96              1255.77,193.01 1258.70,194.08 1260.69,198.01              1262.30,201.20 1262.19,205.41 1264.14,209.00              1264.14,209.00 1270.86,218.00 1270.86,218.00              1270.86,218.00 1274.45,228.99 1274.45,228.99              1276.35,232.64 1278.89,233.99 1280.73,237.09              1280.73,237.09 1284.92,248.96 1284.92,248.96              1286.84,252.82 1289.01,253.78 1290.92,257.04              1293.06,260.69 1293.29,265.33 1294.97,268.99              1296.94,273.29 1299.53,274.29 1301.56,278.04              1301.56,278.04 1305.45,289.99 1305.45,289.99              1305.45,289.99 1311.59,298.09 1311.59,298.09              1311.59,298.09 1316.08,310.00 1316.08,310.00              1318.02,313.41 1320.57,315.18 1322.43,319.00              1322.43,319.00 1326.41,330.00 1326.41,330.00              1326.41,330.00 1332.56,339.00 1332.56,339.00              1332.56,339.00 1336.55,350.00 1336.55,350.00              1336.55,350.00 1343.03,360.00 1343.03,360.00              1344.58,363.42 1344.58,366.03 1346.99,370.00              1346.99,370.00 1352.56,378.00 1352.56,378.00              1352.56,378.00 1357.36,390.00 1357.36,390.00              1357.36,390.00 1362.56,398.00 1362.56,398.00              1362.56,398.00 1366.41,408.00 1366.41,408.00              1366.41,408.00 1373.09,418.00 1373.09,418.00              1373.09,418.00 1377.13,429.00 1377.13,429.00              1377.13,429.00 1383.08,438.00 1383.08,438.00              1383.08,438.00 1386.68,448.00 1386.68,448.00              1386.68,448.00 1393.44,458.00 1393.44,458.00              1395.10,461.43 1395.16,464.88 1397.53,468.96              1397.53,468.96 1403.32,477.04 1403.32,477.04              1403.32,477.04 1406.53,487.00 1406.53,487.00              1408.71,491.98 1411.93,494.37 1413.87,498.00              1413.87,498.00 1417.44,508.00 1417.44,508.00              1417.44,508.00 1423.84,517.00 1423.84,517.00              1425.73,520.63 1425.32,524.91 1427.56,528.96              1429.53,532.50 1432.30,534.07 1434.32,538.01              1436.26,541.81 1435.91,545.18 1438.09,549.00              1438.09,549.00 1444.83,558.00 1444.83,558.00              1446.48,561.24 1446.04,565.12 1448.14,569.00              1450.19,572.79 1453.39,574.75 1455.43,579.00              1455.43,579.00 1458.57,588.99 1458.57,588.99              1460.66,593.23 1463.46,594.08 1465.43,598.04              1467.17,601.53 1466.67,604.75 1468.01,608.00              1469.99,612.83 1473.40,614.23 1475.56,618.09              1477.68,621.86 1477.58,626.50 1479.45,629.91              1481.22,633.15 1483.96,634.57 1485.86,638.01              1488.03,641.94 1487.52,646.24 1489.45,649.99              1491.36,653.69 1494.03,654.98 1495.91,658.09              1498.06,661.62 1497.94,665.83 1499.43,669.00              1501.40,673.21 1504.66,674.79 1506.55,678.17              1508.48,681.63 1507.93,685.93 1510.14,690.00              1510.14,690.00 1516.91,699.00 1516.91,699.00              1519.24,703.10 1518.76,706.91 1521.08,710.99              1521.08,710.99 1527.08,719.09 1527.08,719.09              1527.08,719.09 1531.08,730.00 1531.08,730.00              1533.02,733.41 1535.58,735.18 1537.43,739.00              1537.43,739.00 1541.14,750.00 1541.14,750.00              1541.14,750.00 1546.92,758.00 1546.92,758.00              1546.92,758.00 1551.41,769.00 1551.41,769.00              1551.41,769.00 1557.56,778.00 1557.56,778.00              1557.56,778.00 1561.57,790.00 1561.57,790.00              1563.27,793.49 1565.42,795.06 1567.28,798.00              1567.28,798.00 1571.56,809.00 1571.56,809.00              1571.56,809.00 1577.92,818.00 1577.92,818.00              1577.92,818.00 1581.92,829.00 1581.92,829.00              1581.92,829.00 1587.92,838.00 1587.92,838.00              1587.92,838.00 1591.56,848.00 1591.56,848.00              1591.56,848.00 1597.78,857.00 1597.78,857.00              1597.78,857.00 1602.44,869.00 1602.44,869.00              1602.44,869.00 1608.55,878.00 1608.55,878.00              1608.55,878.00 1612.41,889.00 1612.41,889.00              1612.41,889.00 1618.73,898.00 1618.73,898.00              1618.73,898.00 1623.36,909.96 1623.36,909.96              1625.30,913.28 1627.42,914.57 1629.03,918.04              1629.03,918.04 1632.30,928.00 1632.30,928.00              1632.30,928.00 1638.86,937.00 1638.86,937.00              1640.88,940.69 1641.24,946.10 1643.72,950.00              1645.54,952.85 1648.13,954.82 1649.69,958.00              1649.69,958.00 1652.57,968.00 1652.57,968.00              1654.60,972.24 1657.90,974.29 1659.84,978.00              1661.63,981.42 1661.42,985.98 1663.85,990.00              1665.87,993.33 1668.86,995.33 1670.57,999.00              1670.57,999.00 1673.31,1009.00 1673.31,1009.00              1675.23,1012.90 1678.72,1015.04 1680.69,1019.00              1682.50,1022.63 1682.11,1027.09 1684.72,1030.91              1686.54,1033.57 1689.29,1035.09 1690.83,1038.04              1692.67,1041.57 1691.38,1045.40 1694.09,1049.96              1696.32,1053.74 1699.34,1054.74 1701.43,1059.01              1703.34,1062.92 1702.61,1066.58 1704.31,1069.99              1706.27,1073.91 1709.48,1075.12 1711.55,1079.04              1711.55,1079.04 1714.57,1089.00 1714.57,1089.00              1716.58,1093.21 1719.81,1095.22 1721.86,1099.00              1724.07,1103.07 1723.53,1107.35 1725.45,1110.91              1727.02,1113.81 1729.51,1115.35 1731.28,1118.04              1733.72,1121.74 1733.64,1126.18 1735.57,1129.96              1737.45,1133.67 1739.93,1134.66 1741.91,1138.04              1744.53,1142.47 1743.72,1147.75 1746.14,1151.91              1746.14,1151.91 1752.15,1159.04 1752.15,1159.04              1752.15,1159.04 1756.41,1170.00 1756.41,1170.00              1756.41,1170.00 1762.73,1179.00 1762.73,1179.00              1762.73,1179.00 1766.57,1190.99 1766.57,1190.99              1768.45,1194.81 1770.86,1195.79 1772.73,1199.09              1772.73,1199.09 1777.08,1211.00 1777.08,1211.00              1777.08,1211.00 1783.56,1220.00 1783.56,1220.00              1785.61,1223.92 1785.51,1227.88 1787.99,1231.96              1787.99,1231.96 1793.24,1239.09 1793.24,1239.09              1793.24,1239.09 1797.13,1250.00 1797.13,1250.00              1797.13,1250.00 1803.59,1259.00 1803.59,1259.00              1803.59,1259.00 1807.83,1270.00 1807.83,1270.00              1807.83,1270.00 1814.15,1280.00 1814.15,1280.00              1814.15,1280.00 1817.56,1290.00 1817.56,1290.00              1817.56,1290.00 1823.92,1299.00 1823.92,1299.00              1823.92,1299.00 1827.83,1309.00 1827.83,1309.00              1827.83,1309.00 1833.87,1318.00 1833.87,1318.00              1833.87,1318.00 1838.05,1330.00 1838.05,1330.00              1838.05,1330.00 1844.74,1340.00 1844.74,1340.00              1844.74,1340.00 1848.72,1350.00 1848.72,1350.00              1850.56,1352.92 1852.78,1354.57 1854.43,1358.00              1854.43,1358.00 1858.00,1369.00 1858.00,1369.00              1858.00,1369.00 1864.87,1379.00 1864.87,1379.00              1866.76,1382.56 1866.65,1386.35 1868.85,1390.00              1868.85,1390.00 1874.84,1398.00 1874.84,1398.00              1876.61,1401.39 1876.39,1405.62 1878.16,1409.00              1878.16,1409.00 1884.91,1418.00 1884.91,1418.00              1887.24,1422.10 1886.76,1425.90 1889.09,1430.00              1889.09,1430.00 1895.69,1439.00 1895.69,1439.00              1897.38,1442.46 1896.74,1445.86 1899.09,1450.00              1899.09,1450.00 1905.84,1459.00 1905.84,1459.00              1907.63,1462.42 1907.42,1466.98 1909.85,1471.00              1909.85,1471.00 1916.07,1479.00 1916.07,1479.00              1918.17,1482.72 1917.54,1486.28 1919.45,1489.99              1921.54,1494.03 1924.49,1495.14 1926.43,1499.04              1926.43,1499.04 1929.57,1510.00 1929.57,1510.00              1931.64,1514.33 1934.72,1515.92 1936.55,1519.17              1938.39,1522.43 1938.20,1526.42 1940.14,1530.00              1940.14,1530.00 1946.86,1539.00 1946.86,1539.00              1949.06,1543.05 1948.52,1547.23 1950.45,1550.99              1952.54,1555.03 1955.46,1556.11 1957.43,1560.04              1957.43,1560.04 1960.57,1570.00 1960.57,1570.00              1962.61,1574.24 1965.69,1576.05 1967.70,1580.00              1967.70,1580.00 1971.16,1591.00 1971.16,1591.00              1971.16,1591.00 1977.70,1600.00 1977.70,1600.00              1977.70,1600.00 1981.16,1611.00 1981.16,1611.00              1982.89,1614.29 1985.72,1616.12 1987.64,1619.17              1990.20,1623.25 1989.94,1626.97 1991.92,1630.96              1993.83,1634.83 1996.08,1635.82 1997.87,1639.04              1999.89,1642.69 1999.74,1647.26 2001.57,1650.99              2003.44,1654.80 2005.88,1655.87 2008.01,1659.09              2010.59,1663.01 2010.87,1667.52 2012.57,1671.00              2012.57,1671.00 2018.70,1680.00 2018.70,1680.00              2018.70,1680.00 2021.97,1690.00 2021.97,1690.00              2023.95,1694.41 2026.74,1696.21 2028.92,1700.00              2028.92,1700.00 2033.72,1712.00 2033.72,1712.00              2033.72,1712.00 2037.59,1717.00 2037.59,1717.00              2043.33,1725.11 2038.17,1732.19 2048.00,1737.00              2048.00,1737.00 2048.00,1975.00 2048.00,1975.00              2039.33,1978.13 2042.10,1984.24 2038.56,1991.00              2038.56,1991.00 2030.14,2002.96 2030.14,2002.96              2026.69,2008.31 2025.00,2007.99 2021.37,2012.09              2021.37,2012.09 2017.63,2016.79 2017.63,2016.79              2017.63,2016.79 2004.91,2028.37 2004.91,2028.37              2004.91,2028.37 1996.00,2033.78 1996.00,2033.78              1996.00,2033.78 1990.00,2038.29 1990.00,2038.29              1983.01,2042.60 1976.44,2039.16 1972.00,2048.00              1972.00,2048.00 1459.00,2048.00 1459.00,2048.00              1458.78,2038.17 1454.63,2033.92 1453.13,2024.00 Z            M 1562.51,102.96            C 1566.18,107.82 1570.24,108.92 1576.00,109.00              1576.00,109.00 1591.00,108.10 1591.00,108.10              1591.00,108.10 1621.00,110.00 1621.00,110.00              1629.23,110.01 1636.94,109.97 1645.00,112.16              1645.00,112.16 1661.00,118.10 1661.00,118.10              1661.00,118.10 1684.00,121.44 1684.00,121.44              1690.60,123.49 1691.05,126.12 1697.00,128.24              1697.00,128.24 1714.99,132.45 1714.99,132.45              1718.72,134.34 1720.24,137.12 1724.04,138.77              1727.80,140.42 1732.35,139.82 1736.96,141.97              1740.66,143.70 1741.85,146.04 1745.04,148.00              1748.90,150.36 1753.16,150.17 1756.96,152.28              1760.58,154.27 1761.56,156.84 1765.04,158.91              1765.04,158.91 1775.99,163.22 1775.99,163.22              1775.99,163.22 1784.09,169.79 1784.09,169.79              1784.09,169.79 1790.91,173.64 1790.91,173.64              1790.91,173.64 1797.09,179.16 1797.09,179.16              1797.09,179.16 1804.00,182.70 1804.00,182.70              1804.00,182.70 1819.83,194.61 1819.83,194.61              1819.83,194.61 1826.04,200.68 1826.04,200.68              1826.04,200.68 1831.79,205.32 1831.79,205.32              1831.79,205.32 1836.37,210.63 1836.37,210.63              1836.37,210.63 1841.91,215.21 1841.91,215.21              1841.91,215.21 1857.59,231.63 1857.59,231.63              1857.59,231.63 1862.82,236.21 1862.82,236.21              1862.82,236.21 1868.32,242.91 1868.32,242.91              1868.32,242.91 1873.62,248.17 1873.62,248.17              1873.62,248.17 1879.33,256.00 1879.33,256.00              1879.33,256.00 1885.30,263.00 1885.30,263.00              1885.30,263.00 1889.08,270.82 1889.08,270.82              1890.69,273.28 1892.64,274.24 1894.36,276.32              1894.36,276.32 1898.85,283.91 1898.85,283.91              1901.08,286.99 1903.96,288.60 1905.86,292.01              1905.86,292.01 1909.30,301.96 1909.30,301.96              1911.23,305.58 1914.03,306.69 1916.15,310.04              1918.27,313.40 1918.27,317.54 1920.14,321.00              1922.15,324.73 1925.13,326.62 1927.01,331.00              1927.01,331.00 1929.72,342.00 1929.72,342.00              1931.31,345.93 1934.49,347.91 1936.43,352.00              1938.59,356.54 1937.47,360.77 1939.81,367.00              1941.84,372.38 1945.54,375.57 1947.20,381.00              1947.20,381.00 1950.75,402.00 1950.75,402.00              1950.75,402.00 1956.40,416.00 1956.40,416.00              1957.66,419.83 1958.95,432.74 1959.00,437.00              1959.00,437.00 1961.00,479.00 1961.00,479.00              1961.01,480.89 1960.95,483.22 1961.60,485.00              1962.47,487.37 1964.23,489.13 1965.85,491.00              1970.29,496.12 1976.24,501.79 1982.51,494.77              1983.65,493.49 1984.56,491.54 1985.34,490.00              1990.12,480.48 1986.98,478.59 1986.07,469.00              1986.07,469.00 1983.00,422.00 1983.00,422.00              1982.80,404.95 1977.48,405.13 1975.02,394.00              1975.02,394.00 1972.21,372.00 1972.21,372.00              1970.59,366.35 1967.12,363.14 1965.12,358.00              1962.36,350.92 1963.64,347.04 1961.89,342.00              1959.99,336.52 1956.99,334.58 1955.16,331.00              1955.16,331.00 1951.20,317.00 1951.20,317.00              1949.25,312.68 1946.52,310.98 1944.44,307.00              1944.44,307.00 1939.92,295.00 1939.92,295.00              1939.92,295.00 1934.27,287.00 1934.27,287.00              1932.68,283.99 1932.47,281.28 1930.30,278.00              1930.30,278.00 1924.09,270.00 1924.09,270.00              1922.19,266.68 1922.10,263.19 1920.00,260.37              1920.00,260.37 1915.26,255.79 1915.26,255.79              1912.72,252.98 1912.40,250.81 1910.36,248.17              1910.36,248.17 1903.79,240.99 1903.79,240.99              1903.79,240.99 1898.37,232.17 1898.37,232.17              1898.37,232.17 1892.99,225.96 1892.99,225.96              1892.99,225.96 1889.51,220.21 1889.51,220.21              1889.51,220.21 1883.61,214.79 1883.61,214.79              1883.61,214.79 1879.47,209.32 1879.47,209.32              1879.47,209.32 1874.20,204.68 1874.20,204.68              1874.20,204.68 1869.63,199.37 1869.63,199.37              1869.63,199.37 1864.18,194.80 1864.18,194.80              1864.18,194.80 1859.49,189.53 1859.49,189.53              1859.49,189.53 1835.00,169.63 1835.00,169.63              1835.00,169.63 1828.00,165.37 1828.00,165.37              1828.00,165.37 1820.00,158.39 1820.00,158.39              1820.00,158.39 1813.04,153.63 1813.04,153.63              1813.04,153.63 1807.72,149.00 1807.72,149.00              1804.24,146.63 1800.91,146.89 1797.00,144.30              1797.00,144.30 1788.00,137.09 1788.00,137.09              1788.00,137.09 1779.00,133.70 1779.00,133.70              1779.00,133.70 1770.00,127.57 1770.00,127.57              1770.00,127.57 1760.00,124.08 1760.00,124.08              1755.27,121.83 1753.52,118.99 1749.00,116.97              1744.13,114.79 1739.92,115.39 1736.00,113.85              1731.39,112.05 1729.61,108.95 1725.00,107.15              1725.00,107.15 1709.00,103.78 1709.00,103.78              1703.38,101.94 1701.47,99.02 1696.00,97.11              1696.00,97.11 1671.00,93.50 1671.00,93.50              1671.00,93.50 1655.00,87.92 1655.00,87.92              1649.31,86.36 1635.99,85.03 1630.00,85.00              1611.95,84.92 1583.84,81.36 1567.00,83.34              1557.34,86.18 1557.18,95.90 1562.51,102.96 Z            M 1574.11,219.69            C 1577.51,221.54 1585.89,220.98 1590.00,221.00              1590.00,221.00 1601.00,221.96 1601.00,221.96              1601.00,221.96 1612.00,221.96 1612.00,221.96              1617.13,222.06 1629.27,223.46 1634.00,225.10              1634.00,225.10 1646.00,230.61 1646.00,230.61              1646.00,230.61 1664.00,233.94 1664.00,233.94              1669.19,235.49 1670.91,238.42 1676.00,240.52              1676.00,240.52 1689.00,244.55 1689.00,244.55              1689.00,244.55 1698.00,250.64 1698.00,250.64              1698.00,250.64 1707.99,255.00 1707.99,255.00              1711.41,257.12 1712.68,259.60 1716.09,261.45              1719.03,263.04 1721.35,263.10 1725.00,265.65              1725.00,265.65 1732.00,271.61 1732.00,271.61              1732.00,271.61 1738.91,276.39 1738.91,276.39              1738.91,276.39 1745.09,282.47 1745.09,282.47              1745.09,282.47 1750.90,286.60 1750.90,286.60              1750.90,286.60 1756.37,292.22 1756.37,292.22              1756.37,292.22 1761.79,296.38 1761.79,296.38              1761.79,296.38 1766.37,301.79 1766.37,301.79              1766.37,301.79 1771.61,306.37 1771.61,306.37              1771.61,306.37 1776.63,313.41 1776.63,313.41              1776.63,313.41 1781.68,318.10 1781.68,318.10              1781.68,318.10 1787.51,325.49 1787.51,325.49              1787.51,325.49 1792.37,330.18 1792.37,330.18              1792.37,330.18 1803.59,347.00 1803.59,347.00              1803.59,347.00 1807.08,354.91 1807.08,354.91              1809.12,358.19 1811.77,359.31 1813.70,363.01              1813.70,363.01 1817.45,374.83 1817.45,374.83              1819.36,378.23 1822.46,379.68 1824.30,384.00              1824.30,384.00 1827.23,397.00 1827.23,397.00              1829.16,401.64 1832.57,403.84 1834.20,409.00              1834.20,409.00 1837.02,430.00 1837.02,430.00              1837.02,430.00 1843.23,447.00 1843.23,447.00              1844.59,451.45 1845.94,464.21 1846.00,469.00              1846.00,469.00 1846.00,490.00 1846.00,490.00              1846.04,492.47 1845.95,495.49 1847.74,497.44              1851.33,501.36 1866.04,500.83 1869.40,496.70              1871.29,494.38 1870.99,490.83 1871.00,488.00              1871.00,488.00 1871.00,464.00 1871.00,464.00              1870.92,457.59 1869.39,445.11 1867.56,439.00              1865.77,433.00 1864.01,431.61 1862.45,424.00              1862.45,424.00 1859.21,401.00 1859.21,401.00              1857.50,395.09 1854.07,392.64 1852.11,387.00              1852.11,387.00 1849.16,373.00 1849.16,373.00              1847.39,368.88 1843.98,366.58 1842.17,363.00              1842.17,363.00 1839.03,352.01 1839.03,352.01              1836.98,347.55 1834.26,346.64 1832.09,342.96              1830.03,339.48 1830.44,336.46 1828.27,333.00              1828.27,333.00 1822.39,326.00 1822.39,326.00              1822.39,326.00 1817.37,318.00 1817.37,318.00              1817.37,318.00 1811.41,311.00 1811.41,311.00              1811.41,311.00 1807.31,304.00 1807.31,304.00              1807.31,304.00 1797.37,291.37 1797.37,291.37              1797.37,291.37 1792.21,286.79 1792.21,286.79              1792.21,286.79 1787.37,280.63 1787.37,280.63              1787.37,280.63 1782.20,276.61 1782.20,276.61              1782.20,276.61 1777.63,271.38 1777.63,271.38              1777.63,271.38 1771.21,266.47 1771.21,266.47              1771.21,266.47 1765.79,260.69 1765.79,260.69              1765.79,260.69 1759.04,257.01 1759.04,257.01              1759.04,257.01 1751.91,251.10 1751.91,251.10              1751.91,251.10 1744.04,246.37 1744.04,246.37              1744.04,246.37 1736.91,239.72 1736.91,239.72              1734.33,237.94 1731.67,237.74 1729.00,236.43              1729.00,236.43 1720.00,230.27 1720.00,230.27              1720.00,230.27 1710.00,226.33 1710.00,226.33              1710.00,226.33 1700.00,219.65 1700.00,219.65              1700.00,219.65 1686.00,216.01 1686.00,216.01              1681.43,214.05 1679.75,210.96 1675.00,209.34              1675.00,209.34 1657.00,206.52 1657.00,206.52              1647.43,204.06 1647.21,201.14 1638.00,198.90              1638.00,198.90 1612.00,197.00 1612.00,197.00              1612.00,197.00 1576.00,195.39 1576.00,195.39              1562.29,199.87 1569.42,217.13 1574.11,219.69 Z            M 1561.85,300.39            C 1558.63,304.67 1560.18,311.05 1564.13,314.25              1565.60,315.44 1572.32,319.68 1574.00,320.28              1576.92,321.31 1581.63,320.88 1585.00,321.28              1585.00,321.28 1600.00,323.83 1600.00,323.83              1607.28,324.61 1615.03,324.16 1622.00,326.81              1626.87,328.67 1628.45,331.09 1632.00,332.85              1632.00,332.85 1644.00,336.14 1644.00,336.14              1648.79,338.09 1649.42,340.65 1653.09,342.92              1656.18,344.83 1659.84,345.08 1664.00,347.85              1664.00,347.85 1688.79,369.18 1688.79,369.18              1688.79,369.18 1693.37,374.82 1693.37,374.82              1693.37,374.82 1699.48,380.32 1699.48,380.32              1699.48,380.32 1710.35,394.00 1710.35,394.00              1713.37,398.40 1712.69,400.98 1715.51,405.00              1715.51,405.00 1721.28,412.00 1721.28,412.00              1723.98,416.22 1723.65,420.80 1725.34,424.99              1727.28,429.77 1730.44,430.99 1732.15,436.00              1732.15,436.00 1734.46,453.00 1734.46,453.00              1734.46,453.00 1739.54,473.00 1739.54,473.00              1739.54,473.00 1740.17,483.00 1740.17,483.00              1741.21,492.70 1743.20,500.86 1755.00,498.78              1761.31,497.66 1767.52,490.43 1767.64,484.00              1767.64,484.00 1765.92,474.00 1765.92,474.00              1765.92,474.00 1759.43,446.00 1759.43,446.00              1759.43,446.00 1756.47,425.00 1756.47,425.00              1754.84,420.04 1751.97,418.64 1750.14,414.00              1748.59,410.05 1749.11,405.88 1746.44,401.00              1746.44,401.00 1740.71,393.00 1740.71,393.00              1738.38,389.23 1738.40,385.45 1736.16,382.17              1736.16,382.17 1729.63,374.99 1729.63,374.99              1729.63,374.99 1724.48,367.04 1724.48,367.04              1724.48,367.04 1713.80,354.32 1713.80,354.32              1713.80,354.32 1708.51,349.68 1708.51,349.68              1708.51,349.68 1703.82,344.21 1703.82,344.21              1703.82,344.21 1683.09,328.90 1683.09,328.90              1683.09,328.90 1674.99,321.73 1674.99,321.73              1671.63,319.58 1668.75,320.03 1665.00,317.91              1661.11,315.72 1659.64,312.98 1655.00,311.26              1655.00,311.26 1643.00,308.36 1643.00,308.36              1637.95,306.21 1636.44,303.07 1630.00,301.17              1630.00,301.17 1607.00,298.56 1607.00,298.56              1607.00,298.56 1574.00,292.47 1574.00,292.47              1571.01,293.57 1563.75,297.88 1561.85,300.39 Z"
     style="stroke:none;fill:#ffffff;fill-opacity:1" />
</svg>
