<?xml version="1.0" encoding="UTF-8" standalone="no"?>
<!-- Generator: Adobe Illustrator 21.1.0, SVG Export Plug-In . SVG Version: 6.00 Build 0)  -->

<svg
   xmlns:dc="http://purl.org/dc/elements/1.1/"
   xmlns:cc="http://creativecommons.org/ns#"
   xmlns:rdf="http://www.w3.org/1999/02/22-rdf-syntax-ns#"
   xmlns:svg="http://www.w3.org/2000/svg"
   xmlns="http://www.w3.org/2000/svg"
   xmlns:xlink="http://www.w3.org/1999/xlink"
   xmlns:sodipodi="http://sodipodi.sourceforge.net/DTD/sodipodi-0.dtd"
   xmlns:inkscape="http://www.inkscape.org/namespaces/inkscape"
   version="1.1"
   id="Layer_1"
   x="0px"
   y="0px"
   viewBox="0 0 119.9 26.1"
   style="enable-background:new 0 0 119.9 26.1;"
   xml:space="preserve"
   inkscape:version="0.91 r13725"
   sodipodi:docname="vasttrafik_vit.svg"><metadata
     id="metadata235"><rdf:RDF><cc:Work
         rdf:about=""><dc:format>image/svg+xml</dc:format><dc:type
           rdf:resource="http://purl.org/dc/dcmitype/StillImage" /><dc:title></dc:title></cc:Work></rdf:RDF></metadata><defs
     id="defs233" /><sodipodi:namedview
     pagecolor="#ffffff"
     bordercolor="#666666"
     borderopacity="1"
     objecttolerance="10"
     gridtolerance="10"
     guidetolerance="10"
     inkscape:pageopacity="0"
     inkscape:pageshadow="2"
     inkscape:window-width="1172"
     inkscape:window-height="640"
     id="namedview231"
     showgrid="false"
     inkscape:zoom="5.03"
     inkscape:cx="59.950001"
     inkscape:cy="13.05"
     inkscape:window-x="0"
     inkscape:window-y="70"
     inkscape:window-maximized="0"
     inkscape:current-layer="Layer_1" /><style
     type="text/css"
     id="style3">
	.st0{clip-path:url(#SVGID_2_);}
	.st1{clip-path:url(#SVGID_4_);fill:#24B3E8;}
	.st2{clip-path:url(#SVGID_6_);}
	.st3{clip-path:url(#SVGID_8_);fill:#24B3E8;}
	.st4{clip-path:url(#SVGID_10_);}
	.st5{clip-path:url(#SVGID_12_);fill:#24B3E8;}
	.st6{clip-path:url(#SVGID_14_);}
	.st7{clip-path:url(#SVGID_16_);fill:#24B3E8;}
	.st8{clip-path:url(#SVGID_18_);}
	.st9{clip-path:url(#SVGID_20_);fill:#24B3E8;}
	.st10{clip-path:url(#SVGID_22_);}
	.st11{clip-path:url(#SVGID_24_);fill:#24B3E8;}
	.st12{clip-path:url(#SVGID_26_);}
	.st13{clip-path:url(#SVGID_28_);fill:#24B3E8;}
	.st14{clip-path:url(#SVGID_30_);}
	.st15{clip-path:url(#SVGID_32_);fill:#24B3E8;}
	.st16{clip-path:url(#SVGID_34_);}
	.st17{clip-path:url(#SVGID_36_);enable-background:new    ;}
	.st18{clip-path:url(#SVGID_38_);}
	.st19{clip-path:url(#SVGID_40_);}
	.st20{clip-path:url(#SVGID_42_);fill:#24B3E8;}
	.st21{clip-path:url(#SVGID_44_);}
	.st22{clip-path:url(#SVGID_46_);fill:#24B3E8;}
	.st23{clip-path:url(#SVGID_48_);}
	.st24{clip-path:url(#SVGID_50_);fill:#24B3E8;}
</style><g
     id="g5"
     style="fill:#ffffff;fill-opacity:1"><g
       id="g7"
       style="fill:#ffffff;fill-opacity:1"><defs
         id="defs9"><polygon
           id="SVGID_1_"
           points="37.3,7.4 40.7,7.4 42.3,16.3 42.4,16.3 44.1,7.4 47.3,7.4 44.1,19.2 40.5,19.2    " /></defs><clipPath
         id="SVGID_2_"><use
           xlink:href="#SVGID_1_"
           style="overflow:visible;"
           id="use13" /></clipPath><g
         class="st0"
         id="g15"
         clip-path="url(#SVGID_2_)"
         style="fill:#ffffff;fill-opacity:1"><defs
           id="defs17"><rect
             id="SVGID_3_"
             x="-1049"
             y="-1926.1"
             width="1440"
             height="2848" /></defs><clipPath
           id="SVGID_4_"><use
             xlink:href="#SVGID_3_"
             style="overflow:visible;"
             id="use21" /></clipPath><rect
           x="32.3"
           y="2.4"
           class="st1"
           width="20"
           height="21.7"
           id="rect23"
           clip-path="url(#SVGID_4_)"
           style="fill:#ffffff;fill-opacity:1" /></g></g><g
       id="g25"
       style="fill:#ffffff;fill-opacity:1"><defs
         id="defs27"><path
           id="SVGID_5_"
           d="M53.1,5.5h2.6V3h-2.6V5.5z M49,5.5h2.6V3H49V5.5z M50.7,15.5c0,0.8,0.1,1.9,1.2,1.9c1.9,0,1.6-2.6,1.6-3.9     C51.9,13.6,50.7,13.4,50.7,15.5z M56.8,17c0,0.7,0.1,1.5,0.2,2.2h-3l-0.1-1.6h0c-0.7,1.2-1.7,1.8-3.1,1.8c-2.3,0-3.1-1.7-3.1-3.7     c0-3.9,3-4,6-4v-0.9c0-1-0.1-1.7-1.3-1.7c-1.1,0-1.2,0.9-1.2,1.8h-3.2c0-1.4,0.4-2.3,1.2-2.9c0.7-0.6,1.8-0.8,3.1-0.8     c4.2,0,4.7,1.8,4.7,3.9V17z" /></defs><clipPath
         id="SVGID_6_"><use
           xlink:href="#SVGID_5_"
           style="overflow:visible;"
           id="use31" /></clipPath><g
         class="st2"
         id="g33"
         clip-path="url(#SVGID_6_)"
         style="fill:#ffffff;fill-opacity:1"><defs
           id="defs35"><rect
             id="SVGID_7_"
             x="-1049"
             y="-1926.1"
             width="1440"
             height="2848" /></defs><clipPath
           id="SVGID_8_"><use
             xlink:href="#SVGID_7_"
             style="overflow:visible;"
             id="use39" /></clipPath><rect
           x="42.5"
           y="-2"
           class="st3"
           width="19.4"
           height="26.5"
           id="rect41"
           clip-path="url(#SVGID_8_)"
           style="fill:#ffffff;fill-opacity:1" /></g></g><g
       id="g43"
       style="fill:#ffffff;fill-opacity:1"><defs
         id="defs45"><path
           id="SVGID_9_"
           d="M61.1,15.4c0,0.5,0,1,0.2,1.4c0.2,0.4,0.5,0.6,1.2,0.6c0.7,0,1.2-0.4,1.2-1.2c0-2.5-5.8-1.9-5.8-5.7     c0-2.5,2.5-3.3,4.6-3.3c2.2,0,4.3,1.1,4.1,3.6h-3.2c0-0.8-0.1-1.3-0.3-1.5c-0.2-0.2-0.5-0.3-0.8-0.3c-0.7,0-1.1,0.5-1.1,1.3     c0,1.9,5.8,1.8,5.8,5.5c0,2-1.7,3.6-4.4,3.6c-2.9,0-4.8-0.7-4.6-4H61.1z" /></defs><clipPath
         id="SVGID_10_"><use
           xlink:href="#SVGID_9_"
           style="overflow:visible;"
           id="use49" /></clipPath><g
         class="st4"
         id="g51"
         clip-path="url(#SVGID_10_)"
         style="fill:#ffffff;fill-opacity:1"><defs
           id="defs53"><rect
             id="SVGID_11_"
             x="-1049"
             y="-1926.1"
             width="1440"
             height="2848" /></defs><clipPath
           id="SVGID_12_"><use
             xlink:href="#SVGID_11_"
             style="overflow:visible;"
             id="use57" /></clipPath><rect
           x="52.9"
           y="2.2"
           class="st5"
           width="19"
           height="22.2"
           id="rect59"
           clip-path="url(#SVGID_12_)"
           style="fill:#ffffff;fill-opacity:1" /></g></g><g
       id="g61"
       style="fill:#ffffff;fill-opacity:1"><defs
         id="defs63"><path
           id="SVGID_13_"
           d="M67.2,7.4h1.3V5.6l3.3-1.5v3.3h1.7v2h-1.7v6.3c0,0.9,0,1.5,1,1.5c0.2,0,0.4,0,0.6,0v2     c-0.4,0-0.9,0.1-1.7,0.1c-2.8,0-3.2-1.9-3.2-2.6V9.5h-1.3V7.4z" /></defs><clipPath
         id="SVGID_14_"><use
           xlink:href="#SVGID_13_"
           style="overflow:visible;"
           id="use67" /></clipPath><g
         class="st6"
         id="g69"
         clip-path="url(#SVGID_14_)"
         style="fill:#ffffff;fill-opacity:1"><defs
           id="defs71"><rect
             id="SVGID_15_"
             x="-1049"
             y="-1926.1"
             width="1440"
             height="2848" /></defs><clipPath
           id="SVGID_16_"><use
             xlink:href="#SVGID_15_"
             style="overflow:visible;"
             id="use75" /></clipPath><rect
           x="62.2"
           y="-0.9"
           class="st7"
           width="16.3"
           height="25.2"
           id="rect77"
           clip-path="url(#SVGID_16_)"
           style="fill:#ffffff;fill-opacity:1" /></g></g><g
       id="g79"
       style="fill:#ffffff;fill-opacity:1"><defs
         id="defs81"><path
           id="SVGID_17_"
           d="M73.5,7.4h1.3V5.6l3.3-1.5v3.3h1.7v2h-1.7v6.3c0,0.9,0,1.5,1,1.5c0.2,0,0.4,0,0.6,0v2     c-0.4,0-0.9,0.1-1.7,0.1c-2.8,0-3.2-1.9-3.2-2.6V9.5h-1.3V7.4z" /></defs><clipPath
         id="SVGID_18_"><use
           xlink:href="#SVGID_17_"
           style="overflow:visible;"
           id="use85" /></clipPath><g
         class="st8"
         id="g87"
         clip-path="url(#SVGID_18_)"
         style="fill:#ffffff;fill-opacity:1"><defs
           id="defs89"><rect
             id="SVGID_19_"
             x="-1049"
             y="-1926.1"
             width="1440"
             height="2848" /></defs><clipPath
           id="SVGID_20_"><use
             xlink:href="#SVGID_19_"
             style="overflow:visible;"
             id="use93" /></clipPath><rect
           x="68.5"
           y="-0.9"
           class="st9"
           width="16.3"
           height="25.2"
           id="rect95"
           clip-path="url(#SVGID_20_)"
           style="fill:#ffffff;fill-opacity:1" /></g></g><g
       id="g97"
       style="fill:#ffffff;fill-opacity:1"><defs
         id="defs99"><path
           id="SVGID_21_"
           d="M84.1,7.4V9h0c0.6-1.3,1.7-1.7,3-1.7v2.9c-2.9-0.2-2.9,1.5-2.9,2.7v6.4H81V7.4H84.1z" /></defs><clipPath
         id="SVGID_22_"><use
           xlink:href="#SVGID_21_"
           style="overflow:visible;"
           id="use103" /></clipPath><g
         class="st10"
         id="g105"
         clip-path="url(#SVGID_22_)"
         style="fill:#ffffff;fill-opacity:1"><defs
           id="defs107"><rect
             id="SVGID_23_"
             x="-1049"
             y="-1926.1"
             width="1440"
             height="2848" /></defs><clipPath
           id="SVGID_24_"><use
             xlink:href="#SVGID_23_"
             style="overflow:visible;"
             id="use111" /></clipPath><rect
           x="76"
           y="2.2"
           class="st11"
           width="16.2"
           height="22"
           id="rect113"
           clip-path="url(#SVGID_24_)"
           style="fill:#ffffff;fill-opacity:1" /></g></g><g
       id="g115"
       style="fill:#ffffff;fill-opacity:1"><defs
         id="defs117"><path
           id="SVGID_25_"
           d="M96.6,17c0,0.7,0.1,1.5,0.2,2.2h-3l-0.1-1.6h0c-0.7,1.2-1.7,1.8-3.1,1.8c-2.3,0-3.1-1.7-3.1-3.7     c0-3.9,3-4,6-4v-0.9c0-1-0.1-1.7-1.3-1.7c-1.1,0-1.2,0.9-1.2,1.8h-3.2c0-1.4,0.4-2.3,1.2-2.9c0.7-0.6,1.8-0.8,3.1-0.8     c4.2,0,4.7,1.8,4.7,3.9V17z M90.6,15.5c0,0.8,0.1,1.9,1.2,1.9c1.9,0,1.6-2.6,1.6-3.9C91.8,13.6,90.6,13.4,90.6,15.5z" /></defs><clipPath
         id="SVGID_26_"><use
           xlink:href="#SVGID_25_"
           style="overflow:visible;"
           id="use121" /></clipPath><g
         class="st12"
         id="g123"
         clip-path="url(#SVGID_26_)"
         style="fill:#ffffff;fill-opacity:1"><defs
           id="defs125"><rect
             id="SVGID_27_"
             x="-1049"
             y="-1926.1"
             width="1440"
             height="2848" /></defs><clipPath
           id="SVGID_28_"><use
             xlink:href="#SVGID_27_"
             style="overflow:visible;"
             id="use129" /></clipPath><rect
           x="82.3"
           y="2.2"
           class="st13"
           width="19.4"
           height="22.2"
           id="rect131"
           clip-path="url(#SVGID_28_)"
           style="fill:#ffffff;fill-opacity:1" /></g></g><g
       id="g133"
       style="fill:#ffffff;fill-opacity:1"><defs
         id="defs135"><path
           id="SVGID_29_"
           d="M103.5,5.5c-1.4,0-1.6,0.2-1.6,1l0,0.8h1.6v2.1h-1.6v9.6h-3.3V9.6h-1.5V7.4h1.5c0-3.4-0.3-4.6,3.7-4.6     c0.4,0,0.7,0,1.1,0V5.5z" /></defs><clipPath
         id="SVGID_30_"><use
           xlink:href="#SVGID_29_"
           style="overflow:visible;"
           id="use139" /></clipPath><g
         class="st14"
         id="g141"
         clip-path="url(#SVGID_30_)"
         style="fill:#ffffff;fill-opacity:1"><defs
           id="defs143"><rect
             id="SVGID_31_"
             x="-1049"
             y="-1926.1"
             width="1440"
             height="2848" /></defs><clipPath
           id="SVGID_32_"><use
             xlink:href="#SVGID_31_"
             style="overflow:visible;"
             id="use147" /></clipPath><rect
           x="92.2"
           y="-2.1"
           class="st15"
           width="16.3"
           height="26.3"
           id="rect149"
           clip-path="url(#SVGID_32_)"
           style="fill:#ffffff;fill-opacity:1" /></g></g><g
       id="g151"
       style="fill:#ffffff;fill-opacity:1"><defs
         id="defs153"><rect
           id="SVGID_33_"
           width="119.9"
           height="26.1" /></defs><clipPath
         id="SVGID_34_"><use
           xlink:href="#SVGID_33_"
           style="overflow:visible;"
           id="use157" /></clipPath><g
         class="st16"
         id="g159"
         clip-path="url(#SVGID_34_)"
         style="fill:#ffffff;fill-opacity:1"><defs
           id="defs161"><rect
             id="SVGID_35_"
             x="-1049"
             y="-1926.1"
             width="1440"
             height="2848" /></defs><clipPath
           id="SVGID_36_"><use
             xlink:href="#SVGID_35_"
             style="overflow:visible;"
             id="use165" /></clipPath><g
           class="st17"
           id="g167"
           clip-path="url(#SVGID_36_)"
           style="fill:#ffffff;fill-opacity:1"><g
             id="g169"
             style="fill:#ffffff;fill-opacity:1"><defs
               id="defs171"><rect
                 id="SVGID_37_"
                 y="-0.1"
                 width="120"
                 height="27" /></defs><clipPath
               id="SVGID_38_"><use
                 xlink:href="#SVGID_37_"
                 style="overflow:visible;"
                 id="use175" /></clipPath><g
               class="st18"
               id="g177"
               clip-path="url(#SVGID_38_)"
               style="fill:#ffffff;fill-opacity:1"><defs
                 id="defs179"><path
                   id="SVGID_39_"
                   d="M104.8,19.2h3.3V7.4h-3.3V19.2z M104.8,5.6h3.3V3h-3.3V5.6z" /></defs><clipPath
                 id="SVGID_40_"><use
                   xlink:href="#SVGID_39_"
                   style="overflow:visible;"
                   id="use183" /></clipPath><g
                 class="st19"
                 id="g185"
                 clip-path="url(#SVGID_40_)"
                 style="fill:#ffffff;fill-opacity:1"><defs
                   id="defs187"><rect
                     id="SVGID_41_"
                     y="-0.1"
                     width="120"
                     height="27" /></defs><clipPath
                   id="SVGID_42_"><use
                     xlink:href="#SVGID_41_"
                     style="overflow:visible;"
                     id="use191" /></clipPath><rect
                   x="99.8"
                   y="-2"
                   class="st20"
                   width="13.3"
                   height="26.2"
                   id="rect193"
                   clip-path="url(#SVGID_42_)"
                   style="fill:#ffffff;fill-opacity:1" /></g></g><g
               class="st18"
               id="g195"
               clip-path="url(#SVGID_38_)"
               style="fill:#ffffff;fill-opacity:1"><defs
                 id="defs197"><polygon
                   id="SVGID_43_"
                   points="109.8,19.2 109.8,3 113.1,3 113.1,12.4 113.2,12.4 116.1,7.4 119.5,7.4 116.2,12.7          119.9,19.2 116.2,19.2 113.2,12.8 113.1,12.8 113.1,19.2        " /></defs><clipPath
                 id="SVGID_44_"><use
                   xlink:href="#SVGID_43_"
                   style="overflow:visible;"
                   id="use201" /></clipPath><g
                 class="st21"
                 id="g203"
                 clip-path="url(#SVGID_44_)"
                 style="fill:#ffffff;fill-opacity:1"><defs
                   id="defs205"><rect
                     id="SVGID_45_"
                     y="-0.1"
                     width="120"
                     height="27" /></defs><clipPath
                   id="SVGID_46_"><use
                     xlink:href="#SVGID_45_"
                     style="overflow:visible;"
                     id="use209" /></clipPath><rect
                   x="104.8"
                   y="-2"
                   class="st22"
                   width="20.1"
                   height="26.2"
                   id="rect211"
                   clip-path="url(#SVGID_46_)"
                   style="fill:#ffffff;fill-opacity:1" /></g></g><g
               class="st18"
               id="g213"
               clip-path="url(#SVGID_38_)"
               style="fill:#ffffff;fill-opacity:1"><defs
                 id="defs215"><path
                   id="SVGID_47_"
                   d="M35.8,7.4c-7.5,0.5-12.5,5.5-12.5,5.5c-1-1-2.1-1.9-3.1-2.7c1.1-2.3,1.9-5,2.1-8.4c0,0,5.2,1,7.7,6         c0.5-0.1,1.1-0.2,1.6-0.3C29.6,3.1,25,0,19.8,0c-4.1,0-7.7,1.9-10.1,4.8C4,3.3,0,4.2,0,4.2c17.5,3.6,23.3,18.1,23.3,18.1         c2.5-5.9,5.3-9.5,7.7-11.7c0.1,0.7,0.3,1.5,0.3,2.3c0,0,0.2,4.1-2.7,7.4c0,0-3.1,4.1-8.7,4.1c0,0-5.3,0.3-9.1-4.4         c0,0,3.2-1.3,6.2-4.8c-0.4-0.4-0.9-0.8-1.3-1.2c-1.5,1.7-3.4,3.3-5.9,4.5c0,0-2.7-4.3-0.7-9.5c-0.5-0.3-1-0.6-1.4-0.9         c-0.6,1.5-1,3.2-1,5c0,7.2,5.8,13.1,13.1,13.1c7.2,0,13.1-5.8,13.1-13.1c0-1.3-0.2-2.5-0.5-3.6C34.4,7.8,35.8,7.4,35.8,7.4          M11.4,5.4c1.7-1.9,4.6-4,9.3-3.8c0,0,0,3.5-1.8,7.5C16.2,7.3,13.7,6.1,11.4,5.4" /></defs><clipPath
                 id="SVGID_48_"><use
                   xlink:href="#SVGID_47_"
                   style="overflow:visible;"
                   id="use219" /></clipPath><g
                 class="st23"
                 id="g221"
                 clip-path="url(#SVGID_48_)"
                 style="fill:#ffffff;fill-opacity:1"><defs
                   id="defs223"><rect
                     id="SVGID_49_"
                     y="-0.1"
                     width="120"
                     height="27" /></defs><clipPath
                   id="SVGID_50_"><use
                     xlink:href="#SVGID_49_"
                     style="overflow:visible;"
                     id="use227" /></clipPath><rect
                   x="-5"
                   y="-5"
                   class="st24"
                   width="45.8"
                   height="36.1"
                   id="rect229"
                   clip-path="url(#SVGID_50_)"
                   style="fill:#ffffff;fill-opacity:1" /></g></g></g></g></g></g></g></svg>