<?xml version="1.0" encoding="utf-8"?>
<!-- Generator: Adobe Illustrator 21.1.0, SVG Export Plug-In . SVG Version: 6.00 Build 0)  -->
<svg version="1.1" id="Layer_1" xmlns="http://www.w3.org/2000/svg" xmlns:xlink="http://www.w3.org/1999/xlink" x="0px" y="0px"
	 viewBox="0 0 12 12" style="enable-background:new 0 0 12 12;" xml:space="preserve">
<style type="text/css">
	.st0{fill:#2C2C30;}
</style>
<path class="st0" d="M6,4.4l-4-4c-0.4-0.4-1.2-0.4-1.6,0c-0.4,0.4-0.4,1.2,0,1.6l4,4l-4,4c-0.4,0.4-0.4,1.2,0,1.6
	c0.4,0.4,1.2,0.4,1.6,0l4-4l4,4c0.4,0.4,1.2,0.4,1.6,0c0.4-0.4,0.4-1.2,0-1.6l-4-4l4-4c0.4-0.4,0.4-1.2,0-1.6
	c-0.4-0.4-1.2-0.4-1.6,0L6,4.4z"/>
</svg>
